<ttFont>
    <TTGlyph name="A" xMin="-43" yMin="-114" xMax="557" yMax="750">
      <contour>
        <pt x="447" y="0" on="1"/>
        <pt x="447" y="360" on="1"/>
        <pt x="409" y="378" on="0"/>
        <pt x="312" y="403" on="0"/>
        <pt x="262" y="409" on="1"/>
        <pt x="250" y="365" on="0"/>
        <pt x="230" y="272" on="0"/>
        <pt x="216" y="181" on="0"/>
        <pt x="208" y="94" on="0"/>
        <pt x="208" y="55" on="1"/>
        <pt x="208" y="11" on="0"/>
        <pt x="221" y="-73" on="0"/>
        <pt x="243" y="-114" on="1"/>
        <pt x="220" y="-114" on="0"/>
        <pt x="170" y="-104" on="0"/>
        <pt x="128" y="-69" on="0"/>
        <pt x="101" y="-4" on="0"/>
        <pt x="101" y="51" on="1"/>
        <pt x="101" y="86" on="0"/>
        <pt x="111" y="172" on="0"/>
        <pt x="131" y="266" on="0"/>
        <pt x="160" y="365" on="0"/>
        <pt x="178" y="413" on="1"/>
        <pt x="149" y="412" on="0"/>
        <pt x="98" y="404" on="0"/>
        <pt x="61" y="389" on="0"/>
        <pt x="39" y="369" on="0"/>
        <pt x="39" y="357" on="1"/>
        <pt x="39" y="353" on="0"/>
        <pt x="40" y="351" on="1"/>
        <pt x="66" y="343" on="0"/>
        <pt x="66" y="318" on="1"/>
        <pt x="66" y="300" on="0"/>
        <pt x="40" y="286" on="0"/>
        <pt x="25" y="286" on="1"/>
        <pt x="0" y="286" on="0"/>
        <pt x="-43" y="315" on="0"/>
        <pt x="-43" y="351" on="1"/>
        <pt x="-43" y="375" on="0"/>
        <pt x="-14" y="413" on="0"/>
        <pt x="37" y="440" on="0"/>
        <pt x="106" y="454" on="0"/>
        <pt x="147" y="454" on="1"/>
        <pt x="158" y="454" on="0"/>
        <pt x="182" y="453" on="0"/>
        <pt x="194" y="452" on="1"/>
        <pt x="219" y="512" on="0"/>
        <pt x="281" y="621" on="0"/>
        <pt x="353" y="702" on="0"/>
        <pt x="433" y="750" on="0"/>
        <pt x="477" y="750" on="1"/>
        <pt x="492" y="750" on="0"/>
        <pt x="537" y="744" on="0"/>
        <pt x="557" y="736" on="1"/>
        <pt x="557" y="0" on="1"/>
      </contour>
      <contour>
        <pt x="272" y="442" on="1"/>
        <pt x="322" y="433" on="0"/>
        <pt x="414" y="406" on="0"/>
        <pt x="447" y="390" on="1"/>
        <pt x="447" y="702" on="1"/>
        <pt x="422" y="700" on="0"/>
        <pt x="374" y="659" on="0"/>
        <pt x="329" y="589" on="0"/>
        <pt x="289" y="496" on="0"/>
      </contour>
    </TTGlyph>
    <TTGlyph name="A.salt" xMin="27" yMin="-114" xMax="483" yMax="750">
      <contour>
        <pt x="373" y="0" on="1"/>
        <pt x="373" y="380" on="1"/>
        <pt x="180" y="380" on="1"/>
        <pt x="158" y="297" on="0"/>
        <pt x="134" y="127" on="0"/>
        <pt x="134" y="55" on="1"/>
        <pt x="134" y="11" on="0"/>
        <pt x="147" y="-73" on="0"/>
        <pt x="169" y="-114" on="1"/>
        <pt x="147" y="-114" on="0"/>
        <pt x="97" y="-104" on="0"/>
        <pt x="55" y="-69" on="0"/>
        <pt x="27" y="-4" on="0"/>
        <pt x="27" y="51" on="1"/>
        <pt x="27" y="107" on="0"/>
        <pt x="53" y="254" on="0"/>
        <pt x="100" y="409" on="0"/>
        <pt x="167" y="559" on="0"/>
        <pt x="251" y="677" on="0"/>
        <pt x="349" y="750" on="0"/>
        <pt x="403" y="750" on="1"/>
        <pt x="418" y="750" on="0"/>
        <pt x="463" y="744" on="0"/>
        <pt x="483" y="736" on="1"/>
        <pt x="483" y="0" on="1"/>
      </contour>
      <contour>
        <pt x="373" y="702" on="1"/>
        <pt x="347" y="700" on="0"/>
        <pt x="296" y="654" on="0"/>
        <pt x="249" y="577" on="0"/>
        <pt x="208" y="475" on="0"/>
        <pt x="191" y="418" on="1"/>
        <pt x="373" y="418" on="1"/>
      </contour>
    </TTGlyph>
    <TTGlyph name="AE" xMin="10" yMin="-114" xMax="830" yMax="750">
      <contour>
        <pt x="734" y="657" on="1"/>
        <pt x="703" y="657" on="0"/>
        <pt x="640" y="671" on="0"/>
        <pt x="610" y="679" on="1"/>
        <pt x="610" y="413" on="1"/>
        <pt x="757" y="413" on="1"/>
        <pt x="757" y="354" on="1"/>
        <pt x="610" y="354" on="1"/>
        <pt x="610" y="70" on="1"/>
        <pt x="830" y="70" on="1"/>
        <pt x="830" y="0" on="1"/>
        <pt x="500" y="0" on="1"/>
        <pt x="500" y="360" on="1"/>
        <pt x="462" y="378" on="0"/>
        <pt x="364" y="403" on="0"/>
        <pt x="315" y="409" on="1"/>
        <pt x="289" y="321" on="0"/>
        <pt x="261" y="136" on="0"/>
        <pt x="261" y="55" on="1"/>
        <pt x="261" y="11" on="0"/>
        <pt x="274" y="-73" on="0"/>
        <pt x="296" y="-114" on="1"/>
        <pt x="272" y="-114" on="0"/>
        <pt x="222" y="-103" on="0"/>
        <pt x="181" y="-68" on="0"/>
        <pt x="154" y="-1" on="0"/>
        <pt x="154" y="56" on="1"/>
        <pt x="154" y="89" on="0"/>
        <pt x="164" y="173" on="0"/>
        <pt x="183" y="266" on="0"/>
        <pt x="212" y="365" on="0"/>
        <pt x="230" y="413" on="1"/>
        <pt x="201" y="412" on="0"/>
        <pt x="151" y="404" on="0"/>
        <pt x="113" y="389" on="0"/>
        <pt x="92" y="369" on="0"/>
        <pt x="92" y="357" on="1"/>
        <pt x="92" y="353" on="0"/>
        <pt x="93" y="351" on="1"/>
        <pt x="119" y="343" on="0"/>
        <pt x="119" y="319" on="1"/>
        <pt x="119" y="299" on="0"/>
        <pt x="92" y="286" on="0"/>
        <pt x="77" y="286" on="1"/>
        <pt x="65" y="286" on="0"/>
        <pt x="42" y="293" on="0"/>
        <pt x="22" y="308" on="0"/>
        <pt x="10" y="332" on="0"/>
        <pt x="10" y="349" on="1"/>
        <pt x="10" y="374" on="0"/>
        <pt x="39" y="413" on="0"/>
        <pt x="90" y="440" on="0"/>
        <pt x="159" y="454" on="0"/>
        <pt x="200" y="454" on="1"/>
        <pt x="211" y="454" on="0"/>
        <pt x="234" y="454" on="0"/>
        <pt x="246" y="452" on="1"/>
        <pt x="271" y="512" on="0"/>
        <pt x="335" y="621" on="0"/>
        <pt x="409" y="702" on="0"/>
        <pt x="493" y="750" on="0"/>
        <pt x="540" y="750" on="1"/>
        <pt x="558" y="750" on="0"/>
        <pt x="602" y="744" on="0"/>
        <pt x="648" y="737" on="0"/>
        <pt x="693" y="731" on="0"/>
        <pt x="711" y="731" on="1"/>
        <pt x="724" y="731" on="0"/>
        <pt x="755" y="734" on="0"/>
        <pt x="786" y="740" on="0"/>
        <pt x="813" y="747" on="0"/>
        <pt x="822" y="750" on="1"/>
        <pt x="820" y="720" on="0"/>
        <pt x="805" y="684" on="0"/>
        <pt x="781" y="664" on="0"/>
        <pt x="751" y="657" on="0"/>
      </contour>
      <contour>
        <pt x="325" y="442" on="1"/>
        <pt x="375" y="433" on="0"/>
        <pt x="467" y="406" on="0"/>
        <pt x="500" y="390" on="1"/>
        <pt x="500" y="701" on="1"/>
        <pt x="474" y="697" on="0"/>
        <pt x="425" y="653" on="0"/>
        <pt x="381" y="584" on="0"/>
        <pt x="341" y="493" on="0"/>
      </contour>
    </TTGlyph>
    <TTGlyph name="Aacute" xMin="-43" yMin="-114" xMax="557" yMax="1000">
      <contour>
        <pt x="447" y="0" on="1"/>
        <pt x="447" y="360" on="1"/>
        <pt x="409" y="378" on="0"/>
        <pt x="312" y="403" on="0"/>
        <pt x="262" y="409" on="1"/>
        <pt x="250" y="365" on="0"/>
        <pt x="230" y="272" on="0"/>
        <pt x="216" y="181" on="0"/>
        <pt x="208" y="94" on="0"/>
        <pt x="208" y="55" on="1"/>
        <pt x="208" y="11" on="0"/>
        <pt x="221" y="-73" on="0"/>
        <pt x="243" y="-114" on="1"/>
        <pt x="220" y="-114" on="0"/>
        <pt x="170" y="-104" on="0"/>
        <pt x="128" y="-69" on="0"/>
        <pt x="101" y="-4" on="0"/>
        <pt x="101" y="51" on="1"/>
        <pt x="101" y="86" on="0"/>
        <pt x="111" y="172" on="0"/>
        <pt x="131" y="266" on="0"/>
        <pt x="160" y="365" on="0"/>
        <pt x="178" y="413" on="1"/>
        <pt x="149" y="412" on="0"/>
        <pt x="98" y="404" on="0"/>
        <pt x="61" y="389" on="0"/>
        <pt x="39" y="369" on="0"/>
        <pt x="39" y="357" on="1"/>
        <pt x="39" y="353" on="0"/>
        <pt x="40" y="351" on="1"/>
        <pt x="66" y="343" on="0"/>
        <pt x="66" y="318" on="1"/>
        <pt x="66" y="300" on="0"/>
        <pt x="40" y="286" on="0"/>
        <pt x="25" y="286" on="1"/>
        <pt x="0" y="286" on="0"/>
        <pt x="-43" y="315" on="0"/>
        <pt x="-43" y="351" on="1"/>
        <pt x="-43" y="375" on="0"/>
        <pt x="-14" y="413" on="0"/>
        <pt x="37" y="440" on="0"/>
        <pt x="106" y="454" on="0"/>
        <pt x="147" y="454" on="1"/>
        <pt x="158" y="454" on="0"/>
        <pt x="182" y="453" on="0"/>
        <pt x="194" y="452" on="1"/>
        <pt x="219" y="512" on="0"/>
        <pt x="281" y="621" on="0"/>
        <pt x="353" y="702" on="0"/>
        <pt x="433" y="750" on="0"/>
        <pt x="477" y="750" on="1"/>
        <pt x="492" y="750" on="0"/>
        <pt x="537" y="744" on="0"/>
        <pt x="557" y="736" on="1"/>
        <pt x="557" y="0" on="1"/>
      </contour>
      <contour>
        <pt x="272" y="442" on="1"/>
        <pt x="322" y="433" on="0"/>
        <pt x="414" y="406" on="0"/>
        <pt x="447" y="390" on="1"/>
        <pt x="447" y="702" on="1"/>
        <pt x="422" y="700" on="0"/>
        <pt x="374" y="659" on="0"/>
        <pt x="329" y="589" on="0"/>
        <pt x="289" y="496" on="0"/>
      </contour>
      <contour>
        <pt x="449" y="1000" on="1"/>
        <pt x="534" y="1000" on="1"/>
        <pt x="453" y="811" on="1"/>
        <pt x="398" y="811" on="1"/>
      </contour>
    </TTGlyph>
    <TTGlyph name="Acircumflex" xMin="-43" yMin="-114" xMax="557" yMax="978">
      <contour>
        <pt x="447" y="0" on="1"/>
        <pt x="447" y="360" on="1"/>
        <pt x="409" y="378" on="0"/>
        <pt x="312" y="403" on="0"/>
        <pt x="262" y="409" on="1"/>
        <pt x="250" y="365" on="0"/>
        <pt x="230" y="272" on="0"/>
        <pt x="216" y="181" on="0"/>
        <pt x="208" y="94" on="0"/>
        <pt x="208" y="55" on="1"/>
        <pt x="208" y="11" on="0"/>
        <pt x="221" y="-73" on="0"/>
        <pt x="243" y="-114" on="1"/>
        <pt x="220" y="-114" on="0"/>
        <pt x="170" y="-104" on="0"/>
        <pt x="128" y="-69" on="0"/>
        <pt x="101" y="-4" on="0"/>
        <pt x="101" y="51" on="1"/>
        <pt x="101" y="86" on="0"/>
        <pt x="111" y="172" on="0"/>
        <pt x="131" y="266" on="0"/>
        <pt x="160" y="365" on="0"/>
        <pt x="178" y="413" on="1"/>
        <pt x="149" y="412" on="0"/>
        <pt x="98" y="404" on="0"/>
        <pt x="61" y="389" on="0"/>
        <pt x="39" y="369" on="0"/>
        <pt x="39" y="357" on="1"/>
        <pt x="39" y="353" on="0"/>
        <pt x="40" y="351" on="1"/>
        <pt x="66" y="343" on="0"/>
        <pt x="66" y="318" on="1"/>
        <pt x="66" y="300" on="0"/>
        <pt x="40" y="286" on="0"/>
        <pt x="25" y="286" on="1"/>
        <pt x="0" y="286" on="0"/>
        <pt x="-43" y="315" on="0"/>
        <pt x="-43" y="351" on="1"/>
        <pt x="-43" y="375" on="0"/>
        <pt x="-14" y="413" on="0"/>
        <pt x="37" y="440" on="0"/>
        <pt x="106" y="454" on="0"/>
        <pt x="147" y="454" on="1"/>
        <pt x="158" y="454" on="0"/>
        <pt x="182" y="453" on="0"/>
        <pt x="194" y="452" on="1"/>
        <pt x="219" y="512" on="0"/>
        <pt x="281" y="621" on="0"/>
        <pt x="353" y="702" on="0"/>
        <pt x="433" y="750" on="0"/>
        <pt x="477" y="750" on="1"/>
        <pt x="492" y="750" on="0"/>
        <pt x="537" y="744" on="0"/>
        <pt x="557" y="736" on="1"/>
        <pt x="557" y="0" on="1"/>
      </contour>
      <contour>
        <pt x="272" y="442" on="1"/>
        <pt x="322" y="433" on="0"/>
        <pt x="414" y="406" on="0"/>
        <pt x="447" y="390" on="1"/>
        <pt x="447" y="702" on="1"/>
        <pt x="422" y="700" on="0"/>
        <pt x="374" y="659" on="0"/>
        <pt x="329" y="589" on="0"/>
        <pt x="289" y="496" on="0"/>
      </contour>
      <contour>
        <pt x="533" y="811" on="1"/>
        <pt x="447" y="912" on="1"/>
        <pt x="306" y="811" on="1"/>
        <pt x="272" y="811" on="1"/>
        <pt x="438" y="978" on="1"/>
        <pt x="459" y="978" on="1"/>
        <pt x="555" y="811" on="1"/>
      </contour>
    </TTGlyph>
    <TTGlyph name="Adieresis" xMin="-43" yMin="-114" xMax="564" yMax="949">
      <contour>
        <pt x="447" y="0" on="1"/>
        <pt x="447" y="360" on="1"/>
        <pt x="409" y="378" on="0"/>
        <pt x="312" y="403" on="0"/>
        <pt x="262" y="409" on="1"/>
        <pt x="250" y="365" on="0"/>
        <pt x="230" y="272" on="0"/>
        <pt x="216" y="181" on="0"/>
        <pt x="208" y="94" on="0"/>
        <pt x="208" y="55" on="1"/>
        <pt x="208" y="11" on="0"/>
        <pt x="221" y="-73" on="0"/>
        <pt x="243" y="-114" on="1"/>
        <pt x="220" y="-114" on="0"/>
        <pt x="170" y="-104" on="0"/>
        <pt x="128" y="-69" on="0"/>
        <pt x="101" y="-4" on="0"/>
        <pt x="101" y="51" on="1"/>
        <pt x="101" y="86" on="0"/>
        <pt x="111" y="172" on="0"/>
        <pt x="131" y="266" on="0"/>
        <pt x="160" y="365" on="0"/>
        <pt x="178" y="413" on="1"/>
        <pt x="149" y="412" on="0"/>
        <pt x="98" y="404" on="0"/>
        <pt x="61" y="389" on="0"/>
        <pt x="39" y="369" on="0"/>
        <pt x="39" y="357" on="1"/>
        <pt x="39" y="353" on="0"/>
        <pt x="40" y="351" on="1"/>
        <pt x="66" y="343" on="0"/>
        <pt x="66" y="318" on="1"/>
        <pt x="66" y="300" on="0"/>
        <pt x="40" y="286" on="0"/>
        <pt x="25" y="286" on="1"/>
        <pt x="0" y="286" on="0"/>
        <pt x="-43" y="315" on="0"/>
        <pt x="-43" y="351" on="1"/>
        <pt x="-43" y="375" on="0"/>
        <pt x="-14" y="413" on="0"/>
        <pt x="37" y="440" on="0"/>
        <pt x="106" y="454" on="0"/>
        <pt x="147" y="454" on="1"/>
        <pt x="158" y="454" on="0"/>
        <pt x="182" y="453" on="0"/>
        <pt x="194" y="452" on="1"/>
        <pt x="219" y="512" on="0"/>
        <pt x="281" y="621" on="0"/>
        <pt x="353" y="702" on="0"/>
        <pt x="433" y="750" on="0"/>
        <pt x="477" y="750" on="1"/>
        <pt x="492" y="750" on="0"/>
        <pt x="537" y="744" on="0"/>
        <pt x="557" y="736" on="1"/>
        <pt x="557" y="0" on="1"/>
      </contour>
      <contour>
        <pt x="272" y="442" on="1"/>
        <pt x="322" y="433" on="0"/>
        <pt x="414" y="406" on="0"/>
        <pt x="447" y="390" on="1"/>
        <pt x="447" y="702" on="1"/>
        <pt x="422" y="700" on="0"/>
        <pt x="374" y="659" on="0"/>
        <pt x="329" y="589" on="0"/>
        <pt x="289" y="496" on="0"/>
      </contour>
      <contour>
        <pt x="457" y="895" on="1"/>
        <pt x="457" y="917" on="0"/>
        <pt x="487" y="949" on="0"/>
        <pt x="510" y="949" on="1"/>
        <pt x="532" y="949" on="0"/>
        <pt x="564" y="917" on="0"/>
        <pt x="564" y="895" on="1"/>
        <pt x="564" y="872" on="0"/>
        <pt x="532" y="842" on="0"/>
        <pt x="510" y="842" on="1"/>
        <pt x="487" y="842" on="0"/>
        <pt x="457" y="872" on="0"/>
      </contour>
      <contour>
        <pt x="298" y="895" on="1"/>
        <pt x="298" y="917" on="0"/>
        <pt x="328" y="949" on="0"/>
        <pt x="351" y="949" on="1"/>
        <pt x="373" y="949" on="0"/>
        <pt x="405" y="917" on="0"/>
        <pt x="405" y="895" on="1"/>
        <pt x="405" y="872" on="0"/>
        <pt x="373" y="842" on="0"/>
        <pt x="351" y="842" on="1"/>
        <pt x="328" y="842" on="0"/>
        <pt x="298" y="872" on="0"/>
      </contour>
    </TTGlyph>
    <TTGlyph name="Agrave" xMin="-43" yMin="-114" xMax="557" yMax="1000">
      <contour>
        <pt x="447" y="0" on="1"/>
        <pt x="447" y="360" on="1"/>
        <pt x="409" y="378" on="0"/>
        <pt x="312" y="403" on="0"/>
        <pt x="262" y="409" on="1"/>
        <pt x="250" y="365" on="0"/>
        <pt x="230" y="272" on="0"/>
        <pt x="216" y="181" on="0"/>
        <pt x="208" y="94" on="0"/>
        <pt x="208" y="55" on="1"/>
        <pt x="208" y="11" on="0"/>
        <pt x="221" y="-73" on="0"/>
        <pt x="243" y="-114" on="1"/>
        <pt x="220" y="-114" on="0"/>
        <pt x="170" y="-104" on="0"/>
        <pt x="128" y="-69" on="0"/>
        <pt x="101" y="-4" on="0"/>
        <pt x="101" y="51" on="1"/>
        <pt x="101" y="86" on="0"/>
        <pt x="111" y="172" on="0"/>
        <pt x="131" y="266" on="0"/>
        <pt x="160" y="365" on="0"/>
        <pt x="178" y="413" on="1"/>
        <pt x="149" y="412" on="0"/>
        <pt x="98" y="404" on="0"/>
        <pt x="61" y="389" on="0"/>
        <pt x="39" y="369" on="0"/>
        <pt x="39" y="357" on="1"/>
        <pt x="39" y="353" on="0"/>
        <pt x="40" y="351" on="1"/>
        <pt x="66" y="343" on="0"/>
        <pt x="66" y="318" on="1"/>
        <pt x="66" y="300" on="0"/>
        <pt x="40" y="286" on="0"/>
        <pt x="25" y="286" on="1"/>
        <pt x="0" y="286" on="0"/>
        <pt x="-43" y="315" on="0"/>
        <pt x="-43" y="351" on="1"/>
        <pt x="-43" y="375" on="0"/>
        <pt x="-14" y="413" on="0"/>
        <pt x="37" y="440" on="0"/>
        <pt x="106" y="454" on="0"/>
        <pt x="147" y="454" on="1"/>
        <pt x="158" y="454" on="0"/>
        <pt x="182" y="453" on="0"/>
        <pt x="194" y="452" on="1"/>
        <pt x="219" y="512" on="0"/>
        <pt x="281" y="621" on="0"/>
        <pt x="353" y="702" on="0"/>
        <pt x="433" y="750" on="0"/>
        <pt x="477" y="750" on="1"/>
        <pt x="492" y="750" on="0"/>
        <pt x="537" y="744" on="0"/>
        <pt x="557" y="736" on="1"/>
        <pt x="557" y="0" on="1"/>
      </contour>
      <contour>
        <pt x="272" y="442" on="1"/>
        <pt x="322" y="433" on="0"/>
        <pt x="414" y="406" on="0"/>
        <pt x="447" y="390" on="1"/>
        <pt x="447" y="702" on="1"/>
        <pt x="422" y="700" on="0"/>
        <pt x="374" y="659" on="0"/>
        <pt x="329" y="589" on="0"/>
        <pt x="289" y="496" on="0"/>
      </contour>
      <contour>
        <pt x="459" y="811" on="1"/>
        <pt x="404" y="811" on="1"/>
        <pt x="303" y="1000" on="1"/>
        <pt x="388" y="1000" on="1"/>
      </contour>
    </TTGlyph>
    <TTGlyph name="Aogonek" xMin="-43" yMin="-193" xMax="593" yMax="750">
      <contour>
        <pt x="503" y="0" on="1"/>
        <pt x="484" y="-12" on="0"/>
        <pt x="465" y="-53" on="0"/>
        <pt x="465" y="-76" on="1"/>
        <pt x="465" y="-102" on="0"/>
        <pt x="495" y="-144" on="0"/>
        <pt x="527" y="-144" on="1"/>
        <pt x="547" y="-144" on="0"/>
        <pt x="576" y="-117" on="0"/>
        <pt x="589" y="-100" on="1"/>
        <pt x="593" y="-131" on="1"/>
        <pt x="585" y="-140" on="0"/>
        <pt x="568" y="-161" on="0"/>
        <pt x="546" y="-180" on="0"/>
        <pt x="516" y="-193" on="0"/>
        <pt x="497" y="-193" on="1"/>
        <pt x="474" y="-193" on="0"/>
        <pt x="438" y="-175" on="0"/>
        <pt x="413" y="-148" on="0"/>
        <pt x="400" y="-116" on="0"/>
        <pt x="400" y="-101" on="1"/>
        <pt x="400" y="-77" on="0"/>
        <pt x="424" y="-24" on="0"/>
        <pt x="447" y="0" on="1"/>
        <pt x="447" y="360" on="1"/>
        <pt x="409" y="378" on="0"/>
        <pt x="312" y="403" on="0"/>
        <pt x="262" y="409" on="1"/>
        <pt x="250" y="365" on="0"/>
        <pt x="230" y="272" on="0"/>
        <pt x="216" y="181" on="0"/>
        <pt x="208" y="94" on="0"/>
        <pt x="208" y="55" on="1"/>
        <pt x="208" y="11" on="0"/>
        <pt x="221" y="-73" on="0"/>
        <pt x="243" y="-114" on="1"/>
        <pt x="220" y="-114" on="0"/>
        <pt x="170" y="-104" on="0"/>
        <pt x="128" y="-69" on="0"/>
        <pt x="101" y="-4" on="0"/>
        <pt x="101" y="51" on="1"/>
        <pt x="101" y="86" on="0"/>
        <pt x="111" y="172" on="0"/>
        <pt x="131" y="266" on="0"/>
        <pt x="160" y="365" on="0"/>
        <pt x="178" y="413" on="1"/>
        <pt x="149" y="412" on="0"/>
        <pt x="98" y="404" on="0"/>
        <pt x="61" y="389" on="0"/>
        <pt x="39" y="369" on="0"/>
        <pt x="39" y="357" on="1"/>
        <pt x="39" y="353" on="0"/>
        <pt x="40" y="351" on="1"/>
        <pt x="66" y="343" on="0"/>
        <pt x="66" y="318" on="1"/>
        <pt x="66" y="300" on="0"/>
        <pt x="40" y="286" on="0"/>
        <pt x="25" y="286" on="1"/>
        <pt x="0" y="286" on="0"/>
        <pt x="-43" y="315" on="0"/>
        <pt x="-43" y="351" on="1"/>
        <pt x="-43" y="375" on="0"/>
        <pt x="-14" y="413" on="0"/>
        <pt x="37" y="440" on="0"/>
        <pt x="106" y="454" on="0"/>
        <pt x="147" y="454" on="1"/>
        <pt x="158" y="454" on="0"/>
        <pt x="182" y="453" on="0"/>
        <pt x="194" y="452" on="1"/>
        <pt x="219" y="512" on="0"/>
        <pt x="281" y="621" on="0"/>
        <pt x="353" y="702" on="0"/>
        <pt x="433" y="750" on="0"/>
        <pt x="477" y="750" on="1"/>
        <pt x="492" y="750" on="0"/>
        <pt x="537" y="744" on="0"/>
        <pt x="557" y="736" on="1"/>
        <pt x="557" y="0" on="1"/>
      </contour>
      <contour>
        <pt x="272" y="442" on="1"/>
        <pt x="322" y="433" on="0"/>
        <pt x="414" y="406" on="0"/>
        <pt x="447" y="390" on="1"/>
        <pt x="447" y="702" on="1"/>
        <pt x="422" y="700" on="0"/>
        <pt x="374" y="659" on="0"/>
        <pt x="329" y="589" on="0"/>
        <pt x="289" y="496" on="0"/>
      </contour>
    </TTGlyph>
    <TTGlyph name="Aring" xMin="-43" yMin="-114" xMax="557" yMax="963">
      <contour>
        <pt x="447" y="0" on="1"/>
        <pt x="447" y="360" on="1"/>
        <pt x="409" y="378" on="0"/>
        <pt x="312" y="403" on="0"/>
        <pt x="262" y="409" on="1"/>
        <pt x="250" y="365" on="0"/>
        <pt x="230" y="272" on="0"/>
        <pt x="216" y="181" on="0"/>
        <pt x="208" y="94" on="0"/>
        <pt x="208" y="55" on="1"/>
        <pt x="208" y="11" on="0"/>
        <pt x="221" y="-73" on="0"/>
        <pt x="243" y="-114" on="1"/>
        <pt x="220" y="-114" on="0"/>
        <pt x="170" y="-104" on="0"/>
        <pt x="128" y="-69" on="0"/>
        <pt x="101" y="-4" on="0"/>
        <pt x="101" y="51" on="1"/>
        <pt x="101" y="86" on="0"/>
        <pt x="111" y="172" on="0"/>
        <pt x="131" y="266" on="0"/>
        <pt x="160" y="365" on="0"/>
        <pt x="178" y="413" on="1"/>
        <pt x="149" y="412" on="0"/>
        <pt x="98" y="404" on="0"/>
        <pt x="61" y="389" on="0"/>
        <pt x="39" y="369" on="0"/>
        <pt x="39" y="357" on="1"/>
        <pt x="39" y="353" on="0"/>
        <pt x="40" y="351" on="1"/>
        <pt x="66" y="343" on="0"/>
        <pt x="66" y="318" on="1"/>
        <pt x="66" y="300" on="0"/>
        <pt x="40" y="286" on="0"/>
        <pt x="25" y="286" on="1"/>
        <pt x="0" y="286" on="0"/>
        <pt x="-43" y="315" on="0"/>
        <pt x="-43" y="351" on="1"/>
        <pt x="-43" y="375" on="0"/>
        <pt x="-14" y="413" on="0"/>
        <pt x="37" y="440" on="0"/>
        <pt x="106" y="454" on="0"/>
        <pt x="147" y="454" on="1"/>
        <pt x="158" y="454" on="0"/>
        <pt x="182" y="453" on="0"/>
        <pt x="194" y="452" on="1"/>
        <pt x="219" y="512" on="0"/>
        <pt x="281" y="621" on="0"/>
        <pt x="353" y="702" on="0"/>
        <pt x="433" y="750" on="0"/>
        <pt x="477" y="750" on="1"/>
        <pt x="492" y="750" on="0"/>
        <pt x="537" y="744" on="0"/>
        <pt x="557" y="736" on="1"/>
        <pt x="557" y="0" on="1"/>
      </contour>
      <contour>
        <pt x="272" y="442" on="1"/>
        <pt x="322" y="433" on="0"/>
        <pt x="414" y="406" on="0"/>
        <pt x="447" y="390" on="1"/>
        <pt x="447" y="702" on="1"/>
        <pt x="422" y="700" on="0"/>
        <pt x="374" y="659" on="0"/>
        <pt x="329" y="589" on="0"/>
        <pt x="289" y="496" on="0"/>
      </contour>
      <contour>
        <pt x="421" y="805" on="1"/>
        <pt x="380" y="805" on="0"/>
        <pt x="338" y="856" on="0"/>
        <pt x="338" y="886" on="1"/>
        <pt x="338" y="916" on="0"/>
        <pt x="378" y="963" on="0"/>
        <pt x="416" y="963" on="1"/>
        <pt x="436" y="963" on="0"/>
        <pt x="465" y="949" on="0"/>
        <pt x="485" y="925" on="0"/>
        <pt x="494" y="895" on="0"/>
        <pt x="494" y="880" on="1"/>
        <pt x="494" y="850" on="0"/>
        <pt x="459" y="805" on="0"/>
      </contour>
      <contour>
        <pt x="420" y="839" on="1"/>
        <pt x="439" y="839" on="0"/>
        <pt x="458" y="865" on="0"/>
        <pt x="458" y="882" on="1"/>
        <pt x="458" y="899" on="0"/>
        <pt x="439" y="930" on="0"/>
        <pt x="419" y="930" on="1"/>
        <pt x="399" y="930" on="0"/>
        <pt x="378" y="902" on="0"/>
        <pt x="378" y="885" on="1"/>
        <pt x="378" y="869" on="0"/>
        <pt x="399" y="839" on="0"/>
      </contour>
    </TTGlyph>
    <TTGlyph name="Atilde" xMin="-43" yMin="-114" xMax="602" yMax="924">
      <contour>
        <pt x="447" y="0" on="1"/>
        <pt x="447" y="360" on="1"/>
        <pt x="409" y="378" on="0"/>
        <pt x="312" y="403" on="0"/>
        <pt x="262" y="409" on="1"/>
        <pt x="250" y="365" on="0"/>
        <pt x="230" y="272" on="0"/>
        <pt x="216" y="181" on="0"/>
        <pt x="208" y="94" on="0"/>
        <pt x="208" y="55" on="1"/>
        <pt x="208" y="11" on="0"/>
        <pt x="221" y="-73" on="0"/>
        <pt x="243" y="-114" on="1"/>
        <pt x="220" y="-114" on="0"/>
        <pt x="170" y="-104" on="0"/>
        <pt x="128" y="-69" on="0"/>
        <pt x="101" y="-4" on="0"/>
        <pt x="101" y="51" on="1"/>
        <pt x="101" y="86" on="0"/>
        <pt x="111" y="172" on="0"/>
        <pt x="131" y="266" on="0"/>
        <pt x="160" y="365" on="0"/>
        <pt x="178" y="413" on="1"/>
        <pt x="149" y="412" on="0"/>
        <pt x="98" y="404" on="0"/>
        <pt x="61" y="389" on="0"/>
        <pt x="39" y="369" on="0"/>
        <pt x="39" y="357" on="1"/>
        <pt x="39" y="353" on="0"/>
        <pt x="40" y="351" on="1"/>
        <pt x="66" y="343" on="0"/>
        <pt x="66" y="318" on="1"/>
        <pt x="66" y="300" on="0"/>
        <pt x="40" y="286" on="0"/>
        <pt x="25" y="286" on="1"/>
        <pt x="0" y="286" on="0"/>
        <pt x="-43" y="315" on="0"/>
        <pt x="-43" y="351" on="1"/>
        <pt x="-43" y="375" on="0"/>
        <pt x="-14" y="413" on="0"/>
        <pt x="37" y="440" on="0"/>
        <pt x="106" y="454" on="0"/>
        <pt x="147" y="454" on="1"/>
        <pt x="158" y="454" on="0"/>
        <pt x="182" y="453" on="0"/>
        <pt x="194" y="452" on="1"/>
        <pt x="219" y="512" on="0"/>
        <pt x="281" y="621" on="0"/>
        <pt x="353" y="702" on="0"/>
        <pt x="433" y="750" on="0"/>
        <pt x="477" y="750" on="1"/>
        <pt x="492" y="750" on="0"/>
        <pt x="537" y="744" on="0"/>
        <pt x="557" y="736" on="1"/>
        <pt x="557" y="0" on="1"/>
      </contour>
      <contour>
        <pt x="272" y="442" on="1"/>
        <pt x="322" y="433" on="0"/>
        <pt x="414" y="406" on="0"/>
        <pt x="447" y="390" on="1"/>
        <pt x="447" y="702" on="1"/>
        <pt x="422" y="700" on="0"/>
        <pt x="374" y="659" on="0"/>
        <pt x="329" y="589" on="0"/>
        <pt x="289" y="496" on="0"/>
      </contour>
      <contour>
        <pt x="602" y="915" on="1"/>
        <pt x="602" y="899" on="0"/>
        <pt x="581" y="867" on="0"/>
        <pt x="547" y="841" on="0"/>
        <pt x="501" y="825" on="0"/>
        <pt x="476" y="825" on="1"/>
        <pt x="454" y="825" on="0"/>
        <pt x="413" y="835" on="0"/>
        <pt x="374" y="848" on="0"/>
        <pt x="336" y="858" on="0"/>
        <pt x="318" y="858" on="1"/>
        <pt x="284" y="858" on="0"/>
        <pt x="263" y="834" on="1"/>
        <pt x="258" y="836" on="1"/>
        <pt x="271" y="880" on="0"/>
        <pt x="338" y="924" on="0"/>
        <pt x="389" y="924" on="1"/>
        <pt x="414" y="924" on="0"/>
        <pt x="454" y="915" on="0"/>
        <pt x="490" y="904" on="0"/>
        <pt x="524" y="895" on="0"/>
        <pt x="544" y="895" on="1"/>
        <pt x="561" y="895" on="0"/>
        <pt x="589" y="905" on="0"/>
        <pt x="597" y="915" on="1"/>
      </contour>
    </TTGlyph>
    <TTGlyph name="B" xMin="17" yMin="-17" xMax="661" yMax="750">
      <contour>
        <pt x="102" y="508" on="1"/>
        <pt x="102" y="481" on="0"/>
        <pt x="111" y="441" on="0"/>
        <pt x="123" y="414" on="0"/>
        <pt x="134" y="398" on="0"/>
        <pt x="137" y="393" on="1"/>
        <pt x="81" y="393" on="0"/>
        <pt x="17" y="450" on="0"/>
        <pt x="17" y="509" on="1"/>
        <pt x="17" y="559" on="0"/>
        <pt x="68" y="647" on="0"/>
        <pt x="155" y="712" on="0"/>
        <pt x="272" y="750" on="0"/>
        <pt x="338" y="750" on="1"/>
        <pt x="397" y="750" on="0"/>
        <pt x="484" y="721" on="0"/>
        <pt x="541" y="671" on="0"/>
        <pt x="569" y="607" on="0"/>
        <pt x="569" y="573" on="1"/>
        <pt x="569" y="535" on="0"/>
        <pt x="529" y="460" on="0"/>
        <pt x="491" y="434" on="1"/>
        <pt x="568" y="426" on="0"/>
        <pt x="661" y="320" on="0"/>
        <pt x="661" y="225" on="1"/>
        <pt x="661" y="193" on="0"/>
        <pt x="647" y="110" on="0"/>
        <pt x="610" y="35" on="0"/>
        <pt x="544" y="-17" on="0"/>
        <pt x="493" y="-17" on="1"/>
        <pt x="471" y="-17" on="0"/>
        <pt x="431" y="-6" on="0"/>
        <pt x="400" y="15" on="0"/>
        <pt x="382" y="48" on="0"/>
        <pt x="382" y="69" on="1"/>
        <pt x="382" y="75" on="0"/>
        <pt x="384" y="96" on="0"/>
        <pt x="386" y="103" on="1"/>
        <pt x="400" y="81" on="0"/>
        <pt x="442" y="64" on="0"/>
        <pt x="460" y="64" on="1"/>
        <pt x="485" y="64" on="0"/>
        <pt x="518" y="92" on="0"/>
        <pt x="536" y="136" on="0"/>
        <pt x="543" y="189" on="0"/>
        <pt x="543" y="215" on="1"/>
        <pt x="543" y="310" on="0"/>
        <pt x="470" y="394" on="0"/>
        <pt x="405" y="394" on="1"/>
        <pt x="393" y="394" on="0"/>
        <pt x="357" y="392" on="0"/>
        <pt x="340" y="390" on="1"/>
        <pt x="340" y="0" on="1"/>
        <pt x="232" y="0" on="1"/>
        <pt x="232" y="641" on="1"/>
        <pt x="340" y="656" on="1"/>
        <pt x="340" y="430" on="1"/>
        <pt x="354" y="430" on="1"/>
        <pt x="382" y="430" on="0"/>
        <pt x="431" y="457" on="0"/>
        <pt x="467" y="501" on="0"/>
        <pt x="487" y="554" on="0"/>
        <pt x="487" y="580" on="1"/>
        <pt x="487" y="639" on="0"/>
        <pt x="407" y="714" on="0"/>
        <pt x="328" y="714" on="1"/>
        <pt x="285" y="714" on="0"/>
        <pt x="203" y="689" on="0"/>
        <pt x="140" y="638" on="0"/>
        <pt x="102" y="560" on="0"/>
      </contour>
    </TTGlyph>
    <TTGlyph name="B.salt" xMin="17" yMin="-27" xMax="664" yMax="750">
      <contour>
        <pt x="102" y="508" on="1"/>
        <pt x="102" y="481" on="0"/>
        <pt x="111" y="441" on="0"/>
        <pt x="123" y="414" on="0"/>
        <pt x="134" y="398" on="0"/>
        <pt x="137" y="393" on="1"/>
        <pt x="81" y="393" on="0"/>
        <pt x="17" y="450" on="0"/>
        <pt x="17" y="509" on="1"/>
        <pt x="17" y="559" on="0"/>
        <pt x="68" y="647" on="0"/>
        <pt x="155" y="712" on="0"/>
        <pt x="272" y="750" on="0"/>
        <pt x="338" y="750" on="1"/>
        <pt x="397" y="750" on="0"/>
        <pt x="484" y="721" on="0"/>
        <pt x="541" y="671" on="0"/>
        <pt x="569" y="607" on="0"/>
        <pt x="569" y="573" on="1"/>
        <pt x="569" y="535" on="0"/>
        <pt x="528" y="459" on="0"/>
        <pt x="490" y="433" on="1"/>
        <pt x="529" y="428" on="0"/>
        <pt x="594" y="395" on="0"/>
        <pt x="639" y="341" on="0"/>
        <pt x="664" y="269" on="0"/>
        <pt x="664" y="226" on="1"/>
        <pt x="664" y="190" on="0"/>
        <pt x="647" y="102" on="0"/>
        <pt x="608" y="25" on="0"/>
        <pt x="543" y="-27" on="0"/>
        <pt x="494" y="-27" on="1"/>
        <pt x="446" y="-27" on="0"/>
        <pt x="366" y="11" on="0"/>
        <pt x="340" y="39" on="1"/>
        <pt x="340" y="0" on="1"/>
        <pt x="232" y="0" on="1"/>
        <pt x="232" y="641" on="1"/>
        <pt x="340" y="656" on="1"/>
        <pt x="340" y="430" on="1"/>
        <pt x="354" y="430" on="1"/>
        <pt x="382" y="430" on="0"/>
        <pt x="431" y="457" on="0"/>
        <pt x="467" y="501" on="0"/>
        <pt x="487" y="554" on="0"/>
        <pt x="487" y="580" on="1"/>
        <pt x="487" y="639" on="0"/>
        <pt x="407" y="714" on="0"/>
        <pt x="328" y="714" on="1"/>
        <pt x="285" y="714" on="0"/>
        <pt x="203" y="689" on="0"/>
        <pt x="140" y="638" on="0"/>
        <pt x="102" y="560" on="0"/>
      </contour>
      <contour>
        <pt x="399" y="394" on="1"/>
        <pt x="386" y="394" on="0"/>
        <pt x="354" y="392" on="0"/>
        <pt x="340" y="390" on="1"/>
        <pt x="340" y="95" on="1"/>
        <pt x="360" y="79" on="0"/>
        <pt x="415" y="49" on="0"/>
        <pt x="448" y="49" on="1"/>
        <pt x="475" y="49" on="0"/>
        <pt x="513" y="77" on="0"/>
        <pt x="536" y="122" on="0"/>
        <pt x="546" y="178" on="0"/>
        <pt x="546" y="205" on="1"/>
        <pt x="546" y="303" on="0"/>
        <pt x="467" y="394" on="0"/>
      </contour>
    </TTGlyph>
    <TTGlyph name="C" xMin="47" yMin="-16" xMax="580" yMax="750">
      <contour>
        <pt x="580" y="170" on="1"/>
        <pt x="554" y="79" on="0"/>
        <pt x="414" y="-16" on="0"/>
        <pt x="319" y="-16" on="1"/>
        <pt x="190" y="-16" on="0"/>
        <pt x="47" y="166" on="0"/>
        <pt x="47" y="350" on="1"/>
        <pt x="47" y="419" on="0"/>
        <pt x="71" y="561" on="0"/>
        <pt x="131" y="676" on="0"/>
        <pt x="232" y="750" on="0"/>
        <pt x="309" y="750" on="1"/>
        <pt x="347" y="750" on="0"/>
        <pt x="415" y="730" on="0"/>
        <pt x="466" y="691" on="0"/>
        <pt x="496" y="633" on="0"/>
        <pt x="496" y="594" on="1"/>
        <pt x="496" y="562" on="0"/>
        <pt x="472" y="524" on="0"/>
        <pt x="443" y="524" on="1"/>
        <pt x="429" y="524" on="0"/>
        <pt x="404" y="533" on="0"/>
        <pt x="396" y="542" on="1"/>
        <pt x="405" y="549" on="0"/>
        <pt x="420" y="593" on="0"/>
        <pt x="420" y="621" on="1"/>
        <pt x="420" y="669" on="0"/>
        <pt x="374" y="714" on="0"/>
        <pt x="336" y="714" on="1"/>
        <pt x="291" y="714" on="0"/>
        <pt x="226" y="655" on="0"/>
        <pt x="184" y="557" on="0"/>
        <pt x="165" y="433" on="0"/>
        <pt x="165" y="367" on="1"/>
        <pt x="165" y="285" on="0"/>
        <pt x="193" y="169" on="0"/>
        <pt x="247" y="95" on="0"/>
        <pt x="326" y="60" on="0"/>
        <pt x="377" y="60" on="1"/>
        <pt x="442" y="60" on="0"/>
        <pt x="528" y="117" on="0"/>
        <pt x="555" y="180" on="1"/>
      </contour>
    </TTGlyph>
    <TTGlyph name="Cacute" xMin="47" yMin="-16" xMax="580" yMax="1000">
      <contour>
        <pt x="580" y="170" on="1"/>
        <pt x="554" y="79" on="0"/>
        <pt x="414" y="-16" on="0"/>
        <pt x="319" y="-16" on="1"/>
        <pt x="190" y="-16" on="0"/>
        <pt x="47" y="166" on="0"/>
        <pt x="47" y="350" on="1"/>
        <pt x="47" y="419" on="0"/>
        <pt x="71" y="561" on="0"/>
        <pt x="131" y="676" on="0"/>
        <pt x="232" y="750" on="0"/>
        <pt x="309" y="750" on="1"/>
        <pt x="347" y="750" on="0"/>
        <pt x="415" y="730" on="0"/>
        <pt x="466" y="691" on="0"/>
        <pt x="496" y="633" on="0"/>
        <pt x="496" y="594" on="1"/>
        <pt x="496" y="562" on="0"/>
        <pt x="472" y="524" on="0"/>
        <pt x="443" y="524" on="1"/>
        <pt x="429" y="524" on="0"/>
        <pt x="404" y="533" on="0"/>
        <pt x="396" y="542" on="1"/>
        <pt x="405" y="549" on="0"/>
        <pt x="420" y="593" on="0"/>
        <pt x="420" y="621" on="1"/>
        <pt x="420" y="669" on="0"/>
        <pt x="374" y="714" on="0"/>
        <pt x="336" y="714" on="1"/>
        <pt x="291" y="714" on="0"/>
        <pt x="226" y="655" on="0"/>
        <pt x="184" y="557" on="0"/>
        <pt x="165" y="433" on="0"/>
        <pt x="165" y="367" on="1"/>
        <pt x="165" y="285" on="0"/>
        <pt x="193" y="169" on="0"/>
        <pt x="247" y="95" on="0"/>
        <pt x="326" y="60" on="0"/>
        <pt x="377" y="60" on="1"/>
        <pt x="442" y="60" on="0"/>
        <pt x="528" y="117" on="0"/>
        <pt x="555" y="180" on="1"/>
      </contour>
      <contour>
        <pt x="355" y="1000" on="1"/>
        <pt x="440" y="1000" on="1"/>
        <pt x="359" y="811" on="1"/>
        <pt x="304" y="811" on="1"/>
      </contour>
    </TTGlyph>
    <TTGlyph name="Ccaron" xMin="47" yMin="-16" xMax="580" yMax="992">
      <contour>
        <pt x="580" y="170" on="1"/>
        <pt x="554" y="79" on="0"/>
        <pt x="414" y="-16" on="0"/>
        <pt x="319" y="-16" on="1"/>
        <pt x="190" y="-16" on="0"/>
        <pt x="47" y="166" on="0"/>
        <pt x="47" y="350" on="1"/>
        <pt x="47" y="419" on="0"/>
        <pt x="71" y="561" on="0"/>
        <pt x="131" y="676" on="0"/>
        <pt x="232" y="750" on="0"/>
        <pt x="309" y="750" on="1"/>
        <pt x="347" y="750" on="0"/>
        <pt x="415" y="730" on="0"/>
        <pt x="466" y="691" on="0"/>
        <pt x="496" y="633" on="0"/>
        <pt x="496" y="594" on="1"/>
        <pt x="496" y="562" on="0"/>
        <pt x="472" y="524" on="0"/>
        <pt x="443" y="524" on="1"/>
        <pt x="429" y="524" on="0"/>
        <pt x="404" y="533" on="0"/>
        <pt x="396" y="542" on="1"/>
        <pt x="405" y="549" on="0"/>
        <pt x="420" y="593" on="0"/>
        <pt x="420" y="621" on="1"/>
        <pt x="420" y="669" on="0"/>
        <pt x="374" y="714" on="0"/>
        <pt x="336" y="714" on="1"/>
        <pt x="291" y="714" on="0"/>
        <pt x="226" y="655" on="0"/>
        <pt x="184" y="557" on="0"/>
        <pt x="165" y="433" on="0"/>
        <pt x="165" y="367" on="1"/>
        <pt x="165" y="285" on="0"/>
        <pt x="193" y="169" on="0"/>
        <pt x="247" y="95" on="0"/>
        <pt x="326" y="60" on="0"/>
        <pt x="377" y="60" on="1"/>
        <pt x="442" y="60" on="0"/>
        <pt x="528" y="117" on="0"/>
        <pt x="555" y="180" on="1"/>
      </contour>
      <contour>
        <pt x="239" y="992" on="1"/>
        <pt x="325" y="891" on="1"/>
        <pt x="466" y="992" on="1"/>
        <pt x="500" y="992" on="1"/>
        <pt x="334" y="825" on="1"/>
        <pt x="313" y="825" on="1"/>
        <pt x="217" y="992" on="1"/>
      </contour>
    </TTGlyph>
    <TTGlyph name="Ccedilla" xMin="48" yMin="-218" xMax="581" yMax="750">
      <contour>
        <pt x="461" y="-128" on="1"/>
        <pt x="461" y="-150" on="0"/>
        <pt x="444" y="-183" on="0"/>
        <pt x="417" y="-206" on="0"/>
        <pt x="381" y="-218" on="0"/>
        <pt x="362" y="-218" on="1"/>
        <pt x="324" y="-218" on="0"/>
        <pt x="273" y="-201" on="0"/>
        <pt x="249" y="-190" on="1"/>
        <pt x="254" y="-178" on="0"/>
        <pt x="268" y="-158" on="0"/>
        <pt x="282" y="-158" on="1"/>
        <pt x="292" y="-158" on="0"/>
        <pt x="312" y="-167" on="0"/>
        <pt x="332" y="-179" on="0"/>
        <pt x="352" y="-188" on="0"/>
        <pt x="363" y="-188" on="1"/>
        <pt x="382" y="-188" on="0"/>
        <pt x="404" y="-163" on="0"/>
        <pt x="404" y="-149" on="1"/>
        <pt x="404" y="-132" on="0"/>
        <pt x="375" y="-97" on="0"/>
        <pt x="344" y="-97" on="1"/>
        <pt x="321" y="-97" on="0"/>
        <pt x="295" y="-112" on="0"/>
        <pt x="287" y="-119" on="1"/>
        <pt x="301" y="-15" on="1"/>
        <pt x="181" y="-9" on="0"/>
        <pt x="48" y="173" on="0"/>
        <pt x="48" y="350" on="1"/>
        <pt x="48" y="419" on="0"/>
        <pt x="72" y="561" on="0"/>
        <pt x="132" y="676" on="0"/>
        <pt x="233" y="750" on="0"/>
        <pt x="310" y="750" on="1"/>
        <pt x="348" y="750" on="0"/>
        <pt x="416" y="730" on="0"/>
        <pt x="467" y="691" on="0"/>
        <pt x="497" y="633" on="0"/>
        <pt x="497" y="594" on="1"/>
        <pt x="497" y="562" on="0"/>
        <pt x="473" y="524" on="0"/>
        <pt x="444" y="524" on="1"/>
        <pt x="430" y="524" on="0"/>
        <pt x="405" y="533" on="0"/>
        <pt x="397" y="542" on="1"/>
        <pt x="406" y="549" on="0"/>
        <pt x="421" y="593" on="0"/>
        <pt x="421" y="621" on="1"/>
        <pt x="421" y="669" on="0"/>
        <pt x="375" y="714" on="0"/>
        <pt x="337" y="714" on="1"/>
        <pt x="292" y="714" on="0"/>
        <pt x="227" y="655" on="0"/>
        <pt x="185" y="557" on="0"/>
        <pt x="166" y="433" on="0"/>
        <pt x="166" y="367" on="1"/>
        <pt x="166" y="285" on="0"/>
        <pt x="194" y="169" on="0"/>
        <pt x="248" y="95" on="0"/>
        <pt x="327" y="60" on="0"/>
        <pt x="378" y="60" on="1"/>
        <pt x="443" y="60" on="0"/>
        <pt x="529" y="117" on="0"/>
        <pt x="556" y="180" on="1"/>
        <pt x="581" y="170" on="1"/>
        <pt x="557" y="85" on="0"/>
        <pt x="430" y="-9" on="0"/>
        <pt x="344" y="-15" on="1"/>
        <pt x="335" y="-66" on="1"/>
        <pt x="365" y="-58" on="0"/>
        <pt x="386" y="-58" on="1"/>
        <pt x="461" y="-58" on="0"/>
      </contour>
    </TTGlyph>
    <TTGlyph name="Ccircumflex" xMin="47" yMin="-16" xMax="580" yMax="978">
      <contour>
        <pt x="580" y="170" on="1"/>
        <pt x="554" y="79" on="0"/>
        <pt x="414" y="-16" on="0"/>
        <pt x="319" y="-16" on="1"/>
        <pt x="190" y="-16" on="0"/>
        <pt x="47" y="166" on="0"/>
        <pt x="47" y="350" on="1"/>
        <pt x="47" y="419" on="0"/>
        <pt x="71" y="561" on="0"/>
        <pt x="131" y="676" on="0"/>
        <pt x="232" y="750" on="0"/>
        <pt x="309" y="750" on="1"/>
        <pt x="347" y="750" on="0"/>
        <pt x="415" y="730" on="0"/>
        <pt x="466" y="691" on="0"/>
        <pt x="496" y="633" on="0"/>
        <pt x="496" y="594" on="1"/>
        <pt x="496" y="562" on="0"/>
        <pt x="472" y="524" on="0"/>
        <pt x="443" y="524" on="1"/>
        <pt x="429" y="524" on="0"/>
        <pt x="404" y="533" on="0"/>
        <pt x="396" y="542" on="1"/>
        <pt x="405" y="549" on="0"/>
        <pt x="420" y="593" on="0"/>
        <pt x="420" y="621" on="1"/>
        <pt x="420" y="669" on="0"/>
        <pt x="374" y="714" on="0"/>
        <pt x="336" y="714" on="1"/>
        <pt x="291" y="714" on="0"/>
        <pt x="226" y="655" on="0"/>
        <pt x="184" y="557" on="0"/>
        <pt x="165" y="433" on="0"/>
        <pt x="165" y="367" on="1"/>
        <pt x="165" y="285" on="0"/>
        <pt x="193" y="169" on="0"/>
        <pt x="247" y="95" on="0"/>
        <pt x="326" y="60" on="0"/>
        <pt x="377" y="60" on="1"/>
        <pt x="442" y="60" on="0"/>
        <pt x="528" y="117" on="0"/>
        <pt x="555" y="180" on="1"/>
      </contour>
      <contour>
        <pt x="429" y="811" on="1"/>
        <pt x="343" y="912" on="1"/>
        <pt x="202" y="811" on="1"/>
        <pt x="168" y="811" on="1"/>
        <pt x="334" y="978" on="1"/>
        <pt x="355" y="978" on="1"/>
        <pt x="451" y="811" on="1"/>
      </contour>
    </TTGlyph>
    <TTGlyph name="D" xMin="18" yMin="-13" xMax="680" yMax="750">
      <contour>
        <pt x="350" y="656" on="1"/>
        <pt x="350" y="78" on="1"/>
        <pt x="369" y="64" on="0"/>
        <pt x="404" y="52" on="0"/>
        <pt x="420" y="52" on="1"/>
        <pt x="459" y="52" on="0"/>
        <pt x="512" y="109" on="0"/>
        <pt x="546" y="200" on="0"/>
        <pt x="561" y="312" on="0"/>
        <pt x="561" y="366" on="1"/>
        <pt x="561" y="459" on="0"/>
        <pt x="535" y="591" on="0"/>
        <pt x="477" y="675" on="0"/>
        <pt x="385" y="714" on="0"/>
        <pt x="320" y="714" on="1"/>
        <pt x="275" y="714" on="0"/>
        <pt x="193" y="686" on="0"/>
        <pt x="131" y="633" on="0"/>
        <pt x="94" y="556" on="0"/>
        <pt x="94" y="507" on="1"/>
        <pt x="94" y="478" on="0"/>
        <pt x="107" y="438" on="0"/>
        <pt x="124" y="412" on="0"/>
        <pt x="143" y="397" on="0"/>
        <pt x="149" y="393" on="1"/>
        <pt x="88" y="393" on="0"/>
        <pt x="18" y="449" on="0"/>
        <pt x="18" y="515" on="1"/>
        <pt x="18" y="561" on="0"/>
        <pt x="66" y="647" on="0"/>
        <pt x="151" y="711" on="0"/>
        <pt x="266" y="750" on="0"/>
        <pt x="334" y="750" on="1"/>
        <pt x="430" y="750" on="0"/>
        <pt x="562" y="685" on="0"/>
        <pt x="644" y="578" on="0"/>
        <pt x="680" y="440" on="0"/>
        <pt x="680" y="367" on="1"/>
        <pt x="680" y="296" on="0"/>
        <pt x="651" y="160" on="0"/>
        <pt x="600" y="53" on="0"/>
        <pt x="530" y="-13" on="0"/>
        <pt x="488" y="-13" on="1"/>
        <pt x="458" y="-13" on="0"/>
        <pt x="390" y="15" on="0"/>
        <pt x="350" y="45" on="1"/>
        <pt x="350" y="0" on="1"/>
        <pt x="242" y="0" on="1"/>
        <pt x="242" y="641" on="1"/>
      </contour>
    </TTGlyph>
    <TTGlyph name="E" xMin="41" yMin="-18" xMax="521" yMax="752">
      <contour>
        <pt x="521" y="170" on="1"/>
        <pt x="507" y="125" on="0"/>
        <pt x="453" y="55" on="0"/>
        <pt x="381" y="7" on="0"/>
        <pt x="297" y="-18" on="0"/>
        <pt x="254" y="-18" on="1"/>
        <pt x="197" y="-18" on="0"/>
        <pt x="116" y="23" on="0"/>
        <pt x="65" y="87" on="0"/>
        <pt x="41" y="168" on="0"/>
        <pt x="41" y="209" on="1"/>
        <pt x="41" y="283" on="0"/>
        <pt x="112" y="391" on="0"/>
        <pt x="176" y="417" on="1"/>
        <pt x="128" y="447" on="0"/>
        <pt x="86" y="525" on="0"/>
        <pt x="86" y="568" on="1"/>
        <pt x="86" y="601" on="0"/>
        <pt x="110" y="667" on="0"/>
        <pt x="160" y="719" on="0"/>
        <pt x="233" y="752" on="0"/>
        <pt x="283" y="752" on="1"/>
        <pt x="310" y="752" on="0"/>
        <pt x="365" y="740" on="0"/>
        <pt x="409" y="711" on="0"/>
        <pt x="436" y="662" on="0"/>
        <pt x="436" y="625" on="1"/>
        <pt x="436" y="587" on="0"/>
        <pt x="406" y="543" on="0"/>
        <pt x="381" y="543" on="1"/>
        <pt x="354" y="543" on="0"/>
        <pt x="328" y="570" on="1"/>
        <pt x="342" y="576" on="0"/>
        <pt x="369" y="613" on="0"/>
        <pt x="369" y="642" on="1"/>
        <pt x="369" y="661" on="0"/>
        <pt x="355" y="688" on="0"/>
        <pt x="332" y="706" on="0"/>
        <pt x="304" y="714" on="0"/>
        <pt x="289" y="714" on="1"/>
        <pt x="262" y="714" on="0"/>
        <pt x="220" y="690" on="0"/>
        <pt x="192" y="651" on="0"/>
        <pt x="177" y="602" on="0"/>
        <pt x="177" y="577" on="1"/>
        <pt x="177" y="566" on="0"/>
        <pt x="182" y="521" on="0"/>
        <pt x="205" y="472" on="0"/>
        <pt x="250" y="427" on="0"/>
        <pt x="289" y="418" on="1"/>
        <pt x="223" y="403" on="0"/>
        <pt x="152" y="298" on="0"/>
        <pt x="152" y="226" on="1"/>
        <pt x="152" y="154" on="0"/>
        <pt x="229" y="61" on="0"/>
        <pt x="309" y="61" on="1"/>
        <pt x="345" y="61" on="0"/>
        <pt x="406" y="80" on="0"/>
        <pt x="453" y="113" on="0"/>
        <pt x="487" y="156" on="0"/>
        <pt x="496" y="180" on="1"/>
      </contour>
    </TTGlyph>
    <TTGlyph name="E.salt" xMin="21" yMin="0" xMax="578" yMax="750">
      <contour>
        <pt x="480" y="646" on="1"/>
        <pt x="448" y="646" on="0"/>
        <pt x="380" y="657" on="0"/>
        <pt x="346" y="664" on="1"/>
        <pt x="346" y="413" on="1"/>
        <pt x="506" y="413" on="1"/>
        <pt x="506" y="354" on="1"/>
        <pt x="346" y="354" on="1"/>
        <pt x="346" y="70" on="1"/>
        <pt x="578" y="70" on="1"/>
        <pt x="578" y="0" on="1"/>
        <pt x="238" y="0" on="1"/>
        <pt x="238" y="682" on="1"/>
        <pt x="233" y="683" on="0"/>
        <pt x="223" y="683" on="0"/>
        <pt x="218" y="683" on="1"/>
        <pt x="193" y="683" on="0"/>
        <pt x="148" y="669" on="0"/>
        <pt x="115" y="636" on="0"/>
        <pt x="95" y="580" on="0"/>
        <pt x="95" y="538" on="1"/>
        <pt x="95" y="481" on="0"/>
        <pt x="122" y="408" on="0"/>
        <pt x="140" y="393" on="1"/>
        <pt x="77" y="393" on="0"/>
        <pt x="21" y="460" on="0"/>
        <pt x="21" y="534" on="1"/>
        <pt x="21" y="576" on="0"/>
        <pt x="53" y="654" on="0"/>
        <pt x="121" y="714" on="0"/>
        <pt x="226" y="750" on="0"/>
        <pt x="299" y="750" on="1"/>
        <pt x="325" y="750" on="0"/>
        <pt x="369" y="746" on="0"/>
        <pt x="411" y="742" on="0"/>
        <pt x="455" y="738" on="0"/>
        <pt x="480" y="738" on="1"/>
        <pt x="505" y="738" on="0"/>
        <pt x="549" y="743" on="0"/>
        <pt x="569" y="750" on="1"/>
        <pt x="567" y="715" on="0"/>
        <pt x="552" y="674" on="0"/>
        <pt x="528" y="653" on="0"/>
        <pt x="497" y="646" on="0"/>
      </contour>
    </TTGlyph>
    <TTGlyph name="E_x" xMin="42" yMin="-18" xMax="833" yMax="752">
      <contour>
        <pt x="535" y="462" on="1"/>
        <pt x="616" y="256" on="1"/>
        <pt x="631" y="276" on="0"/>
        <pt x="663" y="322" on="0"/>
        <pt x="689" y="371" on="0"/>
        <pt x="706" y="420" on="0"/>
        <pt x="706" y="442" on="1"/>
        <pt x="706" y="447" on="0"/>
        <pt x="706" y="455" on="0"/>
        <pt x="705" y="459" on="1"/>
        <pt x="696" y="455" on="0"/>
        <pt x="684" y="455" on="1"/>
        <pt x="662" y="455" on="0"/>
        <pt x="629" y="484" on="0"/>
        <pt x="629" y="508" on="1"/>
        <pt x="629" y="530" on="0"/>
        <pt x="659" y="560" on="0"/>
        <pt x="682" y="560" on="1"/>
        <pt x="711" y="560" on="0"/>
        <pt x="751" y="509" on="0"/>
        <pt x="751" y="461" on="1"/>
        <pt x="751" y="404" on="0"/>
        <pt x="690" y="290" on="0"/>
        <pt x="633" y="214" on="1"/>
        <pt x="647" y="179" on="1"/>
        <pt x="654" y="162" on="0"/>
        <pt x="668" y="124" on="0"/>
        <pt x="686" y="91" on="0"/>
        <pt x="709" y="70" on="0"/>
        <pt x="724" y="70" on="1"/>
        <pt x="749" y="70" on="0"/>
        <pt x="788" y="131" on="0"/>
        <pt x="798" y="179" on="1"/>
        <pt x="833" y="179" on="1"/>
        <pt x="822" y="116" on="0"/>
        <pt x="789" y="43" on="0"/>
        <pt x="753" y="5" on="0"/>
        <pt x="715" y="-6" on="0"/>
        <pt x="699" y="-6" on="1"/>
        <pt x="650" y="-6" on="0"/>
        <pt x="584" y="59" on="0"/>
        <pt x="552" y="132" on="1"/>
        <pt x="530" y="96" on="0"/>
        <pt x="466" y="41" on="0"/>
        <pt x="389" y="2" on="0"/>
        <pt x="304" y="-18" on="0"/>
        <pt x="262" y="-18" on="1"/>
        <pt x="201" y="-18" on="0"/>
        <pt x="117" y="23" on="0"/>
        <pt x="65" y="87" on="0"/>
        <pt x="42" y="168" on="0"/>
        <pt x="42" y="208" on="1"/>
        <pt x="42" y="283" on="0"/>
        <pt x="113" y="391" on="0"/>
        <pt x="177" y="417" on="1"/>
        <pt x="129" y="447" on="0"/>
        <pt x="87" y="525" on="0"/>
        <pt x="87" y="568" on="1"/>
        <pt x="87" y="601" on="0"/>
        <pt x="111" y="667" on="0"/>
        <pt x="161" y="719" on="0"/>
        <pt x="234" y="752" on="0"/>
        <pt x="284" y="752" on="1"/>
        <pt x="311" y="752" on="0"/>
        <pt x="366" y="740" on="0"/>
        <pt x="410" y="711" on="0"/>
        <pt x="437" y="662" on="0"/>
        <pt x="437" y="625" on="1"/>
        <pt x="437" y="587" on="0"/>
        <pt x="407" y="543" on="0"/>
        <pt x="382" y="543" on="1"/>
        <pt x="355" y="543" on="0"/>
        <pt x="329" y="570" on="1"/>
        <pt x="343" y="576" on="0"/>
        <pt x="370" y="613" on="0"/>
        <pt x="370" y="642" on="1"/>
        <pt x="370" y="661" on="0"/>
        <pt x="356" y="688" on="0"/>
        <pt x="333" y="706" on="0"/>
        <pt x="305" y="714" on="0"/>
        <pt x="290" y="714" on="1"/>
        <pt x="263" y="714" on="0"/>
        <pt x="221" y="690" on="0"/>
        <pt x="193" y="651" on="0"/>
        <pt x="178" y="602" on="0"/>
        <pt x="178" y="577" on="1"/>
        <pt x="178" y="563" on="0"/>
        <pt x="185" y="517" on="0"/>
        <pt x="208" y="469" on="0"/>
        <pt x="252" y="427" on="0"/>
        <pt x="290" y="418" on="1"/>
        <pt x="224" y="403" on="0"/>
        <pt x="153" y="298" on="0"/>
        <pt x="153" y="226" on="1"/>
        <pt x="153" y="190" on="0"/>
        <pt x="172" y="129" on="0"/>
        <pt x="211" y="86" on="0"/>
        <pt x="272" y="61" on="0"/>
        <pt x="315" y="61" on="1"/>
        <pt x="352" y="61" on="0"/>
        <pt x="420" y="79" on="0"/>
        <pt x="477" y="109" on="0"/>
        <pt x="521" y="149" on="0"/>
        <pt x="535" y="172" on="1"/>
        <pt x="533" y="179" on="1"/>
        <pt x="421" y="462" on="1"/>
      </contour>
    </TTGlyph>
    <TTGlyph name="Eacute" xMin="41" yMin="-18" xMax="521" yMax="1000">
      <contour>
        <pt x="521" y="170" on="1"/>
        <pt x="507" y="125" on="0"/>
        <pt x="453" y="55" on="0"/>
        <pt x="381" y="7" on="0"/>
        <pt x="297" y="-18" on="0"/>
        <pt x="254" y="-18" on="1"/>
        <pt x="197" y="-18" on="0"/>
        <pt x="116" y="23" on="0"/>
        <pt x="65" y="87" on="0"/>
        <pt x="41" y="168" on="0"/>
        <pt x="41" y="209" on="1"/>
        <pt x="41" y="283" on="0"/>
        <pt x="112" y="391" on="0"/>
        <pt x="176" y="417" on="1"/>
        <pt x="128" y="447" on="0"/>
        <pt x="86" y="525" on="0"/>
        <pt x="86" y="568" on="1"/>
        <pt x="86" y="601" on="0"/>
        <pt x="110" y="667" on="0"/>
        <pt x="160" y="719" on="0"/>
        <pt x="233" y="752" on="0"/>
        <pt x="283" y="752" on="1"/>
        <pt x="310" y="752" on="0"/>
        <pt x="365" y="740" on="0"/>
        <pt x="409" y="711" on="0"/>
        <pt x="436" y="662" on="0"/>
        <pt x="436" y="625" on="1"/>
        <pt x="436" y="587" on="0"/>
        <pt x="406" y="543" on="0"/>
        <pt x="381" y="543" on="1"/>
        <pt x="354" y="543" on="0"/>
        <pt x="328" y="570" on="1"/>
        <pt x="342" y="576" on="0"/>
        <pt x="369" y="613" on="0"/>
        <pt x="369" y="642" on="1"/>
        <pt x="369" y="661" on="0"/>
        <pt x="355" y="688" on="0"/>
        <pt x="332" y="706" on="0"/>
        <pt x="304" y="714" on="0"/>
        <pt x="289" y="714" on="1"/>
        <pt x="262" y="714" on="0"/>
        <pt x="220" y="690" on="0"/>
        <pt x="192" y="651" on="0"/>
        <pt x="177" y="602" on="0"/>
        <pt x="177" y="577" on="1"/>
        <pt x="177" y="566" on="0"/>
        <pt x="182" y="521" on="0"/>
        <pt x="205" y="472" on="0"/>
        <pt x="250" y="427" on="0"/>
        <pt x="289" y="418" on="1"/>
        <pt x="223" y="403" on="0"/>
        <pt x="152" y="298" on="0"/>
        <pt x="152" y="226" on="1"/>
        <pt x="152" y="154" on="0"/>
        <pt x="229" y="61" on="0"/>
        <pt x="309" y="61" on="1"/>
        <pt x="345" y="61" on="0"/>
        <pt x="406" y="80" on="0"/>
        <pt x="453" y="113" on="0"/>
        <pt x="487" y="156" on="0"/>
        <pt x="496" y="180" on="1"/>
      </contour>
      <contour>
        <pt x="302" y="1000" on="1"/>
        <pt x="387" y="1000" on="1"/>
        <pt x="306" y="811" on="1"/>
        <pt x="251" y="811" on="1"/>
      </contour>
    </TTGlyph>
    <TTGlyph name="Ecircumflex" xMin="41" yMin="-18" xMax="521" yMax="978">
      <contour>
        <pt x="521" y="170" on="1"/>
        <pt x="507" y="125" on="0"/>
        <pt x="453" y="55" on="0"/>
        <pt x="381" y="7" on="0"/>
        <pt x="297" y="-18" on="0"/>
        <pt x="254" y="-18" on="1"/>
        <pt x="197" y="-18" on="0"/>
        <pt x="116" y="23" on="0"/>
        <pt x="65" y="87" on="0"/>
        <pt x="41" y="168" on="0"/>
        <pt x="41" y="209" on="1"/>
        <pt x="41" y="283" on="0"/>
        <pt x="112" y="391" on="0"/>
        <pt x="176" y="417" on="1"/>
        <pt x="128" y="447" on="0"/>
        <pt x="86" y="525" on="0"/>
        <pt x="86" y="568" on="1"/>
        <pt x="86" y="601" on="0"/>
        <pt x="110" y="667" on="0"/>
        <pt x="160" y="719" on="0"/>
        <pt x="233" y="752" on="0"/>
        <pt x="283" y="752" on="1"/>
        <pt x="310" y="752" on="0"/>
        <pt x="365" y="740" on="0"/>
        <pt x="409" y="711" on="0"/>
        <pt x="436" y="662" on="0"/>
        <pt x="436" y="625" on="1"/>
        <pt x="436" y="587" on="0"/>
        <pt x="406" y="543" on="0"/>
        <pt x="381" y="543" on="1"/>
        <pt x="354" y="543" on="0"/>
        <pt x="328" y="570" on="1"/>
        <pt x="342" y="576" on="0"/>
        <pt x="369" y="613" on="0"/>
        <pt x="369" y="642" on="1"/>
        <pt x="369" y="661" on="0"/>
        <pt x="355" y="688" on="0"/>
        <pt x="332" y="706" on="0"/>
        <pt x="304" y="714" on="0"/>
        <pt x="289" y="714" on="1"/>
        <pt x="262" y="714" on="0"/>
        <pt x="220" y="690" on="0"/>
        <pt x="192" y="651" on="0"/>
        <pt x="177" y="602" on="0"/>
        <pt x="177" y="577" on="1"/>
        <pt x="177" y="566" on="0"/>
        <pt x="182" y="521" on="0"/>
        <pt x="205" y="472" on="0"/>
        <pt x="250" y="427" on="0"/>
        <pt x="289" y="418" on="1"/>
        <pt x="223" y="403" on="0"/>
        <pt x="152" y="298" on="0"/>
        <pt x="152" y="226" on="1"/>
        <pt x="152" y="154" on="0"/>
        <pt x="229" y="61" on="0"/>
        <pt x="309" y="61" on="1"/>
        <pt x="345" y="61" on="0"/>
        <pt x="406" y="80" on="0"/>
        <pt x="453" y="113" on="0"/>
        <pt x="487" y="156" on="0"/>
        <pt x="496" y="180" on="1"/>
      </contour>
      <contour>
        <pt x="397" y="811" on="1"/>
        <pt x="311" y="912" on="1"/>
        <pt x="170" y="811" on="1"/>
        <pt x="136" y="811" on="1"/>
        <pt x="302" y="978" on="1"/>
        <pt x="323" y="978" on="1"/>
        <pt x="419" y="811" on="1"/>
      </contour>
    </TTGlyph>
    <TTGlyph name="Edieresis" xMin="41" yMin="-18" xMax="521" yMax="949">
      <contour>
        <pt x="521" y="170" on="1"/>
        <pt x="507" y="125" on="0"/>
        <pt x="453" y="55" on="0"/>
        <pt x="381" y="7" on="0"/>
        <pt x="297" y="-18" on="0"/>
        <pt x="254" y="-18" on="1"/>
        <pt x="197" y="-18" on="0"/>
        <pt x="116" y="23" on="0"/>
        <pt x="65" y="87" on="0"/>
        <pt x="41" y="168" on="0"/>
        <pt x="41" y="209" on="1"/>
        <pt x="41" y="283" on="0"/>
        <pt x="112" y="391" on="0"/>
        <pt x="176" y="417" on="1"/>
        <pt x="128" y="447" on="0"/>
        <pt x="86" y="525" on="0"/>
        <pt x="86" y="568" on="1"/>
        <pt x="86" y="601" on="0"/>
        <pt x="110" y="667" on="0"/>
        <pt x="160" y="719" on="0"/>
        <pt x="233" y="752" on="0"/>
        <pt x="283" y="752" on="1"/>
        <pt x="310" y="752" on="0"/>
        <pt x="365" y="740" on="0"/>
        <pt x="409" y="711" on="0"/>
        <pt x="436" y="662" on="0"/>
        <pt x="436" y="625" on="1"/>
        <pt x="436" y="587" on="0"/>
        <pt x="406" y="543" on="0"/>
        <pt x="381" y="543" on="1"/>
        <pt x="354" y="543" on="0"/>
        <pt x="328" y="570" on="1"/>
        <pt x="342" y="576" on="0"/>
        <pt x="369" y="613" on="0"/>
        <pt x="369" y="642" on="1"/>
        <pt x="369" y="661" on="0"/>
        <pt x="355" y="688" on="0"/>
        <pt x="332" y="706" on="0"/>
        <pt x="304" y="714" on="0"/>
        <pt x="289" y="714" on="1"/>
        <pt x="262" y="714" on="0"/>
        <pt x="220" y="690" on="0"/>
        <pt x="192" y="651" on="0"/>
        <pt x="177" y="602" on="0"/>
        <pt x="177" y="577" on="1"/>
        <pt x="177" y="566" on="0"/>
        <pt x="182" y="521" on="0"/>
        <pt x="205" y="472" on="0"/>
        <pt x="250" y="427" on="0"/>
        <pt x="289" y="418" on="1"/>
        <pt x="223" y="403" on="0"/>
        <pt x="152" y="298" on="0"/>
        <pt x="152" y="226" on="1"/>
        <pt x="152" y="154" on="0"/>
        <pt x="229" y="61" on="0"/>
        <pt x="309" y="61" on="1"/>
        <pt x="345" y="61" on="0"/>
        <pt x="406" y="80" on="0"/>
        <pt x="453" y="113" on="0"/>
        <pt x="487" y="156" on="0"/>
        <pt x="496" y="180" on="1"/>
      </contour>
      <contour>
        <pt x="128" y="895" on="1"/>
        <pt x="128" y="917" on="0"/>
        <pt x="158" y="949" on="0"/>
        <pt x="181" y="949" on="1"/>
        <pt x="203" y="949" on="0"/>
        <pt x="235" y="917" on="0"/>
        <pt x="235" y="895" on="1"/>
        <pt x="235" y="872" on="0"/>
        <pt x="203" y="842" on="0"/>
        <pt x="181" y="842" on="1"/>
        <pt x="158" y="842" on="0"/>
        <pt x="128" y="872" on="0"/>
      </contour>
      <contour>
        <pt x="287" y="895" on="1"/>
        <pt x="287" y="917" on="0"/>
        <pt x="317" y="949" on="0"/>
        <pt x="340" y="949" on="1"/>
        <pt x="362" y="949" on="0"/>
        <pt x="394" y="917" on="0"/>
        <pt x="394" y="895" on="1"/>
        <pt x="394" y="872" on="0"/>
        <pt x="362" y="842" on="0"/>
        <pt x="340" y="842" on="1"/>
        <pt x="317" y="842" on="0"/>
        <pt x="287" y="872" on="0"/>
      </contour>
    </TTGlyph>
    <TTGlyph name="Egrave" xMin="41" yMin="-18" xMax="521" yMax="1000">
      <contour>
        <pt x="521" y="170" on="1"/>
        <pt x="507" y="125" on="0"/>
        <pt x="453" y="55" on="0"/>
        <pt x="381" y="7" on="0"/>
        <pt x="297" y="-18" on="0"/>
        <pt x="254" y="-18" on="1"/>
        <pt x="197" y="-18" on="0"/>
        <pt x="116" y="23" on="0"/>
        <pt x="65" y="87" on="0"/>
        <pt x="41" y="168" on="0"/>
        <pt x="41" y="209" on="1"/>
        <pt x="41" y="283" on="0"/>
        <pt x="112" y="391" on="0"/>
        <pt x="176" y="417" on="1"/>
        <pt x="128" y="447" on="0"/>
        <pt x="86" y="525" on="0"/>
        <pt x="86" y="568" on="1"/>
        <pt x="86" y="601" on="0"/>
        <pt x="110" y="667" on="0"/>
        <pt x="160" y="719" on="0"/>
        <pt x="233" y="752" on="0"/>
        <pt x="283" y="752" on="1"/>
        <pt x="310" y="752" on="0"/>
        <pt x="365" y="740" on="0"/>
        <pt x="409" y="711" on="0"/>
        <pt x="436" y="662" on="0"/>
        <pt x="436" y="625" on="1"/>
        <pt x="436" y="587" on="0"/>
        <pt x="406" y="543" on="0"/>
        <pt x="381" y="543" on="1"/>
        <pt x="354" y="543" on="0"/>
        <pt x="328" y="570" on="1"/>
        <pt x="342" y="576" on="0"/>
        <pt x="369" y="613" on="0"/>
        <pt x="369" y="642" on="1"/>
        <pt x="369" y="661" on="0"/>
        <pt x="355" y="688" on="0"/>
        <pt x="332" y="706" on="0"/>
        <pt x="304" y="714" on="0"/>
        <pt x="289" y="714" on="1"/>
        <pt x="262" y="714" on="0"/>
        <pt x="220" y="690" on="0"/>
        <pt x="192" y="651" on="0"/>
        <pt x="177" y="602" on="0"/>
        <pt x="177" y="577" on="1"/>
        <pt x="177" y="566" on="0"/>
        <pt x="182" y="521" on="0"/>
        <pt x="205" y="472" on="0"/>
        <pt x="250" y="427" on="0"/>
        <pt x="289" y="418" on="1"/>
        <pt x="223" y="403" on="0"/>
        <pt x="152" y="298" on="0"/>
        <pt x="152" y="226" on="1"/>
        <pt x="152" y="154" on="0"/>
        <pt x="229" y="61" on="0"/>
        <pt x="309" y="61" on="1"/>
        <pt x="345" y="61" on="0"/>
        <pt x="406" y="80" on="0"/>
        <pt x="453" y="113" on="0"/>
        <pt x="487" y="156" on="0"/>
        <pt x="496" y="180" on="1"/>
      </contour>
      <contour>
        <pt x="308" y="811" on="1"/>
        <pt x="253" y="811" on="1"/>
        <pt x="152" y="1000" on="1"/>
        <pt x="237" y="1000" on="1"/>
      </contour>
    </TTGlyph>
    <TTGlyph name="Eogonek" xMin="41" yMin="-193" xMax="521" yMax="752">
      <contour>
        <pt x="521" y="170" on="1"/>
        <pt x="508" y="128" on="0"/>
        <pt x="457" y="67" on="0"/>
        <pt x="429" y="39" on="1"/>
        <pt x="403" y="12" on="0"/>
        <pt x="388" y="-49" on="0"/>
        <pt x="388" y="-74" on="1"/>
        <pt x="388" y="-106" on="0"/>
        <pt x="416" y="-144" on="0"/>
        <pt x="439" y="-144" on="1"/>
        <pt x="459" y="-144" on="0"/>
        <pt x="488" y="-117" on="0"/>
        <pt x="501" y="-100" on="1"/>
        <pt x="505" y="-131" on="1"/>
        <pt x="497" y="-140" on="0"/>
        <pt x="480" y="-161" on="0"/>
        <pt x="458" y="-180" on="0"/>
        <pt x="428" y="-193" on="0"/>
        <pt x="409" y="-193" on="1"/>
        <pt x="386" y="-193" on="0"/>
        <pt x="350" y="-175" on="0"/>
        <pt x="325" y="-148" on="0"/>
        <pt x="312" y="-116" on="0"/>
        <pt x="312" y="-101" on="1"/>
        <pt x="312" y="-77" on="0"/>
        <pt x="337" y="-22" on="0"/>
        <pt x="362" y="2" on="1"/>
        <pt x="310" y="-18" on="0"/>
        <pt x="254" y="-18" on="1"/>
        <pt x="197" y="-18" on="0"/>
        <pt x="116" y="23" on="0"/>
        <pt x="65" y="87" on="0"/>
        <pt x="41" y="168" on="0"/>
        <pt x="41" y="209" on="1"/>
        <pt x="41" y="283" on="0"/>
        <pt x="112" y="391" on="0"/>
        <pt x="176" y="417" on="1"/>
        <pt x="128" y="447" on="0"/>
        <pt x="86" y="525" on="0"/>
        <pt x="86" y="568" on="1"/>
        <pt x="86" y="601" on="0"/>
        <pt x="110" y="667" on="0"/>
        <pt x="160" y="719" on="0"/>
        <pt x="233" y="752" on="0"/>
        <pt x="283" y="752" on="1"/>
        <pt x="310" y="752" on="0"/>
        <pt x="365" y="740" on="0"/>
        <pt x="409" y="711" on="0"/>
        <pt x="436" y="662" on="0"/>
        <pt x="436" y="625" on="1"/>
        <pt x="436" y="587" on="0"/>
        <pt x="406" y="543" on="0"/>
        <pt x="381" y="543" on="1"/>
        <pt x="354" y="543" on="0"/>
        <pt x="328" y="570" on="1"/>
        <pt x="342" y="576" on="0"/>
        <pt x="369" y="613" on="0"/>
        <pt x="369" y="642" on="1"/>
        <pt x="369" y="661" on="0"/>
        <pt x="355" y="688" on="0"/>
        <pt x="332" y="706" on="0"/>
        <pt x="304" y="714" on="0"/>
        <pt x="289" y="714" on="1"/>
        <pt x="262" y="714" on="0"/>
        <pt x="220" y="690" on="0"/>
        <pt x="192" y="651" on="0"/>
        <pt x="177" y="601" on="0"/>
        <pt x="177" y="575" on="1"/>
        <pt x="177" y="563" on="0"/>
        <pt x="183" y="517" on="0"/>
        <pt x="206" y="469" on="0"/>
        <pt x="250" y="427" on="0"/>
        <pt x="289" y="418" on="1"/>
        <pt x="223" y="403" on="0"/>
        <pt x="152" y="298" on="0"/>
        <pt x="152" y="226" on="1"/>
        <pt x="152" y="154" on="0"/>
        <pt x="229" y="61" on="0"/>
        <pt x="309" y="61" on="1"/>
        <pt x="345" y="61" on="0"/>
        <pt x="406" y="80" on="0"/>
        <pt x="453" y="113" on="0"/>
        <pt x="487" y="156" on="0"/>
        <pt x="496" y="180" on="1"/>
      </contour>
    </TTGlyph>
    <TTGlyph name="Eth" xMin="18" yMin="-13" xMax="680" yMax="750">
      <contour>
        <pt x="94" y="507" on="1"/>
        <pt x="94" y="478" on="0"/>
        <pt x="107" y="438" on="0"/>
        <pt x="124" y="412" on="0"/>
        <pt x="143" y="397" on="0"/>
        <pt x="149" y="393" on="1"/>
        <pt x="88" y="393" on="0"/>
        <pt x="18" y="449" on="0"/>
        <pt x="18" y="515" on="1"/>
        <pt x="18" y="561" on="0"/>
        <pt x="66" y="647" on="0"/>
        <pt x="151" y="711" on="0"/>
        <pt x="266" y="750" on="0"/>
        <pt x="334" y="750" on="1"/>
        <pt x="430" y="750" on="0"/>
        <pt x="562" y="685" on="0"/>
        <pt x="644" y="578" on="0"/>
        <pt x="680" y="440" on="0"/>
        <pt x="680" y="367" on="1"/>
        <pt x="680" y="296" on="0"/>
        <pt x="651" y="160" on="0"/>
        <pt x="600" y="53" on="0"/>
        <pt x="530" y="-13" on="0"/>
        <pt x="488" y="-13" on="1"/>
        <pt x="458" y="-13" on="0"/>
        <pt x="390" y="15" on="0"/>
        <pt x="350" y="45" on="1"/>
        <pt x="350" y="0" on="1"/>
        <pt x="242" y="0" on="1"/>
        <pt x="242" y="352" on="1"/>
        <pt x="178" y="352" on="1"/>
        <pt x="178" y="413" on="1"/>
        <pt x="242" y="413" on="1"/>
        <pt x="242" y="641" on="1"/>
        <pt x="350" y="656" on="1"/>
        <pt x="350" y="413" on="1"/>
        <pt x="432" y="413" on="1"/>
        <pt x="432" y="352" on="1"/>
        <pt x="350" y="352" on="1"/>
        <pt x="350" y="78" on="1"/>
        <pt x="369" y="64" on="0"/>
        <pt x="404" y="52" on="0"/>
        <pt x="420" y="52" on="1"/>
        <pt x="459" y="52" on="0"/>
        <pt x="512" y="109" on="0"/>
        <pt x="546" y="200" on="0"/>
        <pt x="561" y="312" on="0"/>
        <pt x="561" y="366" on="1"/>
        <pt x="561" y="459" on="0"/>
        <pt x="535" y="591" on="0"/>
        <pt x="477" y="675" on="0"/>
        <pt x="385" y="714" on="0"/>
        <pt x="320" y="714" on="1"/>
        <pt x="275" y="714" on="0"/>
        <pt x="193" y="686" on="0"/>
        <pt x="131" y="633" on="0"/>
        <pt x="94" y="556" on="0"/>
      </contour>
    </TTGlyph>
    <TTGlyph name="Euro" xMin="28" yMin="-16" xMax="596" yMax="750">
      <contour>
        <pt x="99" y="334" on="1"/>
        <pt x="99" y="350" on="1"/>
        <pt x="99" y="364" on="0"/>
        <pt x="99" y="394" on="0"/>
        <pt x="101" y="409" on="1"/>
        <pt x="28" y="409" on="1"/>
        <pt x="28" y="449" on="1"/>
        <pt x="104" y="449" on="1"/>
        <pt x="111" y="507" on="0"/>
        <pt x="146" y="615" on="0"/>
        <pt x="207" y="699" on="0"/>
        <pt x="298" y="750" on="0"/>
        <pt x="361" y="750" on="1"/>
        <pt x="399" y="750" on="0"/>
        <pt x="467" y="730" on="0"/>
        <pt x="518" y="691" on="0"/>
        <pt x="548" y="633" on="0"/>
        <pt x="548" y="594" on="1"/>
        <pt x="548" y="562" on="0"/>
        <pt x="524" y="524" on="0"/>
        <pt x="495" y="524" on="1"/>
        <pt x="481" y="524" on="0"/>
        <pt x="456" y="533" on="0"/>
        <pt x="448" y="542" on="1"/>
        <pt x="457" y="549" on="0"/>
        <pt x="472" y="593" on="0"/>
        <pt x="472" y="621" on="1"/>
        <pt x="472" y="669" on="0"/>
        <pt x="426" y="714" on="0"/>
        <pt x="388" y="714" on="1"/>
        <pt x="350" y="714" on="0"/>
        <pt x="292" y="671" on="0"/>
        <pt x="251" y="599" on="0"/>
        <pt x="226" y="503" on="0"/>
        <pt x="221" y="449" on="1"/>
        <pt x="430" y="449" on="1"/>
        <pt x="430" y="409" on="1"/>
        <pt x="218" y="409" on="1"/>
        <pt x="217" y="398" on="0"/>
        <pt x="217" y="378" on="0"/>
        <pt x="217" y="367" on="1"/>
        <pt x="217" y="334" on="1"/>
        <pt x="430" y="334" on="1"/>
        <pt x="430" y="294" on="1"/>
        <pt x="220" y="294" on="1"/>
        <pt x="232" y="170" on="0"/>
        <pt x="340" y="60" on="0"/>
        <pt x="429" y="60" on="1"/>
        <pt x="521" y="60" on="0"/>
        <pt x="570" y="118" on="1"/>
        <pt x="596" y="93" on="1"/>
        <pt x="560" y="39" on="0"/>
        <pt x="443" y="-16" on="0"/>
        <pt x="371" y="-16" on="1"/>
        <pt x="252" y="-16" on="0"/>
        <pt x="112" y="138" on="0"/>
        <pt x="101" y="294" on="1"/>
        <pt x="28" y="294" on="1"/>
        <pt x="28" y="334" on="1"/>
      </contour>
    </TTGlyph>
    <TTGlyph name="F" xMin="21" yMin="0" xMax="569" yMax="750">
      <contour>
        <pt x="479" y="646" on="1"/>
        <pt x="447" y="646" on="0"/>
        <pt x="380" y="657" on="0"/>
        <pt x="346" y="664" on="1"/>
        <pt x="346" y="435" on="1"/>
        <pt x="494" y="435" on="1"/>
        <pt x="494" y="376" on="1"/>
        <pt x="346" y="376" on="1"/>
        <pt x="346" y="0" on="1"/>
        <pt x="238" y="0" on="1"/>
        <pt x="238" y="682" on="1"/>
        <pt x="233" y="683" on="0"/>
        <pt x="224" y="683" on="0"/>
        <pt x="219" y="683" on="1"/>
        <pt x="193" y="683" on="0"/>
        <pt x="147" y="669" on="0"/>
        <pt x="114" y="635" on="0"/>
        <pt x="95" y="578" on="0"/>
        <pt x="95" y="535" on="1"/>
        <pt x="95" y="481" on="0"/>
        <pt x="122" y="408" on="0"/>
        <pt x="140" y="393" on="1"/>
        <pt x="21" y="393" on="0"/>
        <pt x="21" y="524" on="1"/>
        <pt x="21" y="572" on="0"/>
        <pt x="53" y="654" on="0"/>
        <pt x="121" y="715" on="0"/>
        <pt x="226" y="750" on="0"/>
        <pt x="299" y="750" on="1"/>
        <pt x="324" y="750" on="0"/>
        <pt x="369" y="746" on="0"/>
        <pt x="411" y="742" on="0"/>
        <pt x="455" y="738" on="0"/>
        <pt x="480" y="738" on="1"/>
        <pt x="505" y="738" on="0"/>
        <pt x="549" y="743" on="0"/>
        <pt x="569" y="750" on="1"/>
        <pt x="567" y="715" on="0"/>
        <pt x="552" y="674" on="0"/>
        <pt x="528" y="653" on="0"/>
        <pt x="497" y="646" on="0"/>
      </contour>
    </TTGlyph>
    <TTGlyph name="F_i" xMin="81" yMin="-6" xMax="850" yMax="750">
      <contour>
        <pt x="628" y="615" on="1"/>
        <pt x="604" y="615" on="0"/>
        <pt x="551" y="627" on="0"/>
        <pt x="496" y="643" on="0"/>
        <pt x="437" y="662" on="0"/>
        <pt x="406" y="669" on="1"/>
        <pt x="406" y="435" on="1"/>
        <pt x="534" y="435" on="1"/>
        <pt x="534" y="376" on="1"/>
        <pt x="406" y="376" on="1"/>
        <pt x="406" y="0" on="1"/>
        <pt x="297" y="0" on="1"/>
        <pt x="297" y="682" on="1"/>
        <pt x="224" y="679" on="0"/>
        <pt x="152" y="605" on="0"/>
        <pt x="152" y="539" on="1"/>
        <pt x="152" y="521" on="0"/>
        <pt x="159" y="478" on="0"/>
        <pt x="171" y="438" on="0"/>
        <pt x="186" y="405" on="0"/>
        <pt x="194" y="396" on="1"/>
        <pt x="133" y="396" on="0"/>
        <pt x="81" y="458" on="0"/>
        <pt x="81" y="533" on="1"/>
        <pt x="81" y="576" on="0"/>
        <pt x="113" y="654" on="0"/>
        <pt x="180" y="714" on="0"/>
        <pt x="284" y="750" on="0"/>
        <pt x="357" y="750" on="1"/>
        <pt x="390" y="750" on="0"/>
        <pt x="444" y="744" on="0"/>
        <pt x="494" y="736" on="0"/>
        <pt x="546" y="730" on="0"/>
        <pt x="578" y="730" on="1"/>
        <pt x="610" y="730" on="0"/>
        <pt x="681" y="738" on="0"/>
        <pt x="719" y="749" on="1"/>
        <pt x="719" y="716" on="0"/>
        <pt x="712" y="666" on="0"/>
        <pt x="692" y="632" on="0"/>
        <pt x="656" y="615" on="0"/>
      </contour>
      <contour>
        <pt x="696" y="500" on="1"/>
        <pt x="696" y="160" on="1"/>
        <pt x="696" y="150" on="0"/>
        <pt x="698" y="120" on="0"/>
        <pt x="707" y="91" on="0"/>
        <pt x="725" y="70" on="0"/>
        <pt x="741" y="70" on="1"/>
        <pt x="790" y="70" on="0"/>
        <pt x="813" y="179" on="1"/>
        <pt x="850" y="179" on="1"/>
        <pt x="839" y="116" on="0"/>
        <pt x="805" y="43" on="0"/>
        <pt x="767" y="5" on="0"/>
        <pt x="727" y="-6" on="0"/>
        <pt x="711" y="-6" on="1"/>
        <pt x="676" y="-6" on="0"/>
        <pt x="632" y="21" on="0"/>
        <pt x="606" y="63" on="0"/>
        <pt x="596" y="115" on="0"/>
        <pt x="596" y="139" on="1"/>
        <pt x="596" y="500" on="1"/>
      </contour>
    </TTGlyph>
    <TTGlyph name="G" xMin="33" yMin="-207" xMax="557" yMax="752">
      <contour>
        <pt x="557" y="418" on="1"/>
        <pt x="557" y="42" on="1"/>
        <pt x="557" y="-16" on="0"/>
        <pt x="533" y="-108" on="0"/>
        <pt x="484" y="-173" on="0"/>
        <pt x="407" y="-207" on="0"/>
        <pt x="353" y="-207" on="1"/>
        <pt x="303" y="-207" on="0"/>
        <pt x="236" y="-179" on="0"/>
        <pt x="196" y="-135" on="0"/>
        <pt x="180" y="-80" on="0"/>
        <pt x="180" y="-54" on="1"/>
        <pt x="180" y="-32" on="0"/>
        <pt x="191" y="11" on="0"/>
        <pt x="218" y="46" on="0"/>
        <pt x="263" y="68" on="0"/>
        <pt x="296" y="68" on="1"/>
        <pt x="336" y="68" on="0"/>
        <pt x="388" y="33" on="0"/>
        <pt x="388" y="-2" on="1"/>
        <pt x="388" y="-7" on="0"/>
        <pt x="386" y="-22" on="0"/>
        <pt x="383" y="-30" on="1"/>
        <pt x="366" y="-11" on="0"/>
        <pt x="331" y="-2" on="0"/>
        <pt x="320" y="-2" on="1"/>
        <pt x="285" y="-2" on="0"/>
        <pt x="253" y="-40" on="0"/>
        <pt x="253" y="-69" on="1"/>
        <pt x="253" y="-90" on="0"/>
        <pt x="269" y="-127" on="0"/>
        <pt x="296" y="-153" on="0"/>
        <pt x="333" y="-168" on="0"/>
        <pt x="353" y="-168" on="1"/>
        <pt x="370" y="-168" on="0"/>
        <pt x="404" y="-155" on="0"/>
        <pt x="431" y="-125" on="0"/>
        <pt x="448" y="-73" on="0"/>
        <pt x="448" y="-34" on="1"/>
        <pt x="448" y="204" on="1"/>
        <pt x="422" y="156" on="0"/>
        <pt x="336" y="109" on="0"/>
        <pt x="281" y="109" on="1"/>
        <pt x="226" y="109" on="0"/>
        <pt x="135" y="154" on="0"/>
        <pt x="69" y="235" on="0"/>
        <pt x="33" y="350" on="0"/>
        <pt x="33" y="421" on="1"/>
        <pt x="33" y="487" on="0"/>
        <pt x="67" y="607" on="0"/>
        <pt x="141" y="698" on="0"/>
        <pt x="255" y="752" on="0"/>
        <pt x="335" y="752" on="1"/>
        <pt x="371" y="752" on="0"/>
        <pt x="443" y="739" on="0"/>
        <pt x="502" y="706" on="0"/>
        <pt x="539" y="650" on="0"/>
        <pt x="539" y="607" on="1"/>
        <pt x="539" y="594" on="0"/>
        <pt x="534" y="565" on="0"/>
        <pt x="520" y="540" on="0"/>
        <pt x="495" y="524" on="0"/>
        <pt x="474" y="524" on="1"/>
        <pt x="456" y="524" on="0"/>
        <pt x="431" y="537" on="0"/>
        <pt x="410" y="550" on="1"/>
        <pt x="412" y="550" on="0"/>
        <pt x="426" y="556" on="0"/>
        <pt x="441" y="571" on="0"/>
        <pt x="453" y="599" on="0"/>
        <pt x="453" y="621" on="1"/>
        <pt x="453" y="670" on="0"/>
        <pt x="393" y="714" on="0"/>
        <pt x="349" y="714" on="1"/>
        <pt x="300" y="714" on="0"/>
        <pt x="227" y="665" on="0"/>
        <pt x="178" y="585" on="0"/>
        <pt x="154" y="481" on="0"/>
        <pt x="154" y="427" on="1"/>
        <pt x="154" y="375" on="0"/>
        <pt x="176" y="284" on="0"/>
        <pt x="216" y="217" on="0"/>
        <pt x="275" y="179" on="0"/>
        <pt x="312" y="179" on="1"/>
        <pt x="378" y="179" on="0"/>
        <pt x="452" y="304" on="0"/>
        <pt x="460" y="419" on="1"/>
      </contour>
    </TTGlyph>
    <TTGlyph name="Gbreve" xMin="33" yMin="-207" xMax="557" yMax="953">
      <contour>
        <pt x="557" y="418" on="1"/>
        <pt x="557" y="42" on="1"/>
        <pt x="557" y="-16" on="0"/>
        <pt x="533" y="-108" on="0"/>
        <pt x="484" y="-173" on="0"/>
        <pt x="407" y="-207" on="0"/>
        <pt x="353" y="-207" on="1"/>
        <pt x="303" y="-207" on="0"/>
        <pt x="236" y="-179" on="0"/>
        <pt x="196" y="-135" on="0"/>
        <pt x="180" y="-80" on="0"/>
        <pt x="180" y="-54" on="1"/>
        <pt x="180" y="-32" on="0"/>
        <pt x="191" y="11" on="0"/>
        <pt x="218" y="46" on="0"/>
        <pt x="263" y="68" on="0"/>
        <pt x="296" y="68" on="1"/>
        <pt x="336" y="68" on="0"/>
        <pt x="388" y="33" on="0"/>
        <pt x="388" y="-2" on="1"/>
        <pt x="388" y="-7" on="0"/>
        <pt x="386" y="-22" on="0"/>
        <pt x="383" y="-30" on="1"/>
        <pt x="366" y="-11" on="0"/>
        <pt x="331" y="-2" on="0"/>
        <pt x="320" y="-2" on="1"/>
        <pt x="285" y="-2" on="0"/>
        <pt x="253" y="-40" on="0"/>
        <pt x="253" y="-69" on="1"/>
        <pt x="253" y="-90" on="0"/>
        <pt x="269" y="-127" on="0"/>
        <pt x="296" y="-153" on="0"/>
        <pt x="333" y="-168" on="0"/>
        <pt x="353" y="-168" on="1"/>
        <pt x="370" y="-168" on="0"/>
        <pt x="404" y="-155" on="0"/>
        <pt x="431" y="-125" on="0"/>
        <pt x="448" y="-73" on="0"/>
        <pt x="448" y="-34" on="1"/>
        <pt x="448" y="204" on="1"/>
        <pt x="422" y="156" on="0"/>
        <pt x="336" y="109" on="0"/>
        <pt x="281" y="109" on="1"/>
        <pt x="226" y="109" on="0"/>
        <pt x="135" y="154" on="0"/>
        <pt x="69" y="235" on="0"/>
        <pt x="33" y="350" on="0"/>
        <pt x="33" y="421" on="1"/>
        <pt x="33" y="487" on="0"/>
        <pt x="67" y="607" on="0"/>
        <pt x="141" y="698" on="0"/>
        <pt x="255" y="752" on="0"/>
        <pt x="335" y="752" on="1"/>
        <pt x="371" y="752" on="0"/>
        <pt x="443" y="739" on="0"/>
        <pt x="502" y="706" on="0"/>
        <pt x="539" y="650" on="0"/>
        <pt x="539" y="607" on="1"/>
        <pt x="539" y="594" on="0"/>
        <pt x="534" y="565" on="0"/>
        <pt x="520" y="540" on="0"/>
        <pt x="495" y="524" on="0"/>
        <pt x="474" y="524" on="1"/>
        <pt x="456" y="524" on="0"/>
        <pt x="431" y="537" on="0"/>
        <pt x="410" y="550" on="1"/>
        <pt x="412" y="550" on="0"/>
        <pt x="426" y="556" on="0"/>
        <pt x="441" y="571" on="0"/>
        <pt x="453" y="599" on="0"/>
        <pt x="453" y="621" on="1"/>
        <pt x="453" y="670" on="0"/>
        <pt x="393" y="714" on="0"/>
        <pt x="349" y="714" on="1"/>
        <pt x="300" y="714" on="0"/>
        <pt x="227" y="665" on="0"/>
        <pt x="178" y="585" on="0"/>
        <pt x="154" y="481" on="0"/>
        <pt x="154" y="427" on="1"/>
        <pt x="154" y="375" on="0"/>
        <pt x="176" y="284" on="0"/>
        <pt x="216" y="217" on="0"/>
        <pt x="275" y="179" on="0"/>
        <pt x="312" y="179" on="1"/>
        <pt x="378" y="179" on="0"/>
        <pt x="452" y="304" on="0"/>
        <pt x="460" y="419" on="1"/>
      </contour>
      <contour>
        <pt x="516" y="953" on="1"/>
        <pt x="516" y="917" on="0"/>
        <pt x="486" y="864" on="0"/>
        <pt x="438" y="828" on="0"/>
        <pt x="376" y="810" on="0"/>
        <pt x="344" y="810" on="1"/>
        <pt x="312" y="810" on="0"/>
        <pt x="250" y="828" on="0"/>
        <pt x="202" y="864" on="0"/>
        <pt x="172" y="917" on="0"/>
        <pt x="172" y="953" on="1"/>
        <pt x="241" y="953" on="1"/>
        <pt x="241" y="926" on="0"/>
        <pt x="259" y="887" on="0"/>
        <pt x="288" y="860" on="0"/>
        <pt x="325" y="847" on="0"/>
        <pt x="345" y="847" on="1"/>
        <pt x="364" y="847" on="0"/>
        <pt x="402" y="860" on="0"/>
        <pt x="431" y="887" on="0"/>
        <pt x="450" y="926" on="0"/>
        <pt x="450" y="953" on="1"/>
      </contour>
    </TTGlyph>
    <TTGlyph name="H" xMin="18" yMin="0" xMax="648" yMax="750">
      <contour>
        <pt x="648" y="748" on="1"/>
        <pt x="648" y="0" on="1"/>
        <pt x="539" y="0" on="1"/>
        <pt x="539" y="376" on="1"/>
        <pt x="323" y="376" on="1"/>
        <pt x="323" y="0" on="1"/>
        <pt x="214" y="0" on="1"/>
        <pt x="214" y="697" on="1"/>
        <pt x="159" y="675" on="0"/>
        <pt x="96" y="578" on="0"/>
        <pt x="96" y="511" on="1"/>
        <pt x="96" y="476" on="0"/>
        <pt x="105" y="434" on="0"/>
        <pt x="119" y="408" on="0"/>
        <pt x="135" y="396" on="0"/>
        <pt x="142" y="393" on="1"/>
        <pt x="116" y="393" on="0"/>
        <pt x="71" y="406" on="0"/>
        <pt x="38" y="436" on="0"/>
        <pt x="18" y="483" on="0"/>
        <pt x="18" y="517" on="1"/>
        <pt x="18" y="564" on="0"/>
        <pt x="62" y="649" on="0"/>
        <pt x="136" y="713" on="0"/>
        <pt x="231" y="750" on="0"/>
        <pt x="282" y="750" on="1"/>
        <pt x="293" y="750" on="0"/>
        <pt x="313" y="749" on="0"/>
        <pt x="323" y="748" on="1"/>
        <pt x="323" y="435" on="1"/>
        <pt x="539" y="435" on="1"/>
        <pt x="539" y="717" on="1"/>
      </contour>
    </TTGlyph>
    <TTGlyph name="I" xMin="18" yMin="0" xMax="357" yMax="750">
      <contour>
        <pt x="357" y="0" on="1"/>
        <pt x="247" y="0" on="1"/>
        <pt x="247" y="691" on="1"/>
        <pt x="180" y="672" on="0"/>
        <pt x="102" y="580" on="0"/>
        <pt x="102" y="511" on="1"/>
        <pt x="102" y="484" on="0"/>
        <pt x="110" y="447" on="0"/>
        <pt x="122" y="420" on="0"/>
        <pt x="139" y="401" on="0"/>
        <pt x="148" y="393" on="1"/>
        <pt x="88" y="393" on="0"/>
        <pt x="18" y="448" on="0"/>
        <pt x="18" y="514" on="1"/>
        <pt x="18" y="562" on="0"/>
        <pt x="68" y="647" on="0"/>
        <pt x="151" y="712" on="0"/>
        <pt x="258" y="750" on="0"/>
        <pt x="315" y="750" on="1"/>
        <pt x="326" y="750" on="0"/>
        <pt x="347" y="749" on="0"/>
        <pt x="357" y="748" on="1"/>
      </contour>
    </TTGlyph>
    <TTGlyph name="IJ" xMin="18" yMin="-207" xMax="614" yMax="750">
      <contour>
        <pt x="357" y="54" on="1"/>
        <pt x="395" y="52" on="0"/>
        <pt x="436" y="15" on="0"/>
        <pt x="436" y="-28" on="1"/>
        <pt x="436" y="-31" on="0"/>
        <pt x="435" y="-38" on="0"/>
        <pt x="435" y="-42" on="1"/>
        <pt x="421" y="-29" on="0"/>
        <pt x="391" y="-17" on="0"/>
        <pt x="377" y="-17" on="1"/>
        <pt x="351" y="-17" on="0"/>
        <pt x="324" y="-60" on="0"/>
        <pt x="324" y="-86" on="1"/>
        <pt x="324" y="-101" on="0"/>
        <pt x="333" y="-129" on="0"/>
        <pt x="352" y="-152" on="0"/>
        <pt x="382" y="-166" on="0"/>
        <pt x="402" y="-166" on="1"/>
        <pt x="421" y="-166" on="0"/>
        <pt x="457" y="-151" on="0"/>
        <pt x="485" y="-119" on="0"/>
        <pt x="502" y="-69" on="0"/>
        <pt x="502" y="-34" on="1"/>
        <pt x="502" y="723" on="1"/>
        <pt x="614" y="750" on="1"/>
        <pt x="614" y="40" on="1"/>
        <pt x="614" y="-17" on="0"/>
        <pt x="594" y="-108" on="0"/>
        <pt x="546" y="-173" on="0"/>
        <pt x="467" y="-207" on="0"/>
        <pt x="408" y="-207" on="1"/>
        <pt x="366" y="-207" on="0"/>
        <pt x="305" y="-182" on="0"/>
        <pt x="266" y="-141" on="0"/>
        <pt x="248" y="-90" on="0"/>
        <pt x="248" y="-64" on="1"/>
        <pt x="248" y="-29" on="0"/>
        <pt x="263" y="0" on="1"/>
        <pt x="247" y="0" on="1"/>
        <pt x="247" y="691" on="1"/>
        <pt x="180" y="672" on="0"/>
        <pt x="102" y="580" on="0"/>
        <pt x="102" y="511" on="1"/>
        <pt x="102" y="484" on="0"/>
        <pt x="110" y="447" on="0"/>
        <pt x="122" y="420" on="0"/>
        <pt x="139" y="401" on="0"/>
        <pt x="148" y="393" on="1"/>
        <pt x="88" y="393" on="0"/>
        <pt x="18" y="448" on="0"/>
        <pt x="18" y="514" on="1"/>
        <pt x="18" y="562" on="0"/>
        <pt x="68" y="647" on="0"/>
        <pt x="151" y="712" on="0"/>
        <pt x="258" y="750" on="0"/>
        <pt x="315" y="750" on="1"/>
        <pt x="326" y="750" on="0"/>
        <pt x="347" y="749" on="0"/>
        <pt x="357" y="748" on="1"/>
      </contour>
    </TTGlyph>
    <TTGlyph name="Iacute" xMin="18" yMin="0" xMax="408" yMax="1000">
      <contour>
        <pt x="357" y="0" on="1"/>
        <pt x="247" y="0" on="1"/>
        <pt x="247" y="691" on="1"/>
        <pt x="180" y="672" on="0"/>
        <pt x="102" y="580" on="0"/>
        <pt x="102" y="511" on="1"/>
        <pt x="102" y="484" on="0"/>
        <pt x="110" y="447" on="0"/>
        <pt x="122" y="420" on="0"/>
        <pt x="139" y="401" on="0"/>
        <pt x="148" y="393" on="1"/>
        <pt x="88" y="393" on="0"/>
        <pt x="18" y="448" on="0"/>
        <pt x="18" y="514" on="1"/>
        <pt x="18" y="562" on="0"/>
        <pt x="68" y="647" on="0"/>
        <pt x="151" y="712" on="0"/>
        <pt x="258" y="750" on="0"/>
        <pt x="315" y="750" on="1"/>
        <pt x="326" y="750" on="0"/>
        <pt x="347" y="749" on="0"/>
        <pt x="357" y="748" on="1"/>
      </contour>
      <contour>
        <pt x="323" y="1000" on="1"/>
        <pt x="408" y="1000" on="1"/>
        <pt x="327" y="811" on="1"/>
        <pt x="272" y="811" on="1"/>
      </contour>
    </TTGlyph>
    <TTGlyph name="Icircumflex" xMin="18" yMin="0" xMax="439" yMax="978">
      <contour>
        <pt x="357" y="0" on="1"/>
        <pt x="247" y="0" on="1"/>
        <pt x="247" y="691" on="1"/>
        <pt x="180" y="672" on="0"/>
        <pt x="102" y="580" on="0"/>
        <pt x="102" y="511" on="1"/>
        <pt x="102" y="484" on="0"/>
        <pt x="110" y="447" on="0"/>
        <pt x="122" y="420" on="0"/>
        <pt x="139" y="401" on="0"/>
        <pt x="148" y="393" on="1"/>
        <pt x="88" y="393" on="0"/>
        <pt x="18" y="448" on="0"/>
        <pt x="18" y="514" on="1"/>
        <pt x="18" y="562" on="0"/>
        <pt x="68" y="647" on="0"/>
        <pt x="151" y="712" on="0"/>
        <pt x="258" y="750" on="0"/>
        <pt x="315" y="750" on="1"/>
        <pt x="326" y="750" on="0"/>
        <pt x="347" y="749" on="0"/>
        <pt x="357" y="748" on="1"/>
      </contour>
      <contour>
        <pt x="417" y="811" on="1"/>
        <pt x="331" y="912" on="1"/>
        <pt x="190" y="811" on="1"/>
        <pt x="156" y="811" on="1"/>
        <pt x="322" y="978" on="1"/>
        <pt x="343" y="978" on="1"/>
        <pt x="439" y="811" on="1"/>
      </contour>
    </TTGlyph>
    <TTGlyph name="Idieresis" xMin="18" yMin="0" xMax="434" yMax="949">
      <contour>
        <pt x="357" y="0" on="1"/>
        <pt x="247" y="0" on="1"/>
        <pt x="247" y="691" on="1"/>
        <pt x="180" y="672" on="0"/>
        <pt x="102" y="580" on="0"/>
        <pt x="102" y="511" on="1"/>
        <pt x="102" y="484" on="0"/>
        <pt x="110" y="447" on="0"/>
        <pt x="122" y="420" on="0"/>
        <pt x="139" y="401" on="0"/>
        <pt x="148" y="393" on="1"/>
        <pt x="88" y="393" on="0"/>
        <pt x="18" y="448" on="0"/>
        <pt x="18" y="514" on="1"/>
        <pt x="18" y="562" on="0"/>
        <pt x="68" y="647" on="0"/>
        <pt x="151" y="712" on="0"/>
        <pt x="258" y="750" on="0"/>
        <pt x="315" y="750" on="1"/>
        <pt x="326" y="750" on="0"/>
        <pt x="347" y="749" on="0"/>
        <pt x="357" y="748" on="1"/>
      </contour>
      <contour>
        <pt x="327" y="895" on="1"/>
        <pt x="327" y="917" on="0"/>
        <pt x="357" y="949" on="0"/>
        <pt x="380" y="949" on="1"/>
        <pt x="402" y="949" on="0"/>
        <pt x="434" y="917" on="0"/>
        <pt x="434" y="895" on="1"/>
        <pt x="434" y="872" on="0"/>
        <pt x="402" y="842" on="0"/>
        <pt x="380" y="842" on="1"/>
        <pt x="357" y="842" on="0"/>
        <pt x="327" y="872" on="0"/>
      </contour>
      <contour>
        <pt x="168" y="895" on="1"/>
        <pt x="168" y="917" on="0"/>
        <pt x="198" y="949" on="0"/>
        <pt x="221" y="949" on="1"/>
        <pt x="243" y="949" on="0"/>
        <pt x="275" y="917" on="0"/>
        <pt x="275" y="895" on="1"/>
        <pt x="275" y="872" on="0"/>
        <pt x="243" y="842" on="0"/>
        <pt x="221" y="842" on="1"/>
        <pt x="198" y="842" on="0"/>
        <pt x="168" y="872" on="0"/>
      </contour>
    </TTGlyph>
    <TTGlyph name="Igrave" xMin="18" yMin="0" xMax="357" yMax="1000">
      <contour>
        <pt x="357" y="0" on="1"/>
        <pt x="247" y="0" on="1"/>
        <pt x="247" y="691" on="1"/>
        <pt x="180" y="672" on="0"/>
        <pt x="102" y="580" on="0"/>
        <pt x="102" y="511" on="1"/>
        <pt x="102" y="484" on="0"/>
        <pt x="110" y="447" on="0"/>
        <pt x="122" y="420" on="0"/>
        <pt x="139" y="401" on="0"/>
        <pt x="148" y="393" on="1"/>
        <pt x="88" y="393" on="0"/>
        <pt x="18" y="448" on="0"/>
        <pt x="18" y="514" on="1"/>
        <pt x="18" y="562" on="0"/>
        <pt x="68" y="647" on="0"/>
        <pt x="151" y="712" on="0"/>
        <pt x="258" y="750" on="0"/>
        <pt x="315" y="750" on="1"/>
        <pt x="326" y="750" on="0"/>
        <pt x="347" y="749" on="0"/>
        <pt x="357" y="748" on="1"/>
      </contour>
      <contour>
        <pt x="326" y="811" on="1"/>
        <pt x="271" y="811" on="1"/>
        <pt x="170" y="1000" on="1"/>
        <pt x="255" y="1000" on="1"/>
      </contour>
    </TTGlyph>
    <TTGlyph name="J" xMin="1" yMin="-207" xMax="387" yMax="750">
      <contour>
        <pt x="387" y="750" on="1"/>
        <pt x="387" y="40" on="1"/>
        <pt x="387" y="-17" on="0"/>
        <pt x="367" y="-108" on="0"/>
        <pt x="319" y="-173" on="0"/>
        <pt x="240" y="-207" on="0"/>
        <pt x="181" y="-207" on="1"/>
        <pt x="133" y="-207" on="0"/>
        <pt x="64" y="-184" on="0"/>
        <pt x="21" y="-144" on="0"/>
        <pt x="1" y="-88" on="0"/>
        <pt x="1" y="-56" on="1"/>
        <pt x="1" y="-35" on="0"/>
        <pt x="12" y="9" on="0"/>
        <pt x="39" y="45" on="0"/>
        <pt x="83" y="68" on="0"/>
        <pt x="117" y="68" on="1"/>
        <pt x="158" y="68" on="0"/>
        <pt x="202" y="31" on="0"/>
        <pt x="202" y="-14" on="1"/>
        <pt x="202" y="-17" on="0"/>
        <pt x="201" y="-24" on="0"/>
        <pt x="201" y="-28" on="1"/>
        <pt x="187" y="-15" on="0"/>
        <pt x="157" y="-3" on="0"/>
        <pt x="143" y="-3" on="1"/>
        <pt x="117" y="-3" on="0"/>
        <pt x="78" y="-42" on="0"/>
        <pt x="78" y="-79" on="1"/>
        <pt x="78" y="-100" on="0"/>
        <pt x="95" y="-132" on="0"/>
        <pt x="123" y="-154" on="0"/>
        <pt x="157" y="-166" on="0"/>
        <pt x="175" y="-166" on="1"/>
        <pt x="194" y="-166" on="0"/>
        <pt x="230" y="-151" on="0"/>
        <pt x="258" y="-119" on="0"/>
        <pt x="275" y="-69" on="0"/>
        <pt x="275" y="-34" on="1"/>
        <pt x="275" y="692" on="1"/>
        <pt x="206" y="675" on="0"/>
        <pt x="131" y="579" on="0"/>
        <pt x="131" y="507" on="1"/>
        <pt x="131" y="481" on="0"/>
        <pt x="140" y="442" on="0"/>
        <pt x="154" y="415" on="0"/>
        <pt x="170" y="398" on="0"/>
        <pt x="177" y="393" on="1"/>
        <pt x="117" y="393" on="0"/>
        <pt x="47" y="449" on="0"/>
        <pt x="47" y="509" on="1"/>
        <pt x="47" y="560" on="0"/>
        <pt x="97" y="648" on="0"/>
        <pt x="181" y="713" on="0"/>
        <pt x="289" y="750" on="0"/>
        <pt x="346" y="750" on="1"/>
      </contour>
    </TTGlyph>
    <TTGlyph name="K" xMin="17" yMin="-17" xMax="653" yMax="750">
      <contour>
        <pt x="356" y="425" on="1"/>
        <pt x="535" y="745" on="1"/>
        <pt x="623" y="745" on="1"/>
        <pt x="399" y="424" on="1"/>
        <pt x="413" y="425" on="0"/>
        <pt x="434" y="426" on="0"/>
        <pt x="442" y="426" on="1"/>
        <pt x="493" y="426" on="0"/>
        <pt x="555" y="400" on="0"/>
        <pt x="590" y="355" on="0"/>
        <pt x="601" y="294" on="0"/>
        <pt x="601" y="259" on="1"/>
        <pt x="601" y="241" on="0"/>
        <pt x="599" y="199" on="0"/>
        <pt x="598" y="158" on="0"/>
        <pt x="596" y="120" on="0"/>
        <pt x="596" y="105" on="1"/>
        <pt x="596" y="60" on="0"/>
        <pt x="629" y="8" on="0"/>
        <pt x="653" y="0" on="1"/>
        <pt x="623" y="-9" on="0"/>
        <pt x="585" y="-17" on="0"/>
        <pt x="567" y="-17" on="1"/>
        <pt x="522" y="-17" on="0"/>
        <pt x="479" y="41" on="0"/>
        <pt x="479" y="86" on="1"/>
        <pt x="479" y="105" on="0"/>
        <pt x="482" y="153" on="0"/>
        <pt x="487" y="202" on="0"/>
        <pt x="490" y="249" on="0"/>
        <pt x="490" y="268" on="1"/>
        <pt x="490" y="302" on="0"/>
        <pt x="475" y="349" on="0"/>
        <pt x="450" y="376" on="0"/>
        <pt x="415" y="388" on="0"/>
        <pt x="395" y="388" on="1"/>
        <pt x="378" y="388" on="0"/>
        <pt x="356" y="383" on="1"/>
        <pt x="356" y="0" on="1"/>
        <pt x="246" y="0" on="1"/>
        <pt x="246" y="692" on="1"/>
        <pt x="177" y="672" on="0"/>
        <pt x="96" y="579" on="0"/>
        <pt x="96" y="509" on="1"/>
        <pt x="96" y="477" on="0"/>
        <pt x="111" y="417" on="0"/>
        <pt x="138" y="393" on="1"/>
        <pt x="114" y="393" on="0"/>
        <pt x="70" y="406" on="0"/>
        <pt x="37" y="435" on="0"/>
        <pt x="17" y="481" on="0"/>
        <pt x="17" y="514" on="1"/>
        <pt x="17" y="562" on="0"/>
        <pt x="67" y="647" on="0"/>
        <pt x="150" y="712" on="0"/>
        <pt x="257" y="750" on="0"/>
        <pt x="314" y="750" on="1"/>
        <pt x="325" y="750" on="0"/>
        <pt x="346" y="749" on="0"/>
        <pt x="356" y="748" on="1"/>
      </contour>
    </TTGlyph>
    <TTGlyph name="L" xMin="18" yMin="-179" xMax="706" yMax="740">
      <contour>
        <pt x="356" y="735" on="1"/>
        <pt x="356" y="20" on="1"/>
        <pt x="388" y="13" on="0"/>
        <pt x="449" y="-17" on="0"/>
        <pt x="513" y="-47" on="0"/>
        <pt x="584" y="-69" on="0"/>
        <pt x="626" y="-69" on="1"/>
        <pt x="661" y="-69" on="0"/>
        <pt x="703" y="-49" on="1"/>
        <pt x="706" y="-63" on="0"/>
        <pt x="706" y="-76" on="1"/>
        <pt x="706" y="-97" on="0"/>
        <pt x="691" y="-134" on="0"/>
        <pt x="662" y="-162" on="0"/>
        <pt x="621" y="-179" on="0"/>
        <pt x="596" y="-179" on="1"/>
        <pt x="557" y="-179" on="0"/>
        <pt x="481" y="-130" on="0"/>
        <pt x="403" y="-71" on="0"/>
        <pt x="318" y="-22" on="0"/>
        <pt x="270" y="-22" on="1"/>
        <pt x="264" y="-22" on="0"/>
        <pt x="253" y="-22" on="0"/>
        <pt x="247" y="-23" on="1"/>
        <pt x="247" y="681" on="1"/>
        <pt x="180" y="662" on="0"/>
        <pt x="102" y="570" on="0"/>
        <pt x="102" y="501" on="1"/>
        <pt x="102" y="474" on="0"/>
        <pt x="110" y="437" on="0"/>
        <pt x="122" y="410" on="0"/>
        <pt x="139" y="391" on="0"/>
        <pt x="148" y="383" on="1"/>
        <pt x="88" y="383" on="0"/>
        <pt x="18" y="438" on="0"/>
        <pt x="18" y="504" on="1"/>
        <pt x="18" y="552" on="0"/>
        <pt x="68" y="637" on="0"/>
        <pt x="151" y="702" on="0"/>
        <pt x="258" y="740" on="0"/>
        <pt x="315" y="740" on="1"/>
        <pt x="326" y="740" on="0"/>
        <pt x="347" y="739" on="0"/>
        <pt x="357" y="738" on="1"/>
      </contour>
    </TTGlyph>
    <TTGlyph name="Lslash" xMin="18" yMin="-179" xMax="706" yMax="740">
      <contour>
        <pt x="247" y="335" on="1"/>
        <pt x="155" y="266" on="1"/>
        <pt x="148" y="309" on="1"/>
        <pt x="247" y="384" on="1"/>
        <pt x="247" y="681" on="1"/>
        <pt x="180" y="662" on="0"/>
        <pt x="102" y="570" on="0"/>
        <pt x="102" y="501" on="1"/>
        <pt x="102" y="474" on="0"/>
        <pt x="110" y="437" on="0"/>
        <pt x="122" y="410" on="0"/>
        <pt x="139" y="391" on="0"/>
        <pt x="148" y="383" on="1"/>
        <pt x="88" y="383" on="0"/>
        <pt x="18" y="438" on="0"/>
        <pt x="18" y="504" on="1"/>
        <pt x="18" y="552" on="0"/>
        <pt x="68" y="637" on="0"/>
        <pt x="151" y="702" on="0"/>
        <pt x="258" y="740" on="0"/>
        <pt x="315" y="740" on="1"/>
        <pt x="326" y="740" on="0"/>
        <pt x="347" y="739" on="0"/>
        <pt x="356" y="738" on="1"/>
        <pt x="356" y="466" on="1"/>
        <pt x="459" y="544" on="1"/>
        <pt x="465" y="500" on="1"/>
        <pt x="356" y="417" on="1"/>
        <pt x="356" y="20" on="1"/>
        <pt x="388" y="13" on="0"/>
        <pt x="449" y="-17" on="0"/>
        <pt x="513" y="-47" on="0"/>
        <pt x="584" y="-69" on="0"/>
        <pt x="626" y="-69" on="1"/>
        <pt x="661" y="-69" on="0"/>
        <pt x="703" y="-49" on="1"/>
        <pt x="706" y="-63" on="0"/>
        <pt x="706" y="-76" on="1"/>
        <pt x="706" y="-97" on="0"/>
        <pt x="691" y="-134" on="0"/>
        <pt x="662" y="-162" on="0"/>
        <pt x="621" y="-179" on="0"/>
        <pt x="596" y="-179" on="1"/>
        <pt x="557" y="-179" on="0"/>
        <pt x="481" y="-130" on="0"/>
        <pt x="403" y="-71" on="0"/>
        <pt x="318" y="-22" on="0"/>
        <pt x="270" y="-22" on="1"/>
        <pt x="264" y="-22" on="0"/>
        <pt x="253" y="-22" on="0"/>
        <pt x="247" y="-23" on="1"/>
      </contour>
    </TTGlyph>
    <TTGlyph name="M" xMin="21" yMin="0" xMax="722" yMax="750">
      <contour>
        <pt x="355" y="0" on="1"/>
        <pt x="266" y="514" on="1"/>
        <pt x="185" y="0" on="1"/>
        <pt x="125" y="0" on="1"/>
        <pt x="235" y="700" on="1"/>
        <pt x="172" y="686" on="0"/>
        <pt x="104" y="593" on="0"/>
        <pt x="104" y="509" on="1"/>
        <pt x="104" y="475" on="0"/>
        <pt x="113" y="432" on="0"/>
        <pt x="125" y="406" on="0"/>
        <pt x="138" y="395" on="0"/>
        <pt x="141" y="393" on="1"/>
        <pt x="87" y="393" on="0"/>
        <pt x="21" y="448" on="0"/>
        <pt x="21" y="507" on="1"/>
        <pt x="21" y="556" on="0"/>
        <pt x="69" y="645" on="0"/>
        <pt x="143" y="711" on="0"/>
        <pt x="232" y="750" on="0"/>
        <pt x="274" y="750" on="1"/>
        <pt x="290" y="750" on="0"/>
        <pt x="321" y="744" on="0"/>
        <pt x="335" y="736" on="1"/>
        <pt x="435" y="155" on="1"/>
        <pt x="552" y="736" on="1"/>
        <pt x="666" y="736" on="1"/>
        <pt x="722" y="0" on="1"/>
        <pt x="608" y="0" on="1"/>
        <pt x="568" y="524" on="1"/>
        <pt x="462" y="0" on="1"/>
      </contour>
    </TTGlyph>
    <TTGlyph name="N" xMin="20" yMin="0" xMax="663" yMax="750">
      <contour>
        <pt x="663" y="748" on="1"/>
        <pt x="663" y="0" on="1"/>
        <pt x="529" y="0" on="1"/>
        <pt x="278" y="563" on="1"/>
        <pt x="278" y="0" on="1"/>
        <pt x="211" y="0" on="1"/>
        <pt x="211" y="689" on="1"/>
        <pt x="156" y="670" on="0"/>
        <pt x="94" y="587" on="0"/>
        <pt x="94" y="520" on="1"/>
        <pt x="94" y="489" on="0"/>
        <pt x="104" y="446" on="0"/>
        <pt x="118" y="417" on="0"/>
        <pt x="135" y="399" on="0"/>
        <pt x="142" y="393" on="1"/>
        <pt x="79" y="393" on="0"/>
        <pt x="20" y="454" on="0"/>
        <pt x="20" y="522" on="1"/>
        <pt x="20" y="563" on="0"/>
        <pt x="53" y="644" on="0"/>
        <pt x="113" y="709" on="0"/>
        <pt x="197" y="750" on="0"/>
        <pt x="248" y="750" on="1"/>
        <pt x="265" y="750" on="0"/>
        <pt x="301" y="744" on="0"/>
        <pt x="318" y="736" on="1"/>
        <pt x="596" y="94" on="1"/>
        <pt x="596" y="748" on="1"/>
      </contour>
    </TTGlyph>
    <TTGlyph name="N.salt" xMin="17" yMin="-6" xMax="773" yMax="750">
      <contour>
        <pt x="356" y="665" on="1"/>
        <pt x="375" y="705" on="0"/>
        <pt x="442" y="750" on="0"/>
        <pt x="486" y="750" on="1"/>
        <pt x="552" y="750" on="0"/>
        <pt x="639" y="637" on="0"/>
        <pt x="639" y="517" on="1"/>
        <pt x="639" y="497" on="0"/>
        <pt x="637" y="415" on="0"/>
        <pt x="634" y="322" on="0"/>
        <pt x="632" y="235" on="0"/>
        <pt x="632" y="211" on="1"/>
        <pt x="632" y="166" on="0"/>
        <pt x="637" y="111" on="0"/>
        <pt x="647" y="80" on="0"/>
        <pt x="663" y="70" on="0"/>
        <pt x="675" y="70" on="1"/>
        <pt x="687" y="70" on="0"/>
        <pt x="711" y="89" on="0"/>
        <pt x="732" y="120" on="0"/>
        <pt x="747" y="159" on="0"/>
        <pt x="749" y="179" on="1"/>
        <pt x="773" y="179" on="1"/>
        <pt x="765" y="119" on="0"/>
        <pt x="735" y="46" on="0"/>
        <pt x="698" y="7" on="0"/>
        <pt x="655" y="-6" on="0"/>
        <pt x="635" y="-6" on="1"/>
        <pt x="606" y="-6" on="0"/>
        <pt x="563" y="15" on="0"/>
        <pt x="535" y="66" on="0"/>
        <pt x="521" y="148" on="0"/>
        <pt x="521" y="210" on="1"/>
        <pt x="521" y="235" on="0"/>
        <pt x="523" y="317" on="0"/>
        <pt x="525" y="403" on="0"/>
        <pt x="527" y="481" on="0"/>
        <pt x="527" y="501" on="1"/>
        <pt x="527" y="554" on="0"/>
        <pt x="513" y="623" on="0"/>
        <pt x="489" y="662" on="0"/>
        <pt x="458" y="677" on="0"/>
        <pt x="442" y="677" on="1"/>
        <pt x="418" y="677" on="0"/>
        <pt x="385" y="653" on="0"/>
        <pt x="365" y="614" on="0"/>
        <pt x="356" y="566" on="0"/>
        <pt x="356" y="542" on="1"/>
        <pt x="356" y="0" on="1"/>
        <pt x="246" y="0" on="1"/>
        <pt x="246" y="692" on="1"/>
        <pt x="179" y="673" on="0"/>
        <pt x="101" y="579" on="0"/>
        <pt x="101" y="506" on="1"/>
        <pt x="101" y="481" on="0"/>
        <pt x="110" y="444" on="0"/>
        <pt x="123" y="417" on="0"/>
        <pt x="139" y="399" on="0"/>
        <pt x="147" y="393" on="1"/>
        <pt x="87" y="393" on="0"/>
        <pt x="17" y="449" on="0"/>
        <pt x="17" y="509" on="1"/>
        <pt x="17" y="560" on="0"/>
        <pt x="67" y="648" on="0"/>
        <pt x="150" y="713" on="0"/>
        <pt x="257" y="750" on="0"/>
        <pt x="314" y="750" on="1"/>
        <pt x="325" y="750" on="0"/>
        <pt x="346" y="749" on="0"/>
        <pt x="356" y="748" on="1"/>
      </contour>
    </TTGlyph>
    <TTGlyph name="Nacute" xMin="20" yMin="0" xMax="663" yMax="1000">
      <contour>
        <pt x="663" y="748" on="1"/>
        <pt x="663" y="0" on="1"/>
        <pt x="529" y="0" on="1"/>
        <pt x="278" y="563" on="1"/>
        <pt x="278" y="0" on="1"/>
        <pt x="211" y="0" on="1"/>
        <pt x="211" y="689" on="1"/>
        <pt x="156" y="670" on="0"/>
        <pt x="94" y="587" on="0"/>
        <pt x="94" y="520" on="1"/>
        <pt x="94" y="489" on="0"/>
        <pt x="104" y="446" on="0"/>
        <pt x="118" y="417" on="0"/>
        <pt x="135" y="399" on="0"/>
        <pt x="142" y="393" on="1"/>
        <pt x="79" y="393" on="0"/>
        <pt x="20" y="454" on="0"/>
        <pt x="20" y="522" on="1"/>
        <pt x="20" y="563" on="0"/>
        <pt x="53" y="644" on="0"/>
        <pt x="113" y="709" on="0"/>
        <pt x="197" y="750" on="0"/>
        <pt x="248" y="750" on="1"/>
        <pt x="265" y="750" on="0"/>
        <pt x="301" y="744" on="0"/>
        <pt x="318" y="736" on="1"/>
        <pt x="596" y="94" on="1"/>
        <pt x="596" y="748" on="1"/>
      </contour>
      <contour>
        <pt x="455" y="1000" on="1"/>
        <pt x="540" y="1000" on="1"/>
        <pt x="459" y="811" on="1"/>
        <pt x="404" y="811" on="1"/>
      </contour>
    </TTGlyph>
    <TTGlyph name="Ntilde" xMin="20" yMin="0" xMax="663" yMax="924">
      <contour>
        <pt x="663" y="748" on="1"/>
        <pt x="663" y="0" on="1"/>
        <pt x="529" y="0" on="1"/>
        <pt x="278" y="563" on="1"/>
        <pt x="278" y="0" on="1"/>
        <pt x="211" y="0" on="1"/>
        <pt x="211" y="689" on="1"/>
        <pt x="156" y="670" on="0"/>
        <pt x="94" y="587" on="0"/>
        <pt x="94" y="520" on="1"/>
        <pt x="94" y="489" on="0"/>
        <pt x="104" y="446" on="0"/>
        <pt x="118" y="417" on="0"/>
        <pt x="135" y="399" on="0"/>
        <pt x="142" y="393" on="1"/>
        <pt x="79" y="393" on="0"/>
        <pt x="20" y="454" on="0"/>
        <pt x="20" y="522" on="1"/>
        <pt x="20" y="563" on="0"/>
        <pt x="53" y="644" on="0"/>
        <pt x="113" y="709" on="0"/>
        <pt x="197" y="750" on="0"/>
        <pt x="248" y="750" on="1"/>
        <pt x="265" y="750" on="0"/>
        <pt x="301" y="744" on="0"/>
        <pt x="318" y="736" on="1"/>
        <pt x="596" y="94" on="1"/>
        <pt x="596" y="748" on="1"/>
      </contour>
      <contour>
        <pt x="603" y="915" on="1"/>
        <pt x="603" y="899" on="0"/>
        <pt x="582" y="867" on="0"/>
        <pt x="548" y="841" on="0"/>
        <pt x="502" y="825" on="0"/>
        <pt x="477" y="825" on="1"/>
        <pt x="455" y="825" on="0"/>
        <pt x="414" y="835" on="0"/>
        <pt x="375" y="848" on="0"/>
        <pt x="337" y="858" on="0"/>
        <pt x="319" y="858" on="1"/>
        <pt x="285" y="858" on="0"/>
        <pt x="264" y="834" on="1"/>
        <pt x="259" y="836" on="1"/>
        <pt x="272" y="880" on="0"/>
        <pt x="339" y="924" on="0"/>
        <pt x="390" y="924" on="1"/>
        <pt x="415" y="924" on="0"/>
        <pt x="455" y="915" on="0"/>
        <pt x="491" y="904" on="0"/>
        <pt x="525" y="895" on="0"/>
        <pt x="545" y="895" on="1"/>
        <pt x="562" y="895" on="0"/>
        <pt x="590" y="905" on="0"/>
        <pt x="598" y="915" on="1"/>
      </contour>
    </TTGlyph>
    <TTGlyph name="O" xMin="18" yMin="-6" xMax="676" yMax="750">
      <contour>
        <pt x="393" y="656" on="1"/>
        <pt x="368" y="641" on="0"/>
        <pt x="329" y="566" on="0"/>
        <pt x="303" y="468" on="0"/>
        <pt x="290" y="357" on="0"/>
        <pt x="290" y="306" on="1"/>
        <pt x="290" y="273" on="0"/>
        <pt x="298" y="191" on="0"/>
        <pt x="323" y="119" on="0"/>
        <pt x="369" y="70" on="0"/>
        <pt x="407" y="70" on="1"/>
        <pt x="448" y="70" on="0"/>
        <pt x="504" y="127" on="0"/>
        <pt x="539" y="220" on="0"/>
        <pt x="555" y="338" on="0"/>
        <pt x="555" y="399" on="1"/>
        <pt x="555" y="496" on="0"/>
        <pt x="520" y="619" on="0"/>
        <pt x="462" y="689" on="0"/>
        <pt x="385" y="714" on="0"/>
        <pt x="342" y="714" on="1"/>
        <pt x="292" y="714" on="0"/>
        <pt x="205" y="686" on="0"/>
        <pt x="140" y="630" on="0"/>
        <pt x="103" y="546" on="0"/>
        <pt x="103" y="490" on="1"/>
        <pt x="103" y="461" on="0"/>
        <pt x="111" y="425" on="0"/>
        <pt x="121" y="404" on="0"/>
        <pt x="132" y="394" on="0"/>
        <pt x="134" y="393" on="1"/>
        <pt x="80" y="393" on="0"/>
        <pt x="18" y="448" on="0"/>
        <pt x="18" y="504" on="1"/>
        <pt x="18" y="555" on="0"/>
        <pt x="71" y="645" on="0"/>
        <pt x="163" y="711" on="0"/>
        <pt x="287" y="750" on="0"/>
        <pt x="358" y="750" on="1"/>
        <pt x="450" y="750" on="0"/>
        <pt x="572" y="686" on="0"/>
        <pt x="646" y="581" on="0"/>
        <pt x="676" y="446" on="0"/>
        <pt x="676" y="374" on="1"/>
        <pt x="676" y="308" on="0"/>
        <pt x="651" y="173" on="0"/>
        <pt x="589" y="63" on="0"/>
        <pt x="487" y="-6" on="0"/>
        <pt x="410" y="-6" on="1"/>
        <pt x="360" y="-6" on="0"/>
        <pt x="272" y="28" on="0"/>
        <pt x="206" y="106" on="0"/>
        <pt x="167" y="232" on="0"/>
        <pt x="167" y="324" on="1"/>
        <pt x="167" y="381" on="0"/>
        <pt x="185" y="501" on="0"/>
        <pt x="225" y="600" on="0"/>
        <pt x="292" y="664" on="0"/>
        <pt x="342" y="664" on="1"/>
        <pt x="353" y="664" on="0"/>
        <pt x="379" y="661" on="0"/>
      </contour>
    </TTGlyph>
    <TTGlyph name="OE" xMin="18" yMin="-6" xMax="877" yMax="750">
      <contour>
        <pt x="393" y="656" on="1"/>
        <pt x="368" y="641" on="0"/>
        <pt x="329" y="566" on="0"/>
        <pt x="303" y="468" on="0"/>
        <pt x="290" y="357" on="0"/>
        <pt x="290" y="306" on="1"/>
        <pt x="290" y="273" on="0"/>
        <pt x="298" y="191" on="0"/>
        <pt x="323" y="119" on="0"/>
        <pt x="369" y="70" on="0"/>
        <pt x="407" y="70" on="1"/>
        <pt x="448" y="70" on="0"/>
        <pt x="504" y="127" on="0"/>
        <pt x="539" y="220" on="0"/>
        <pt x="555" y="338" on="0"/>
        <pt x="555" y="399" on="1"/>
        <pt x="555" y="496" on="0"/>
        <pt x="520" y="619" on="0"/>
        <pt x="462" y="689" on="0"/>
        <pt x="385" y="714" on="0"/>
        <pt x="342" y="714" on="1"/>
        <pt x="292" y="714" on="0"/>
        <pt x="205" y="686" on="0"/>
        <pt x="140" y="630" on="0"/>
        <pt x="103" y="546" on="0"/>
        <pt x="103" y="490" on="1"/>
        <pt x="103" y="462" on="0"/>
        <pt x="111" y="426" on="0"/>
        <pt x="121" y="404" on="0"/>
        <pt x="132" y="394" on="0"/>
        <pt x="134" y="393" on="1"/>
        <pt x="80" y="393" on="0"/>
        <pt x="18" y="448" on="0"/>
        <pt x="18" y="504" on="1"/>
        <pt x="18" y="555" on="0"/>
        <pt x="71" y="645" on="0"/>
        <pt x="163" y="711" on="0"/>
        <pt x="287" y="750" on="0"/>
        <pt x="358" y="750" on="1"/>
        <pt x="432" y="750" on="0"/>
        <pt x="489" y="727" on="1"/>
        <pt x="514" y="737" on="0"/>
        <pt x="569" y="750" on="0"/>
        <pt x="607" y="750" on="1"/>
        <pt x="633" y="750" on="0"/>
        <pt x="677" y="746" on="0"/>
        <pt x="720" y="742" on="0"/>
        <pt x="764" y="738" on="0"/>
        <pt x="789" y="738" on="1"/>
        <pt x="814" y="738" on="0"/>
        <pt x="857" y="743" on="0"/>
        <pt x="877" y="750" on="1"/>
        <pt x="876" y="715" on="0"/>
        <pt x="861" y="674" on="0"/>
        <pt x="837" y="653" on="0"/>
        <pt x="806" y="646" on="0"/>
        <pt x="789" y="646" on="1"/>
        <pt x="762" y="646" on="0"/>
        <pt x="706" y="654" on="0"/>
        <pt x="649" y="665" on="0"/>
        <pt x="593" y="677" on="0"/>
        <pt x="568" y="680" on="1"/>
        <pt x="622" y="632" on="0"/>
        <pt x="670" y="492" on="0"/>
        <pt x="675" y="413" on="1"/>
        <pt x="815" y="413" on="1"/>
        <pt x="815" y="354" on="1"/>
        <pt x="675" y="354" on="1"/>
        <pt x="674" y="315" on="0"/>
        <pt x="663" y="236" on="0"/>
        <pt x="642" y="162" on="0"/>
        <pt x="609" y="96" on="0"/>
        <pt x="586" y="70" on="1"/>
        <pt x="871" y="70" on="1"/>
        <pt x="871" y="0" on="1"/>
        <pt x="467" y="0" on="1"/>
        <pt x="441" y="-6" on="0"/>
        <pt x="410" y="-6" on="1"/>
        <pt x="360" y="-6" on="0"/>
        <pt x="272" y="28" on="0"/>
        <pt x="206" y="106" on="0"/>
        <pt x="167" y="232" on="0"/>
        <pt x="167" y="324" on="1"/>
        <pt x="167" y="381" on="0"/>
        <pt x="185" y="501" on="0"/>
        <pt x="225" y="600" on="0"/>
        <pt x="292" y="664" on="0"/>
        <pt x="342" y="664" on="1"/>
        <pt x="353" y="664" on="0"/>
        <pt x="379" y="661" on="0"/>
      </contour>
    </TTGlyph>
    <TTGlyph name="Oacute" xMin="18" yMin="-6" xMax="676" yMax="1000">
      <contour>
        <pt x="393" y="656" on="1"/>
        <pt x="368" y="641" on="0"/>
        <pt x="329" y="566" on="0"/>
        <pt x="303" y="468" on="0"/>
        <pt x="290" y="357" on="0"/>
        <pt x="290" y="306" on="1"/>
        <pt x="290" y="273" on="0"/>
        <pt x="298" y="191" on="0"/>
        <pt x="323" y="119" on="0"/>
        <pt x="369" y="70" on="0"/>
        <pt x="407" y="70" on="1"/>
        <pt x="448" y="70" on="0"/>
        <pt x="504" y="127" on="0"/>
        <pt x="539" y="220" on="0"/>
        <pt x="555" y="338" on="0"/>
        <pt x="555" y="399" on="1"/>
        <pt x="555" y="496" on="0"/>
        <pt x="520" y="619" on="0"/>
        <pt x="462" y="689" on="0"/>
        <pt x="385" y="714" on="0"/>
        <pt x="342" y="714" on="1"/>
        <pt x="292" y="714" on="0"/>
        <pt x="205" y="686" on="0"/>
        <pt x="140" y="630" on="0"/>
        <pt x="103" y="546" on="0"/>
        <pt x="103" y="490" on="1"/>
        <pt x="103" y="461" on="0"/>
        <pt x="111" y="425" on="0"/>
        <pt x="121" y="404" on="0"/>
        <pt x="131" y="394" on="0"/>
        <pt x="134" y="393" on="1"/>
        <pt x="80" y="393" on="0"/>
        <pt x="18" y="448" on="0"/>
        <pt x="18" y="504" on="1"/>
        <pt x="18" y="555" on="0"/>
        <pt x="71" y="645" on="0"/>
        <pt x="163" y="711" on="0"/>
        <pt x="287" y="750" on="0"/>
        <pt x="358" y="750" on="1"/>
        <pt x="450" y="750" on="0"/>
        <pt x="572" y="686" on="0"/>
        <pt x="646" y="581" on="0"/>
        <pt x="676" y="446" on="0"/>
        <pt x="676" y="374" on="1"/>
        <pt x="676" y="308" on="0"/>
        <pt x="651" y="173" on="0"/>
        <pt x="589" y="63" on="0"/>
        <pt x="487" y="-6" on="0"/>
        <pt x="410" y="-6" on="1"/>
        <pt x="360" y="-6" on="0"/>
        <pt x="272" y="28" on="0"/>
        <pt x="206" y="106" on="0"/>
        <pt x="167" y="232" on="0"/>
        <pt x="167" y="324" on="1"/>
        <pt x="167" y="381" on="0"/>
        <pt x="185" y="501" on="0"/>
        <pt x="225" y="600" on="0"/>
        <pt x="292" y="664" on="0"/>
        <pt x="342" y="664" on="1"/>
        <pt x="353" y="664" on="0"/>
        <pt x="379" y="661" on="0"/>
      </contour>
      <contour>
        <pt x="435" y="1000" on="1"/>
        <pt x="520" y="1000" on="1"/>
        <pt x="439" y="811" on="1"/>
        <pt x="384" y="811" on="1"/>
      </contour>
    </TTGlyph>
    <TTGlyph name="Ocircumflex" xMin="18" yMin="-6" xMax="676" yMax="978">
      <contour>
        <pt x="393" y="656" on="1"/>
        <pt x="368" y="641" on="0"/>
        <pt x="329" y="566" on="0"/>
        <pt x="303" y="468" on="0"/>
        <pt x="290" y="357" on="0"/>
        <pt x="290" y="306" on="1"/>
        <pt x="290" y="273" on="0"/>
        <pt x="298" y="191" on="0"/>
        <pt x="323" y="119" on="0"/>
        <pt x="369" y="70" on="0"/>
        <pt x="407" y="70" on="1"/>
        <pt x="448" y="70" on="0"/>
        <pt x="504" y="127" on="0"/>
        <pt x="539" y="220" on="0"/>
        <pt x="555" y="338" on="0"/>
        <pt x="555" y="399" on="1"/>
        <pt x="555" y="496" on="0"/>
        <pt x="520" y="619" on="0"/>
        <pt x="462" y="689" on="0"/>
        <pt x="385" y="714" on="0"/>
        <pt x="342" y="714" on="1"/>
        <pt x="292" y="714" on="0"/>
        <pt x="205" y="686" on="0"/>
        <pt x="140" y="630" on="0"/>
        <pt x="103" y="546" on="0"/>
        <pt x="103" y="490" on="1"/>
        <pt x="103" y="461" on="0"/>
        <pt x="111" y="425" on="0"/>
        <pt x="121" y="403" on="0"/>
        <pt x="131" y="394" on="0"/>
        <pt x="134" y="393" on="1"/>
        <pt x="80" y="393" on="0"/>
        <pt x="18" y="448" on="0"/>
        <pt x="18" y="504" on="1"/>
        <pt x="18" y="555" on="0"/>
        <pt x="71" y="645" on="0"/>
        <pt x="163" y="711" on="0"/>
        <pt x="287" y="750" on="0"/>
        <pt x="358" y="750" on="1"/>
        <pt x="450" y="750" on="0"/>
        <pt x="572" y="686" on="0"/>
        <pt x="646" y="581" on="0"/>
        <pt x="676" y="446" on="0"/>
        <pt x="676" y="374" on="1"/>
        <pt x="676" y="308" on="0"/>
        <pt x="651" y="173" on="0"/>
        <pt x="589" y="63" on="0"/>
        <pt x="487" y="-6" on="0"/>
        <pt x="410" y="-6" on="1"/>
        <pt x="360" y="-6" on="0"/>
        <pt x="272" y="28" on="0"/>
        <pt x="206" y="106" on="0"/>
        <pt x="167" y="232" on="0"/>
        <pt x="167" y="324" on="1"/>
        <pt x="167" y="381" on="0"/>
        <pt x="185" y="501" on="0"/>
        <pt x="225" y="600" on="0"/>
        <pt x="292" y="664" on="0"/>
        <pt x="342" y="664" on="1"/>
        <pt x="353" y="664" on="0"/>
        <pt x="379" y="661" on="0"/>
      </contour>
      <contour>
        <pt x="530" y="811" on="1"/>
        <pt x="444" y="912" on="1"/>
        <pt x="303" y="811" on="1"/>
        <pt x="269" y="811" on="1"/>
        <pt x="435" y="978" on="1"/>
        <pt x="456" y="978" on="1"/>
        <pt x="552" y="811" on="1"/>
      </contour>
    </TTGlyph>
    <TTGlyph name="Odieresis" xMin="18" yMin="-6" xMax="676" yMax="949">
      <contour>
        <pt x="393" y="656" on="1"/>
        <pt x="368" y="641" on="0"/>
        <pt x="329" y="566" on="0"/>
        <pt x="303" y="468" on="0"/>
        <pt x="290" y="357" on="0"/>
        <pt x="290" y="306" on="1"/>
        <pt x="290" y="273" on="0"/>
        <pt x="298" y="191" on="0"/>
        <pt x="323" y="119" on="0"/>
        <pt x="369" y="70" on="0"/>
        <pt x="407" y="70" on="1"/>
        <pt x="448" y="70" on="0"/>
        <pt x="504" y="127" on="0"/>
        <pt x="539" y="220" on="0"/>
        <pt x="555" y="338" on="0"/>
        <pt x="555" y="399" on="1"/>
        <pt x="555" y="496" on="0"/>
        <pt x="520" y="619" on="0"/>
        <pt x="462" y="689" on="0"/>
        <pt x="385" y="714" on="0"/>
        <pt x="342" y="714" on="1"/>
        <pt x="292" y="714" on="0"/>
        <pt x="205" y="686" on="0"/>
        <pt x="140" y="630" on="0"/>
        <pt x="103" y="546" on="0"/>
        <pt x="103" y="490" on="1"/>
        <pt x="103" y="462" on="0"/>
        <pt x="111" y="426" on="0"/>
        <pt x="121" y="404" on="0"/>
        <pt x="132" y="394" on="0"/>
        <pt x="134" y="393" on="1"/>
        <pt x="80" y="393" on="0"/>
        <pt x="18" y="448" on="0"/>
        <pt x="18" y="504" on="1"/>
        <pt x="18" y="555" on="0"/>
        <pt x="71" y="645" on="0"/>
        <pt x="163" y="711" on="0"/>
        <pt x="287" y="750" on="0"/>
        <pt x="358" y="750" on="1"/>
        <pt x="450" y="750" on="0"/>
        <pt x="572" y="686" on="0"/>
        <pt x="646" y="581" on="0"/>
        <pt x="676" y="446" on="0"/>
        <pt x="676" y="374" on="1"/>
        <pt x="676" y="308" on="0"/>
        <pt x="651" y="173" on="0"/>
        <pt x="589" y="63" on="0"/>
        <pt x="487" y="-6" on="0"/>
        <pt x="410" y="-6" on="1"/>
        <pt x="360" y="-6" on="0"/>
        <pt x="272" y="28" on="0"/>
        <pt x="206" y="106" on="0"/>
        <pt x="167" y="232" on="0"/>
        <pt x="167" y="324" on="1"/>
        <pt x="167" y="381" on="0"/>
        <pt x="185" y="501" on="0"/>
        <pt x="225" y="600" on="0"/>
        <pt x="292" y="664" on="0"/>
        <pt x="342" y="664" on="1"/>
        <pt x="353" y="664" on="0"/>
        <pt x="379" y="661" on="0"/>
      </contour>
      <contour>
        <pt x="282" y="895" on="1"/>
        <pt x="282" y="917" on="0"/>
        <pt x="312" y="949" on="0"/>
        <pt x="335" y="949" on="1"/>
        <pt x="357" y="949" on="0"/>
        <pt x="389" y="917" on="0"/>
        <pt x="389" y="895" on="1"/>
        <pt x="389" y="872" on="0"/>
        <pt x="357" y="842" on="0"/>
        <pt x="335" y="842" on="1"/>
        <pt x="312" y="842" on="0"/>
        <pt x="282" y="872" on="0"/>
      </contour>
      <contour>
        <pt x="441" y="895" on="1"/>
        <pt x="441" y="917" on="0"/>
        <pt x="471" y="949" on="0"/>
        <pt x="494" y="949" on="1"/>
        <pt x="516" y="949" on="0"/>
        <pt x="548" y="917" on="0"/>
        <pt x="548" y="895" on="1"/>
        <pt x="548" y="872" on="0"/>
        <pt x="516" y="842" on="0"/>
        <pt x="494" y="842" on="1"/>
        <pt x="471" y="842" on="0"/>
        <pt x="441" y="872" on="0"/>
      </contour>
    </TTGlyph>
    <TTGlyph name="Ograve" xMin="18" yMin="-6" xMax="676" yMax="1000">
      <contour>
        <pt x="393" y="656" on="1"/>
        <pt x="368" y="641" on="0"/>
        <pt x="329" y="566" on="0"/>
        <pt x="303" y="468" on="0"/>
        <pt x="290" y="357" on="0"/>
        <pt x="290" y="306" on="1"/>
        <pt x="290" y="273" on="0"/>
        <pt x="298" y="191" on="0"/>
        <pt x="323" y="119" on="0"/>
        <pt x="369" y="70" on="0"/>
        <pt x="407" y="70" on="1"/>
        <pt x="448" y="70" on="0"/>
        <pt x="504" y="127" on="0"/>
        <pt x="539" y="220" on="0"/>
        <pt x="555" y="338" on="0"/>
        <pt x="555" y="399" on="1"/>
        <pt x="555" y="496" on="0"/>
        <pt x="520" y="619" on="0"/>
        <pt x="462" y="689" on="0"/>
        <pt x="385" y="714" on="0"/>
        <pt x="342" y="714" on="1"/>
        <pt x="292" y="714" on="0"/>
        <pt x="205" y="686" on="0"/>
        <pt x="140" y="630" on="0"/>
        <pt x="103" y="546" on="0"/>
        <pt x="103" y="490" on="1"/>
        <pt x="103" y="461" on="0"/>
        <pt x="111" y="425" on="0"/>
        <pt x="121" y="404" on="0"/>
        <pt x="131" y="394" on="0"/>
        <pt x="134" y="393" on="1"/>
        <pt x="80" y="393" on="0"/>
        <pt x="18" y="448" on="0"/>
        <pt x="18" y="504" on="1"/>
        <pt x="18" y="555" on="0"/>
        <pt x="71" y="645" on="0"/>
        <pt x="163" y="711" on="0"/>
        <pt x="287" y="750" on="0"/>
        <pt x="358" y="750" on="1"/>
        <pt x="450" y="750" on="0"/>
        <pt x="572" y="686" on="0"/>
        <pt x="646" y="581" on="0"/>
        <pt x="676" y="446" on="0"/>
        <pt x="676" y="374" on="1"/>
        <pt x="676" y="308" on="0"/>
        <pt x="651" y="173" on="0"/>
        <pt x="589" y="63" on="0"/>
        <pt x="487" y="-6" on="0"/>
        <pt x="410" y="-6" on="1"/>
        <pt x="360" y="-6" on="0"/>
        <pt x="272" y="28" on="0"/>
        <pt x="206" y="106" on="0"/>
        <pt x="167" y="232" on="0"/>
        <pt x="167" y="324" on="1"/>
        <pt x="167" y="381" on="0"/>
        <pt x="185" y="501" on="0"/>
        <pt x="225" y="600" on="0"/>
        <pt x="292" y="664" on="0"/>
        <pt x="342" y="664" on="1"/>
        <pt x="353" y="664" on="0"/>
        <pt x="379" y="661" on="0"/>
      </contour>
      <contour>
        <pt x="451" y="811" on="1"/>
        <pt x="396" y="811" on="1"/>
        <pt x="295" y="1000" on="1"/>
        <pt x="380" y="1000" on="1"/>
      </contour>
    </TTGlyph>
    <TTGlyph name="Ohungarumlaut" xMin="18" yMin="-6" xMax="676" yMax="1000">
      <contour>
        <pt x="393" y="656" on="1"/>
        <pt x="368" y="641" on="0"/>
        <pt x="329" y="566" on="0"/>
        <pt x="303" y="468" on="0"/>
        <pt x="290" y="357" on="0"/>
        <pt x="290" y="306" on="1"/>
        <pt x="290" y="273" on="0"/>
        <pt x="298" y="191" on="0"/>
        <pt x="323" y="119" on="0"/>
        <pt x="369" y="70" on="0"/>
        <pt x="407" y="70" on="1"/>
        <pt x="448" y="70" on="0"/>
        <pt x="504" y="127" on="0"/>
        <pt x="539" y="220" on="0"/>
        <pt x="555" y="338" on="0"/>
        <pt x="555" y="399" on="1"/>
        <pt x="555" y="496" on="0"/>
        <pt x="520" y="619" on="0"/>
        <pt x="462" y="689" on="0"/>
        <pt x="385" y="714" on="0"/>
        <pt x="342" y="714" on="1"/>
        <pt x="292" y="714" on="0"/>
        <pt x="205" y="686" on="0"/>
        <pt x="140" y="630" on="0"/>
        <pt x="103" y="546" on="0"/>
        <pt x="103" y="490" on="1"/>
        <pt x="103" y="462" on="0"/>
        <pt x="112" y="426" on="0"/>
        <pt x="122" y="404" on="0"/>
        <pt x="132" y="394" on="0"/>
        <pt x="134" y="393" on="1"/>
        <pt x="80" y="393" on="0"/>
        <pt x="18" y="448" on="0"/>
        <pt x="18" y="504" on="1"/>
        <pt x="18" y="555" on="0"/>
        <pt x="71" y="645" on="0"/>
        <pt x="163" y="711" on="0"/>
        <pt x="287" y="750" on="0"/>
        <pt x="358" y="750" on="1"/>
        <pt x="450" y="750" on="0"/>
        <pt x="572" y="686" on="0"/>
        <pt x="646" y="581" on="0"/>
        <pt x="676" y="446" on="0"/>
        <pt x="676" y="374" on="1"/>
        <pt x="676" y="308" on="0"/>
        <pt x="651" y="173" on="0"/>
        <pt x="589" y="63" on="0"/>
        <pt x="487" y="-6" on="0"/>
        <pt x="410" y="-6" on="1"/>
        <pt x="360" y="-6" on="0"/>
        <pt x="272" y="28" on="0"/>
        <pt x="206" y="106" on="0"/>
        <pt x="167" y="232" on="0"/>
        <pt x="167" y="324" on="1"/>
        <pt x="167" y="381" on="0"/>
        <pt x="185" y="501" on="0"/>
        <pt x="225" y="600" on="0"/>
        <pt x="292" y="664" on="0"/>
        <pt x="342" y="664" on="1"/>
        <pt x="353" y="664" on="0"/>
        <pt x="379" y="661" on="0"/>
      </contour>
      <contour>
        <pt x="370" y="1000" on="1"/>
        <pt x="455" y="1000" on="1"/>
        <pt x="374" y="811" on="1"/>
        <pt x="319" y="811" on="1"/>
      </contour>
      <contour>
        <pt x="500" y="1000" on="1"/>
        <pt x="585" y="1000" on="1"/>
        <pt x="504" y="811" on="1"/>
        <pt x="449" y="811" on="1"/>
      </contour>
    </TTGlyph>
    <TTGlyph name="Oslash" xMin="16" yMin="-71" xMax="674" yMax="753">
      <contour>
        <pt x="391" y="656" on="1"/>
        <pt x="366" y="641" on="0"/>
        <pt x="327" y="566" on="0"/>
        <pt x="301" y="468" on="0"/>
        <pt x="288" y="357" on="0"/>
        <pt x="288" y="306" on="1"/>
        <pt x="288" y="273" on="0"/>
        <pt x="295" y="193" on="0"/>
        <pt x="318" y="122" on="0"/>
        <pt x="362" y="72" on="0"/>
        <pt x="399" y="70" on="1"/>
        <pt x="399" y="707" on="1"/>
        <pt x="372" y="714" on="0"/>
        <pt x="340" y="714" on="1"/>
        <pt x="290" y="714" on="0"/>
        <pt x="203" y="686" on="0"/>
        <pt x="138" y="630" on="0"/>
        <pt x="101" y="546" on="0"/>
        <pt x="101" y="490" on="1"/>
        <pt x="101" y="462" on="0"/>
        <pt x="109" y="426" on="0"/>
        <pt x="119" y="405" on="0"/>
        <pt x="129" y="395" on="0"/>
        <pt x="132" y="393" on="1"/>
        <pt x="78" y="393" on="0"/>
        <pt x="16" y="448" on="0"/>
        <pt x="16" y="504" on="1"/>
        <pt x="16" y="555" on="0"/>
        <pt x="69" y="645" on="0"/>
        <pt x="161" y="711" on="0"/>
        <pt x="285" y="750" on="0"/>
        <pt x="356" y="750" on="1"/>
        <pt x="367" y="750" on="0"/>
        <pt x="388" y="749" on="0"/>
        <pt x="399" y="748" on="1"/>
        <pt x="399" y="753" on="1"/>
        <pt x="431" y="753" on="1"/>
        <pt x="431" y="743" on="1"/>
        <pt x="500" y="730" on="0"/>
        <pt x="594" y="659" on="0"/>
        <pt x="650" y="560" on="0"/>
        <pt x="674" y="438" on="0"/>
        <pt x="674" y="374" on="1"/>
        <pt x="674" y="311" on="0"/>
        <pt x="650" y="181" on="0"/>
        <pt x="594" y="73" on="0"/>
        <pt x="500" y="1" on="0"/>
        <pt x="431" y="-5" on="1"/>
        <pt x="431" y="-71" on="1"/>
        <pt x="399" y="-71" on="1"/>
        <pt x="399" y="-6" on="1"/>
        <pt x="350" y="-5" on="0"/>
        <pt x="265" y="32" on="0"/>
        <pt x="202" y="110" on="0"/>
        <pt x="165" y="234" on="0"/>
        <pt x="165" y="324" on="1"/>
        <pt x="165" y="381" on="0"/>
        <pt x="183" y="501" on="0"/>
        <pt x="223" y="600" on="0"/>
        <pt x="290" y="664" on="0"/>
        <pt x="340" y="664" on="1"/>
        <pt x="351" y="664" on="0"/>
        <pt x="377" y="661" on="0"/>
      </contour>
      <contour>
        <pt x="553" y="399" on="1"/>
        <pt x="553" y="469" on="0"/>
        <pt x="535" y="571" on="0"/>
        <pt x="502" y="642" on="0"/>
        <pt x="458" y="685" on="0"/>
        <pt x="431" y="697" on="1"/>
        <pt x="431" y="73" on="1"/>
        <pt x="464" y="83" on="0"/>
        <pt x="510" y="145" on="0"/>
        <pt x="540" y="235" on="0"/>
        <pt x="553" y="343" on="0"/>
      </contour>
    </TTGlyph>
    <TTGlyph name="Otilde" xMin="18" yMin="-6" xMax="676" yMax="924">
      <contour>
        <pt x="393" y="656" on="1"/>
        <pt x="368" y="641" on="0"/>
        <pt x="329" y="566" on="0"/>
        <pt x="303" y="468" on="0"/>
        <pt x="290" y="357" on="0"/>
        <pt x="290" y="306" on="1"/>
        <pt x="290" y="273" on="0"/>
        <pt x="298" y="191" on="0"/>
        <pt x="323" y="119" on="0"/>
        <pt x="369" y="70" on="0"/>
        <pt x="407" y="70" on="1"/>
        <pt x="448" y="70" on="0"/>
        <pt x="504" y="127" on="0"/>
        <pt x="539" y="220" on="0"/>
        <pt x="555" y="338" on="0"/>
        <pt x="555" y="399" on="1"/>
        <pt x="555" y="496" on="0"/>
        <pt x="520" y="619" on="0"/>
        <pt x="462" y="689" on="0"/>
        <pt x="385" y="714" on="0"/>
        <pt x="342" y="714" on="1"/>
        <pt x="292" y="714" on="0"/>
        <pt x="205" y="686" on="0"/>
        <pt x="140" y="630" on="0"/>
        <pt x="103" y="546" on="0"/>
        <pt x="103" y="490" on="1"/>
        <pt x="103" y="461" on="0"/>
        <pt x="111" y="425" on="0"/>
        <pt x="121" y="404" on="0"/>
        <pt x="132" y="394" on="0"/>
        <pt x="134" y="393" on="1"/>
        <pt x="80" y="393" on="0"/>
        <pt x="18" y="448" on="0"/>
        <pt x="18" y="504" on="1"/>
        <pt x="18" y="555" on="0"/>
        <pt x="71" y="645" on="0"/>
        <pt x="163" y="711" on="0"/>
        <pt x="287" y="750" on="0"/>
        <pt x="358" y="750" on="1"/>
        <pt x="450" y="750" on="0"/>
        <pt x="572" y="686" on="0"/>
        <pt x="646" y="581" on="0"/>
        <pt x="676" y="446" on="0"/>
        <pt x="676" y="374" on="1"/>
        <pt x="676" y="308" on="0"/>
        <pt x="651" y="173" on="0"/>
        <pt x="589" y="63" on="0"/>
        <pt x="487" y="-6" on="0"/>
        <pt x="410" y="-6" on="1"/>
        <pt x="360" y="-6" on="0"/>
        <pt x="272" y="28" on="0"/>
        <pt x="206" y="106" on="0"/>
        <pt x="167" y="232" on="0"/>
        <pt x="167" y="324" on="1"/>
        <pt x="167" y="381" on="0"/>
        <pt x="185" y="501" on="0"/>
        <pt x="225" y="600" on="0"/>
        <pt x="292" y="664" on="0"/>
        <pt x="342" y="664" on="1"/>
        <pt x="353" y="664" on="0"/>
        <pt x="379" y="661" on="0"/>
      </contour>
      <contour>
        <pt x="579" y="915" on="1"/>
        <pt x="579" y="899" on="0"/>
        <pt x="558" y="867" on="0"/>
        <pt x="524" y="841" on="0"/>
        <pt x="478" y="825" on="0"/>
        <pt x="453" y="825" on="1"/>
        <pt x="431" y="825" on="0"/>
        <pt x="390" y="835" on="0"/>
        <pt x="351" y="848" on="0"/>
        <pt x="313" y="858" on="0"/>
        <pt x="295" y="858" on="1"/>
        <pt x="261" y="858" on="0"/>
        <pt x="240" y="834" on="1"/>
        <pt x="235" y="836" on="1"/>
        <pt x="248" y="880" on="0"/>
        <pt x="315" y="924" on="0"/>
        <pt x="366" y="924" on="1"/>
        <pt x="391" y="924" on="0"/>
        <pt x="431" y="915" on="0"/>
        <pt x="467" y="904" on="0"/>
        <pt x="501" y="895" on="0"/>
        <pt x="521" y="895" on="1"/>
        <pt x="538" y="895" on="0"/>
        <pt x="566" y="905" on="0"/>
        <pt x="574" y="915" on="1"/>
      </contour>
    </TTGlyph>
    <TTGlyph name="P" xMin="18" yMin="0" xMax="600" yMax="750">
      <contour>
        <pt x="340" y="656" on="1"/>
        <pt x="340" y="316" on="1"/>
        <pt x="384" y="316" on="0"/>
        <pt x="447" y="353" on="0"/>
        <pt x="487" y="411" on="0"/>
        <pt x="506" y="484" on="0"/>
        <pt x="506" y="520" on="1"/>
        <pt x="506" y="552" on="0"/>
        <pt x="493" y="620" on="0"/>
        <pt x="451" y="677" on="0"/>
        <pt x="373" y="714" on="0"/>
        <pt x="308" y="714" on="1"/>
        <pt x="264" y="714" on="0"/>
        <pt x="186" y="687" on="0"/>
        <pt x="129" y="636" on="0"/>
        <pt x="96" y="561" on="0"/>
        <pt x="96" y="512" on="1"/>
        <pt x="96" y="481" on="0"/>
        <pt x="106" y="439" on="0"/>
        <pt x="120" y="411" on="0"/>
        <pt x="134" y="396" on="0"/>
        <pt x="138" y="393" on="1"/>
        <pt x="82" y="393" on="0"/>
        <pt x="18" y="449" on="0"/>
        <pt x="18" y="514" on="1"/>
        <pt x="18" y="562" on="0"/>
        <pt x="68" y="647" on="0"/>
        <pt x="152" y="712" on="0"/>
        <pt x="262" y="750" on="0"/>
        <pt x="323" y="750" on="1"/>
        <pt x="389" y="750" on="0"/>
        <pt x="493" y="717" on="0"/>
        <pt x="563" y="658" on="0"/>
        <pt x="600" y="580" on="0"/>
        <pt x="600" y="535" on="1"/>
        <pt x="600" y="493" on="0"/>
        <pt x="570" y="404" on="0"/>
        <pt x="510" y="332" on="0"/>
        <pt x="421" y="285" on="0"/>
        <pt x="362" y="285" on="1"/>
        <pt x="340" y="285" on="1"/>
        <pt x="340" y="0" on="1"/>
        <pt x="232" y="0" on="1"/>
        <pt x="232" y="641" on="1"/>
      </contour>
    </TTGlyph>
    <TTGlyph name="Q" xMin="17" yMin="-91" xMax="738" yMax="750">
      <contour>
        <pt x="392" y="656" on="1"/>
        <pt x="367" y="641" on="0"/>
        <pt x="328" y="566" on="0"/>
        <pt x="302" y="468" on="0"/>
        <pt x="289" y="355" on="0"/>
        <pt x="289" y="303" on="1"/>
        <pt x="289" y="285" on="0"/>
        <pt x="291" y="243" on="0"/>
        <pt x="297" y="198" on="0"/>
        <pt x="307" y="155" on="0"/>
        <pt x="316" y="136" on="1"/>
        <pt x="340" y="144" on="0"/>
        <pt x="384" y="150" on="0"/>
        <pt x="398" y="150" on="1"/>
        <pt x="427" y="150" on="0"/>
        <pt x="472" y="132" on="0"/>
        <pt x="492" y="118" on="1"/>
        <pt x="525" y="165" on="0"/>
        <pt x="554" y="318" on="0"/>
        <pt x="554" y="404" on="1"/>
        <pt x="554" y="500" on="0"/>
        <pt x="522" y="620" on="0"/>
        <pt x="467" y="689" on="0"/>
        <pt x="393" y="714" on="0"/>
        <pt x="351" y="714" on="1"/>
        <pt x="301" y="714" on="0"/>
        <pt x="211" y="686" on="0"/>
        <pt x="142" y="629" on="0"/>
        <pt x="102" y="545" on="0"/>
        <pt x="102" y="488" on="1"/>
        <pt x="102" y="461" on="0"/>
        <pt x="110" y="425" on="0"/>
        <pt x="121" y="404" on="0"/>
        <pt x="131" y="394" on="0"/>
        <pt x="133" y="393" on="1"/>
        <pt x="79" y="393" on="0"/>
        <pt x="17" y="449" on="0"/>
        <pt x="17" y="503" on="1"/>
        <pt x="17" y="554" on="0"/>
        <pt x="73" y="644" on="0"/>
        <pt x="168" y="711" on="0"/>
        <pt x="295" y="750" on="0"/>
        <pt x="366" y="750" on="1"/>
        <pt x="458" y="750" on="0"/>
        <pt x="578" y="686" on="0"/>
        <pt x="648" y="582" on="0"/>
        <pt x="675" y="449" on="0"/>
        <pt x="675" y="379" on="1"/>
        <pt x="675" y="332" on="0"/>
        <pt x="664" y="239" on="0"/>
        <pt x="638" y="152" on="0"/>
        <pt x="596" y="77" on="0"/>
        <pt x="565" y="50" on="1"/>
        <pt x="580" y="35" on="0"/>
        <pt x="612" y="6" on="0"/>
        <pt x="648" y="-16" on="0"/>
        <pt x="689" y="-29" on="0"/>
        <pt x="714" y="-29" on="1"/>
        <pt x="722" y="-29" on="0"/>
        <pt x="733" y="-28" on="0"/>
        <pt x="738" y="-27" on="1"/>
        <pt x="730" y="-62" on="0"/>
        <pt x="693" y="-91" on="0"/>
        <pt x="661" y="-91" on="1"/>
        <pt x="633" y="-91" on="0"/>
        <pt x="589" y="-73" on="0"/>
        <pt x="554" y="-43" on="0"/>
        <pt x="525" y="-5" on="0"/>
        <pt x="512" y="15" on="1"/>
        <pt x="490" y="5" on="0"/>
        <pt x="438" y="-6" on="0"/>
        <pt x="408" y="-6" on="1"/>
        <pt x="358" y="-6" on="0"/>
        <pt x="270" y="28" on="0"/>
        <pt x="204" y="106" on="0"/>
        <pt x="166" y="232" on="0"/>
        <pt x="166" y="324" on="1"/>
        <pt x="166" y="381" on="0"/>
        <pt x="184" y="501" on="0"/>
        <pt x="224" y="600" on="0"/>
        <pt x="291" y="664" on="0"/>
        <pt x="341" y="664" on="1"/>
        <pt x="352" y="664" on="0"/>
        <pt x="378" y="661" on="0"/>
      </contour>
      <contour>
        <pt x="389" y="120" on="1"/>
        <pt x="378" y="120" on="0"/>
        <pt x="348" y="114" on="0"/>
        <pt x="334" y="106" on="1"/>
        <pt x="347" y="89" on="0"/>
        <pt x="382" y="70" on="0"/>
        <pt x="406" y="70" on="1"/>
        <pt x="435" y="70" on="0"/>
        <pt x="460" y="87" on="1"/>
        <pt x="446" y="102" on="0"/>
        <pt x="411" y="120" on="0"/>
      </contour>
    </TTGlyph>
    <TTGlyph name="R" xMin="17" yMin="-17" xMax="653" yMax="750">
      <contour>
        <pt x="339" y="656" on="1"/>
        <pt x="339" y="423" on="1"/>
        <pt x="365" y="423" on="1"/>
        <pt x="395" y="423" on="0"/>
        <pt x="442" y="450" on="0"/>
        <pt x="475" y="493" on="0"/>
        <pt x="492" y="548" on="0"/>
        <pt x="492" y="575" on="1"/>
        <pt x="492" y="599" on="0"/>
        <pt x="477" y="648" on="0"/>
        <pt x="439" y="689" on="0"/>
        <pt x="371" y="714" on="0"/>
        <pt x="319" y="714" on="1"/>
        <pt x="272" y="714" on="0"/>
        <pt x="193" y="686" on="0"/>
        <pt x="135" y="633" on="0"/>
        <pt x="102" y="557" on="0"/>
        <pt x="102" y="509" on="1"/>
        <pt x="102" y="474" on="0"/>
        <pt x="110" y="431" on="0"/>
        <pt x="121" y="407" on="0"/>
        <pt x="132" y="396" on="0"/>
        <pt x="135" y="393" on="1"/>
        <pt x="114" y="393" on="0"/>
        <pt x="72" y="406" on="0"/>
        <pt x="38" y="434" on="0"/>
        <pt x="17" y="481" on="0"/>
        <pt x="17" y="514" on="1"/>
        <pt x="17" y="561" on="0"/>
        <pt x="65" y="646" on="0"/>
        <pt x="149" y="711" on="0"/>
        <pt x="261" y="750" on="0"/>
        <pt x="324" y="750" on="1"/>
        <pt x="384" y="750" on="0"/>
        <pt x="479" y="726" on="0"/>
        <pt x="545" y="682" on="0"/>
        <pt x="580" y="621" on="0"/>
        <pt x="580" y="585" on="1"/>
        <pt x="580" y="564" on="0"/>
        <pt x="568" y="520" on="0"/>
        <pt x="545" y="476" on="0"/>
        <pt x="511" y="438" on="0"/>
        <pt x="488" y="423" on="1"/>
        <pt x="525" y="417" on="0"/>
        <pt x="570" y="387" on="0"/>
        <pt x="594" y="344" on="0"/>
        <pt x="601" y="289" on="0"/>
        <pt x="601" y="259" on="1"/>
        <pt x="601" y="241" on="0"/>
        <pt x="599" y="199" on="0"/>
        <pt x="598" y="158" on="0"/>
        <pt x="596" y="120" on="0"/>
        <pt x="596" y="105" on="1"/>
        <pt x="596" y="60" on="0"/>
        <pt x="629" y="8" on="0"/>
        <pt x="653" y="0" on="1"/>
        <pt x="623" y="-9" on="0"/>
        <pt x="585" y="-17" on="0"/>
        <pt x="567" y="-17" on="1"/>
        <pt x="522" y="-17" on="0"/>
        <pt x="479" y="41" on="0"/>
        <pt x="479" y="86" on="1"/>
        <pt x="479" y="105" on="0"/>
        <pt x="482" y="153" on="0"/>
        <pt x="487" y="202" on="0"/>
        <pt x="490" y="249" on="0"/>
        <pt x="490" y="268" on="1"/>
        <pt x="490" y="302" on="0"/>
        <pt x="475" y="349" on="0"/>
        <pt x="450" y="376" on="0"/>
        <pt x="415" y="388" on="0"/>
        <pt x="395" y="388" on="1"/>
        <pt x="384" y="388" on="0"/>
        <pt x="351" y="384" on="0"/>
        <pt x="339" y="381" on="1"/>
        <pt x="339" y="0" on="1"/>
        <pt x="231" y="0" on="1"/>
        <pt x="231" y="641" on="1"/>
      </contour>
    </TTGlyph>
    <TTGlyph name="S" xMin="34" yMin="-12" xMax="479" yMax="749">
      <contour>
        <pt x="440" y="612" on="1"/>
        <pt x="440" y="572" on="0"/>
        <pt x="407" y="528" on="0"/>
        <pt x="380" y="528" on="1"/>
        <pt x="366" y="528" on="0"/>
        <pt x="347" y="538" on="0"/>
        <pt x="337" y="549" on="1"/>
        <pt x="351" y="559" on="0"/>
        <pt x="366" y="597" on="0"/>
        <pt x="366" y="618" on="1"/>
        <pt x="366" y="635" on="0"/>
        <pt x="355" y="669" on="0"/>
        <pt x="331" y="696" on="0"/>
        <pt x="295" y="713" on="0"/>
        <pt x="270" y="713" on="1"/>
        <pt x="244" y="713" on="0"/>
        <pt x="203" y="694" on="0"/>
        <pt x="176" y="661" on="0"/>
        <pt x="162" y="617" on="0"/>
        <pt x="162" y="592" on="1"/>
        <pt x="162" y="544" on="0"/>
        <pt x="209" y="486" on="0"/>
        <pt x="279" y="446" on="0"/>
        <pt x="362" y="410" on="0"/>
        <pt x="432" y="357" on="0"/>
        <pt x="479" y="276" on="0"/>
        <pt x="479" y="209" on="1"/>
        <pt x="479" y="149" on="0"/>
        <pt x="439" y="64" on="0"/>
        <pt x="374" y="12" on="0"/>
        <pt x="290" y="-12" on="0"/>
        <pt x="246" y="-12" on="1"/>
        <pt x="207" y="-12" on="0"/>
        <pt x="131" y="6" on="0"/>
        <pt x="71" y="45" on="0"/>
        <pt x="34" y="106" on="0"/>
        <pt x="34" y="149" on="1"/>
        <pt x="34" y="174" on="0"/>
        <pt x="48" y="226" on="0"/>
        <pt x="75" y="268" on="0"/>
        <pt x="116" y="295" on="0"/>
        <pt x="143" y="295" on="1"/>
        <pt x="165" y="295" on="0"/>
        <pt x="196" y="271" on="0"/>
        <pt x="208" y="238" on="1"/>
        <pt x="184" y="237" on="0"/>
        <pt x="153" y="219" on="0"/>
        <pt x="135" y="193" on="0"/>
        <pt x="128" y="163" on="0"/>
        <pt x="128" y="150" on="1"/>
        <pt x="128" y="123" on="0"/>
        <pt x="152" y="83" on="0"/>
        <pt x="189" y="56" on="0"/>
        <pt x="232" y="43" on="0"/>
        <pt x="252" y="43" on="1"/>
        <pt x="298" y="43" on="0"/>
        <pt x="358" y="113" on="0"/>
        <pt x="358" y="179" on="1"/>
        <pt x="358" y="235" on="0"/>
        <pt x="315" y="300" on="0"/>
        <pt x="249" y="344" on="0"/>
        <pt x="174" y="376" on="0"/>
        <pt x="108" y="420" on="0"/>
        <pt x="65" y="489" on="0"/>
        <pt x="65" y="547" on="1"/>
        <pt x="65" y="597" on="0"/>
        <pt x="99" y="673" on="0"/>
        <pt x="154" y="724" on="0"/>
        <pt x="227" y="749" on="0"/>
        <pt x="266" y="749" on="1"/>
        <pt x="283" y="749" on="0"/>
        <pt x="342" y="741" on="0"/>
        <pt x="399" y="713" on="0"/>
        <pt x="440" y="658" on="0"/>
      </contour>
    </TTGlyph>
    <TTGlyph name="Sacute" xMin="34" yMin="-12" xMax="479" yMax="1000">
      <contour>
        <pt x="440" y="612" on="1"/>
        <pt x="440" y="572" on="0"/>
        <pt x="407" y="528" on="0"/>
        <pt x="380" y="528" on="1"/>
        <pt x="366" y="528" on="0"/>
        <pt x="347" y="538" on="0"/>
        <pt x="337" y="549" on="1"/>
        <pt x="351" y="559" on="0"/>
        <pt x="366" y="597" on="0"/>
        <pt x="366" y="618" on="1"/>
        <pt x="366" y="635" on="0"/>
        <pt x="355" y="669" on="0"/>
        <pt x="331" y="696" on="0"/>
        <pt x="295" y="713" on="0"/>
        <pt x="270" y="713" on="1"/>
        <pt x="244" y="713" on="0"/>
        <pt x="203" y="694" on="0"/>
        <pt x="176" y="661" on="0"/>
        <pt x="162" y="617" on="0"/>
        <pt x="162" y="592" on="1"/>
        <pt x="162" y="544" on="0"/>
        <pt x="209" y="486" on="0"/>
        <pt x="279" y="446" on="0"/>
        <pt x="362" y="410" on="0"/>
        <pt x="432" y="357" on="0"/>
        <pt x="479" y="276" on="0"/>
        <pt x="479" y="209" on="1"/>
        <pt x="479" y="149" on="0"/>
        <pt x="439" y="64" on="0"/>
        <pt x="374" y="12" on="0"/>
        <pt x="290" y="-12" on="0"/>
        <pt x="246" y="-12" on="1"/>
        <pt x="207" y="-12" on="0"/>
        <pt x="131" y="6" on="0"/>
        <pt x="71" y="45" on="0"/>
        <pt x="34" y="106" on="0"/>
        <pt x="34" y="149" on="1"/>
        <pt x="34" y="174" on="0"/>
        <pt x="48" y="226" on="0"/>
        <pt x="75" y="268" on="0"/>
        <pt x="116" y="295" on="0"/>
        <pt x="143" y="295" on="1"/>
        <pt x="165" y="295" on="0"/>
        <pt x="196" y="271" on="0"/>
        <pt x="208" y="238" on="1"/>
        <pt x="184" y="237" on="0"/>
        <pt x="153" y="219" on="0"/>
        <pt x="135" y="193" on="0"/>
        <pt x="128" y="163" on="0"/>
        <pt x="128" y="150" on="1"/>
        <pt x="128" y="123" on="0"/>
        <pt x="152" y="83" on="0"/>
        <pt x="189" y="56" on="0"/>
        <pt x="232" y="43" on="0"/>
        <pt x="252" y="43" on="1"/>
        <pt x="298" y="43" on="0"/>
        <pt x="358" y="113" on="0"/>
        <pt x="358" y="179" on="1"/>
        <pt x="358" y="235" on="0"/>
        <pt x="315" y="300" on="0"/>
        <pt x="249" y="344" on="0"/>
        <pt x="174" y="376" on="0"/>
        <pt x="108" y="420" on="0"/>
        <pt x="65" y="489" on="0"/>
        <pt x="65" y="547" on="1"/>
        <pt x="65" y="597" on="0"/>
        <pt x="99" y="673" on="0"/>
        <pt x="154" y="724" on="0"/>
        <pt x="227" y="749" on="0"/>
        <pt x="266" y="749" on="1"/>
        <pt x="283" y="749" on="0"/>
        <pt x="342" y="741" on="0"/>
        <pt x="399" y="713" on="0"/>
        <pt x="440" y="658" on="0"/>
      </contour>
      <contour>
        <pt x="284" y="1000" on="1"/>
        <pt x="369" y="1000" on="1"/>
        <pt x="288" y="811" on="1"/>
        <pt x="233" y="811" on="1"/>
      </contour>
    </TTGlyph>
    <TTGlyph name="Scaron" xMin="34" yMin="-12" xMax="479" yMax="992">
      <contour>
        <pt x="440" y="612" on="1"/>
        <pt x="440" y="572" on="0"/>
        <pt x="407" y="528" on="0"/>
        <pt x="380" y="528" on="1"/>
        <pt x="366" y="528" on="0"/>
        <pt x="347" y="538" on="0"/>
        <pt x="337" y="549" on="1"/>
        <pt x="351" y="559" on="0"/>
        <pt x="366" y="597" on="0"/>
        <pt x="366" y="618" on="1"/>
        <pt x="366" y="635" on="0"/>
        <pt x="355" y="669" on="0"/>
        <pt x="331" y="696" on="0"/>
        <pt x="295" y="713" on="0"/>
        <pt x="270" y="713" on="1"/>
        <pt x="244" y="713" on="0"/>
        <pt x="203" y="694" on="0"/>
        <pt x="176" y="661" on="0"/>
        <pt x="162" y="617" on="0"/>
        <pt x="162" y="592" on="1"/>
        <pt x="162" y="544" on="0"/>
        <pt x="209" y="486" on="0"/>
        <pt x="279" y="446" on="0"/>
        <pt x="362" y="410" on="0"/>
        <pt x="432" y="357" on="0"/>
        <pt x="479" y="276" on="0"/>
        <pt x="479" y="209" on="1"/>
        <pt x="479" y="149" on="0"/>
        <pt x="439" y="64" on="0"/>
        <pt x="374" y="12" on="0"/>
        <pt x="290" y="-12" on="0"/>
        <pt x="246" y="-12" on="1"/>
        <pt x="207" y="-12" on="0"/>
        <pt x="131" y="6" on="0"/>
        <pt x="71" y="45" on="0"/>
        <pt x="34" y="106" on="0"/>
        <pt x="34" y="149" on="1"/>
        <pt x="34" y="174" on="0"/>
        <pt x="48" y="226" on="0"/>
        <pt x="75" y="268" on="0"/>
        <pt x="116" y="295" on="0"/>
        <pt x="143" y="295" on="1"/>
        <pt x="165" y="295" on="0"/>
        <pt x="196" y="271" on="0"/>
        <pt x="208" y="238" on="1"/>
        <pt x="184" y="237" on="0"/>
        <pt x="153" y="219" on="0"/>
        <pt x="135" y="193" on="0"/>
        <pt x="128" y="163" on="0"/>
        <pt x="128" y="150" on="1"/>
        <pt x="128" y="123" on="0"/>
        <pt x="152" y="83" on="0"/>
        <pt x="189" y="56" on="0"/>
        <pt x="232" y="43" on="0"/>
        <pt x="252" y="43" on="1"/>
        <pt x="298" y="43" on="0"/>
        <pt x="358" y="113" on="0"/>
        <pt x="358" y="179" on="1"/>
        <pt x="358" y="235" on="0"/>
        <pt x="315" y="300" on="0"/>
        <pt x="249" y="344" on="0"/>
        <pt x="174" y="376" on="0"/>
        <pt x="108" y="420" on="0"/>
        <pt x="65" y="489" on="0"/>
        <pt x="65" y="547" on="1"/>
        <pt x="65" y="597" on="0"/>
        <pt x="99" y="673" on="0"/>
        <pt x="154" y="724" on="0"/>
        <pt x="227" y="749" on="0"/>
        <pt x="266" y="749" on="1"/>
        <pt x="283" y="749" on="0"/>
        <pt x="342" y="741" on="0"/>
        <pt x="399" y="713" on="0"/>
        <pt x="440" y="658" on="0"/>
      </contour>
      <contour>
        <pt x="173" y="992" on="1"/>
        <pt x="259" y="891" on="1"/>
        <pt x="400" y="992" on="1"/>
        <pt x="434" y="992" on="1"/>
        <pt x="268" y="825" on="1"/>
        <pt x="247" y="825" on="1"/>
        <pt x="151" y="992" on="1"/>
      </contour>
    </TTGlyph>
    <TTGlyph name="T" xMin="20" yMin="0" xMax="688" yMax="749">
      <contour>
        <pt x="582" y="630" on="1"/>
        <pt x="546" y="630" on="0"/>
        <pt x="463" y="644" on="0"/>
        <pt x="418" y="654" on="1"/>
        <pt x="418" y="0" on="1"/>
        <pt x="310" y="0" on="1"/>
        <pt x="310" y="670" on="1"/>
        <pt x="299" y="672" on="0"/>
        <pt x="280" y="672" on="0"/>
        <pt x="270" y="672" on="1"/>
        <pt x="186" y="672" on="0"/>
        <pt x="97" y="611" on="0"/>
        <pt x="97" y="531" on="1"/>
        <pt x="97" y="471" on="0"/>
        <pt x="124" y="408" on="0"/>
        <pt x="138" y="392" on="1"/>
        <pt x="113" y="392" on="0"/>
        <pt x="70" y="407" on="0"/>
        <pt x="38" y="441" on="0"/>
        <pt x="20" y="496" on="0"/>
        <pt x="20" y="537" on="1"/>
        <pt x="20" y="578" on="0"/>
        <pt x="52" y="654" on="0"/>
        <pt x="123" y="713" on="0"/>
        <pt x="236" y="749" on="0"/>
        <pt x="318" y="749" on="1"/>
        <pt x="358" y="749" on="0"/>
        <pt x="423" y="742" on="0"/>
        <pt x="480" y="733" on="0"/>
        <pt x="536" y="726" on="0"/>
        <pt x="567" y="726" on="1"/>
        <pt x="609" y="726" on="0"/>
        <pt x="666" y="739" on="0"/>
        <pt x="685" y="747" on="1"/>
        <pt x="688" y="729" on="0"/>
        <pt x="688" y="713" on="1"/>
        <pt x="688" y="630" on="0"/>
      </contour>
    </TTGlyph>
    <TTGlyph name="T_h" xMin="20" yMin="-6" xMax="1067" yMax="749">
      <contour>
        <pt x="913" y="156" on="1"/>
        <pt x="913" y="148" on="0"/>
        <pt x="915" y="119" on="0"/>
        <pt x="923" y="91" on="0"/>
        <pt x="941" y="70" on="0"/>
        <pt x="958" y="70" on="1"/>
        <pt x="981" y="70" on="0"/>
        <pt x="1018" y="122" on="0"/>
        <pt x="1030" y="179" on="1"/>
        <pt x="1067" y="179" on="1"/>
        <pt x="1056" y="116" on="0"/>
        <pt x="1022" y="43" on="0"/>
        <pt x="984" y="5" on="0"/>
        <pt x="946" y="-6" on="0"/>
        <pt x="930" y="-6" on="1"/>
        <pt x="898" y="-6" on="0"/>
        <pt x="854" y="19" on="0"/>
        <pt x="826" y="61" on="0"/>
        <pt x="813" y="117" on="0"/>
        <pt x="813" y="147" on="1"/>
        <pt x="813" y="156" on="0"/>
        <pt x="814" y="205" on="0"/>
        <pt x="815" y="261" on="0"/>
        <pt x="816" y="311" on="0"/>
        <pt x="816" y="321" on="1"/>
        <pt x="816" y="353" on="0"/>
        <pt x="806" y="395" on="0"/>
        <pt x="788" y="419" on="0"/>
        <pt x="765" y="429" on="0"/>
        <pt x="752" y="429" on="1"/>
        <pt x="721" y="429" on="0"/>
        <pt x="676" y="379" on="0"/>
        <pt x="662" y="320" on="1"/>
        <pt x="662" y="0" on="1"/>
        <pt x="562" y="0" on="1"/>
        <pt x="562" y="644" on="1"/>
        <pt x="529" y="646" on="0"/>
        <pt x="458" y="655" on="0"/>
        <pt x="419" y="662" on="1"/>
        <pt x="419" y="0" on="1"/>
        <pt x="309" y="0" on="1"/>
        <pt x="309" y="670" on="1"/>
        <pt x="299" y="671" on="0"/>
        <pt x="280" y="672" on="0"/>
        <pt x="270" y="672" on="1"/>
        <pt x="186" y="672" on="0"/>
        <pt x="93" y="611" on="0"/>
        <pt x="93" y="531" on="1"/>
        <pt x="93" y="471" on="0"/>
        <pt x="124" y="408" on="0"/>
        <pt x="138" y="392" on="1"/>
        <pt x="113" y="392" on="0"/>
        <pt x="70" y="407" on="0"/>
        <pt x="38" y="441" on="0"/>
        <pt x="20" y="496" on="0"/>
        <pt x="20" y="537" on="1"/>
        <pt x="20" y="578" on="0"/>
        <pt x="52" y="654" on="0"/>
        <pt x="123" y="713" on="0"/>
        <pt x="236" y="749" on="0"/>
        <pt x="318" y="749" on="1"/>
        <pt x="358" y="749" on="0"/>
        <pt x="419" y="742" on="0"/>
        <pt x="473" y="733" on="0"/>
        <pt x="526" y="726" on="0"/>
        <pt x="557" y="726" on="1"/>
        <pt x="599" y="726" on="0"/>
        <pt x="657" y="730" on="0"/>
        <pt x="676" y="738" on="1"/>
        <pt x="672" y="723" on="0"/>
        <pt x="667" y="690" on="0"/>
        <pt x="664" y="651" on="0"/>
        <pt x="662" y="603" on="0"/>
        <pt x="662" y="571" on="1"/>
        <pt x="662" y="424" on="1"/>
        <pt x="677" y="451" on="0"/>
        <pt x="708" y="484" on="0"/>
        <pt x="740" y="500" on="0"/>
        <pt x="769" y="505" on="0"/>
        <pt x="782" y="505" on="1"/>
        <pt x="827" y="505" on="0"/>
        <pt x="882" y="471" on="0"/>
        <pt x="910" y="418" on="0"/>
        <pt x="919" y="355" on="0"/>
        <pt x="919" y="326" on="1"/>
        <pt x="919" y="308" on="0"/>
        <pt x="917" y="265" on="0"/>
        <pt x="915" y="220" on="0"/>
        <pt x="913" y="175" on="0"/>
      </contour>
    </TTGlyph>
    <TTGlyph name="T_i" xMin="20" yMin="-6" xMax="804" yMax="750">
      <contour>
        <pt x="246" y="682" on="1"/>
        <pt x="168" y="682" on="0"/>
        <pt x="91" y="607" on="0"/>
        <pt x="91" y="539" on="1"/>
        <pt x="91" y="521" on="0"/>
        <pt x="98" y="478" on="0"/>
        <pt x="110" y="438" on="0"/>
        <pt x="125" y="405" on="0"/>
        <pt x="133" y="396" on="1"/>
        <pt x="72" y="396" on="0"/>
        <pt x="20" y="458" on="0"/>
        <pt x="20" y="533" on="1"/>
        <pt x="20" y="576" on="0"/>
        <pt x="52" y="654" on="0"/>
        <pt x="119" y="714" on="0"/>
        <pt x="223" y="750" on="0"/>
        <pt x="296" y="750" on="1"/>
        <pt x="329" y="750" on="0"/>
        <pt x="383" y="744" on="0"/>
        <pt x="433" y="736" on="0"/>
        <pt x="485" y="730" on="0"/>
        <pt x="517" y="730" on="1"/>
        <pt x="533" y="730" on="0"/>
        <pt x="573" y="732" on="0"/>
        <pt x="616" y="736" on="0"/>
        <pt x="659" y="744" on="0"/>
        <pt x="678" y="749" on="1"/>
        <pt x="678" y="716" on="0"/>
        <pt x="671" y="666" on="0"/>
        <pt x="651" y="632" on="0"/>
        <pt x="615" y="615" on="0"/>
        <pt x="587" y="615" on="1"/>
        <pt x="550" y="615" on="0"/>
        <pt x="462" y="639" on="0"/>
        <pt x="414" y="653" on="1"/>
        <pt x="414" y="0" on="1"/>
        <pt x="306" y="0" on="1"/>
        <pt x="306" y="677" on="1"/>
        <pt x="291" y="679" on="0"/>
        <pt x="261" y="682" on="0"/>
      </contour>
      <contour>
        <pt x="650" y="500" on="1"/>
        <pt x="650" y="160" on="1"/>
        <pt x="650" y="150" on="0"/>
        <pt x="652" y="120" on="0"/>
        <pt x="661" y="91" on="0"/>
        <pt x="679" y="70" on="0"/>
        <pt x="695" y="70" on="1"/>
        <pt x="744" y="70" on="0"/>
        <pt x="767" y="179" on="1"/>
        <pt x="804" y="179" on="1"/>
        <pt x="793" y="116" on="0"/>
        <pt x="759" y="43" on="0"/>
        <pt x="721" y="5" on="0"/>
        <pt x="681" y="-6" on="0"/>
        <pt x="665" y="-6" on="1"/>
        <pt x="630" y="-6" on="0"/>
        <pt x="586" y="21" on="0"/>
        <pt x="560" y="63" on="0"/>
        <pt x="550" y="115" on="0"/>
        <pt x="550" y="139" on="1"/>
        <pt x="550" y="500" on="1"/>
      </contour>
    </TTGlyph>
    <TTGlyph name="Thorn" xMin="18" yMin="0" xMax="598" yMax="749">
      <contour>
        <pt x="325" y="749" on="1"/>
        <pt x="325" y="640" on="1"/>
        <pt x="329" y="640" on="1"/>
        <pt x="392" y="640" on="0"/>
        <pt x="492" y="605" on="0"/>
        <pt x="561" y="544" on="0"/>
        <pt x="598" y="463" on="0"/>
        <pt x="598" y="417" on="1"/>
        <pt x="598" y="376" on="0"/>
        <pt x="568" y="290" on="0"/>
        <pt x="508" y="220" on="0"/>
        <pt x="419" y="175" on="0"/>
        <pt x="360" y="175" on="1"/>
        <pt x="358" y="175" on="0"/>
        <pt x="335" y="175" on="0"/>
        <pt x="325" y="176" on="1"/>
        <pt x="325" y="0" on="1"/>
        <pt x="216" y="0" on="1"/>
        <pt x="216" y="590" on="1"/>
        <pt x="157" y="570" on="0"/>
        <pt x="91" y="474" on="0"/>
        <pt x="91" y="397" on="1"/>
        <pt x="91" y="367" on="0"/>
        <pt x="101" y="327" on="0"/>
        <pt x="113" y="303" on="0"/>
        <pt x="124" y="290" on="0"/>
        <pt x="126" y="286" on="1"/>
        <pt x="75" y="286" on="0"/>
        <pt x="18" y="347" on="0"/>
        <pt x="18" y="401" on="1"/>
        <pt x="18" y="439" on="0"/>
        <pt x="47" y="509" on="0"/>
        <pt x="100" y="567" on="0"/>
        <pt x="172" y="611" on="0"/>
        <pt x="216" y="624" on="1"/>
        <pt x="216" y="734" on="1"/>
      </contour>
      <contour>
        <pt x="513" y="412" on="1"/>
        <pt x="513" y="444" on="0"/>
        <pt x="497" y="510" on="0"/>
        <pt x="455" y="565" on="0"/>
        <pt x="382" y="602" on="0"/>
        <pt x="325" y="604" on="1"/>
        <pt x="325" y="205" on="1"/>
        <pt x="347" y="205" on="1"/>
        <pt x="386" y="205" on="0"/>
        <pt x="448" y="239" on="0"/>
        <pt x="491" y="296" on="0"/>
        <pt x="513" y="371" on="0"/>
      </contour>
    </TTGlyph>
    <TTGlyph name="U" xMin="16" yMin="-7" xMax="725" yMax="750">
      <contour>
        <pt x="725" y="748" on="1"/>
        <pt x="725" y="206" on="1"/>
        <pt x="725" y="178" on="0"/>
        <pt x="708" y="104" on="0"/>
        <pt x="656" y="38" on="0"/>
        <pt x="561" y="-7" on="0"/>
        <pt x="484" y="-7" on="1"/>
        <pt x="407" y="-7" on="0"/>
        <pt x="314" y="38" on="0"/>
        <pt x="264" y="103" on="0"/>
        <pt x="247" y="176" on="0"/>
        <pt x="247" y="205" on="1"/>
        <pt x="247" y="707" on="1"/>
        <pt x="172" y="690" on="0"/>
        <pt x="90" y="587" on="0"/>
        <pt x="90" y="506" on="1"/>
        <pt x="90" y="477" on="0"/>
        <pt x="100" y="438" on="0"/>
        <pt x="112" y="412" on="0"/>
        <pt x="124" y="398" on="0"/>
        <pt x="126" y="394" on="1"/>
        <pt x="106" y="394" on="0"/>
        <pt x="66" y="409" on="0"/>
        <pt x="35" y="438" on="0"/>
        <pt x="16" y="483" on="0"/>
        <pt x="16" y="513" on="1"/>
        <pt x="16" y="561" on="0"/>
        <pt x="66" y="647" on="0"/>
        <pt x="151" y="712" on="0"/>
        <pt x="262" y="750" on="0"/>
        <pt x="323" y="750" on="1"/>
        <pt x="334" y="750" on="0"/>
        <pt x="354" y="748" on="0"/>
        <pt x="370" y="745" on="1"/>
        <pt x="370" y="207" on="1"/>
        <pt x="370" y="162" on="0"/>
        <pt x="391" y="107" on="0"/>
        <pt x="425" y="79" on="0"/>
        <pt x="469" y="70" on="0"/>
        <pt x="492" y="70" on="1"/>
        <pt x="515" y="70" on="0"/>
        <pt x="559" y="79" on="0"/>
        <pt x="594" y="108" on="0"/>
        <pt x="615" y="163" on="0"/>
        <pt x="615" y="209" on="1"/>
        <pt x="615" y="748" on="1"/>
      </contour>
    </TTGlyph>
    <TTGlyph name="Uacute" xMin="16" yMin="-7" xMax="725" yMax="1000">
      <contour>
        <pt x="725" y="748" on="1"/>
        <pt x="725" y="206" on="1"/>
        <pt x="725" y="178" on="0"/>
        <pt x="708" y="104" on="0"/>
        <pt x="656" y="38" on="0"/>
        <pt x="561" y="-7" on="0"/>
        <pt x="484" y="-7" on="1"/>
        <pt x="407" y="-7" on="0"/>
        <pt x="314" y="38" on="0"/>
        <pt x="264" y="103" on="0"/>
        <pt x="247" y="176" on="0"/>
        <pt x="247" y="205" on="1"/>
        <pt x="247" y="707" on="1"/>
        <pt x="172" y="690" on="0"/>
        <pt x="90" y="587" on="0"/>
        <pt x="90" y="506" on="1"/>
        <pt x="90" y="477" on="0"/>
        <pt x="100" y="438" on="0"/>
        <pt x="112" y="412" on="0"/>
        <pt x="124" y="398" on="0"/>
        <pt x="126" y="394" on="1"/>
        <pt x="106" y="394" on="0"/>
        <pt x="66" y="409" on="0"/>
        <pt x="35" y="438" on="0"/>
        <pt x="16" y="483" on="0"/>
        <pt x="16" y="513" on="1"/>
        <pt x="16" y="561" on="0"/>
        <pt x="66" y="647" on="0"/>
        <pt x="151" y="712" on="0"/>
        <pt x="262" y="750" on="0"/>
        <pt x="323" y="750" on="1"/>
        <pt x="334" y="750" on="0"/>
        <pt x="354" y="748" on="0"/>
        <pt x="370" y="745" on="1"/>
        <pt x="370" y="207" on="1"/>
        <pt x="370" y="162" on="0"/>
        <pt x="391" y="107" on="0"/>
        <pt x="425" y="79" on="0"/>
        <pt x="469" y="70" on="0"/>
        <pt x="492" y="70" on="1"/>
        <pt x="515" y="70" on="0"/>
        <pt x="559" y="79" on="0"/>
        <pt x="594" y="108" on="0"/>
        <pt x="615" y="163" on="0"/>
        <pt x="615" y="209" on="1"/>
        <pt x="615" y="748" on="1"/>
      </contour>
      <contour>
        <pt x="505" y="1000" on="1"/>
        <pt x="590" y="1000" on="1"/>
        <pt x="509" y="811" on="1"/>
        <pt x="454" y="811" on="1"/>
      </contour>
    </TTGlyph>
    <TTGlyph name="Ucircumflex" xMin="16" yMin="-7" xMax="725" yMax="978">
      <contour>
        <pt x="725" y="748" on="1"/>
        <pt x="725" y="206" on="1"/>
        <pt x="725" y="178" on="0"/>
        <pt x="708" y="104" on="0"/>
        <pt x="656" y="38" on="0"/>
        <pt x="561" y="-7" on="0"/>
        <pt x="484" y="-7" on="1"/>
        <pt x="407" y="-7" on="0"/>
        <pt x="314" y="38" on="0"/>
        <pt x="264" y="103" on="0"/>
        <pt x="247" y="176" on="0"/>
        <pt x="247" y="205" on="1"/>
        <pt x="247" y="707" on="1"/>
        <pt x="172" y="690" on="0"/>
        <pt x="90" y="587" on="0"/>
        <pt x="90" y="506" on="1"/>
        <pt x="90" y="477" on="0"/>
        <pt x="100" y="438" on="0"/>
        <pt x="112" y="412" on="0"/>
        <pt x="124" y="398" on="0"/>
        <pt x="126" y="394" on="1"/>
        <pt x="106" y="394" on="0"/>
        <pt x="66" y="409" on="0"/>
        <pt x="35" y="438" on="0"/>
        <pt x="16" y="483" on="0"/>
        <pt x="16" y="513" on="1"/>
        <pt x="16" y="561" on="0"/>
        <pt x="66" y="647" on="0"/>
        <pt x="151" y="712" on="0"/>
        <pt x="262" y="750" on="0"/>
        <pt x="323" y="750" on="1"/>
        <pt x="334" y="750" on="0"/>
        <pt x="354" y="748" on="0"/>
        <pt x="370" y="745" on="1"/>
        <pt x="370" y="207" on="1"/>
        <pt x="370" y="162" on="0"/>
        <pt x="391" y="107" on="0"/>
        <pt x="425" y="79" on="0"/>
        <pt x="469" y="70" on="0"/>
        <pt x="492" y="70" on="1"/>
        <pt x="515" y="70" on="0"/>
        <pt x="559" y="79" on="0"/>
        <pt x="594" y="108" on="0"/>
        <pt x="615" y="163" on="0"/>
        <pt x="615" y="209" on="1"/>
        <pt x="615" y="748" on="1"/>
      </contour>
      <contour>
        <pt x="611" y="811" on="1"/>
        <pt x="525" y="912" on="1"/>
        <pt x="384" y="811" on="1"/>
        <pt x="350" y="811" on="1"/>
        <pt x="516" y="978" on="1"/>
        <pt x="537" y="978" on="1"/>
        <pt x="633" y="811" on="1"/>
      </contour>
    </TTGlyph>
    <TTGlyph name="Udieresis" xMin="16" yMin="-7" xMax="725" yMax="949">
      <contour>
        <pt x="725" y="748" on="1"/>
        <pt x="725" y="206" on="1"/>
        <pt x="725" y="178" on="0"/>
        <pt x="708" y="104" on="0"/>
        <pt x="656" y="38" on="0"/>
        <pt x="561" y="-7" on="0"/>
        <pt x="484" y="-7" on="1"/>
        <pt x="407" y="-7" on="0"/>
        <pt x="314" y="38" on="0"/>
        <pt x="264" y="103" on="0"/>
        <pt x="247" y="176" on="0"/>
        <pt x="247" y="205" on="1"/>
        <pt x="247" y="707" on="1"/>
        <pt x="172" y="690" on="0"/>
        <pt x="90" y="587" on="0"/>
        <pt x="90" y="506" on="1"/>
        <pt x="90" y="477" on="0"/>
        <pt x="100" y="438" on="0"/>
        <pt x="112" y="412" on="0"/>
        <pt x="124" y="398" on="0"/>
        <pt x="126" y="394" on="1"/>
        <pt x="106" y="394" on="0"/>
        <pt x="66" y="409" on="0"/>
        <pt x="35" y="438" on="0"/>
        <pt x="16" y="483" on="0"/>
        <pt x="16" y="513" on="1"/>
        <pt x="16" y="561" on="0"/>
        <pt x="66" y="647" on="0"/>
        <pt x="151" y="712" on="0"/>
        <pt x="262" y="750" on="0"/>
        <pt x="323" y="750" on="1"/>
        <pt x="334" y="750" on="0"/>
        <pt x="354" y="748" on="0"/>
        <pt x="370" y="745" on="1"/>
        <pt x="370" y="207" on="1"/>
        <pt x="370" y="162" on="0"/>
        <pt x="391" y="107" on="0"/>
        <pt x="425" y="79" on="0"/>
        <pt x="469" y="70" on="0"/>
        <pt x="492" y="70" on="1"/>
        <pt x="515" y="70" on="0"/>
        <pt x="559" y="79" on="0"/>
        <pt x="594" y="108" on="0"/>
        <pt x="615" y="163" on="0"/>
        <pt x="615" y="209" on="1"/>
        <pt x="615" y="748" on="1"/>
      </contour>
      <contour>
        <pt x="517" y="895" on="1"/>
        <pt x="517" y="917" on="0"/>
        <pt x="547" y="949" on="0"/>
        <pt x="570" y="949" on="1"/>
        <pt x="592" y="949" on="0"/>
        <pt x="624" y="917" on="0"/>
        <pt x="624" y="895" on="1"/>
        <pt x="624" y="872" on="0"/>
        <pt x="592" y="842" on="0"/>
        <pt x="570" y="842" on="1"/>
        <pt x="547" y="842" on="0"/>
        <pt x="517" y="872" on="0"/>
      </contour>
      <contour>
        <pt x="358" y="895" on="1"/>
        <pt x="358" y="917" on="0"/>
        <pt x="388" y="949" on="0"/>
        <pt x="411" y="949" on="1"/>
        <pt x="433" y="949" on="0"/>
        <pt x="465" y="917" on="0"/>
        <pt x="465" y="895" on="1"/>
        <pt x="465" y="872" on="0"/>
        <pt x="433" y="842" on="0"/>
        <pt x="411" y="842" on="1"/>
        <pt x="388" y="842" on="0"/>
        <pt x="358" y="872" on="0"/>
      </contour>
    </TTGlyph>
    <TTGlyph name="Ugrave" xMin="16" yMin="-7" xMax="725" yMax="1000">
      <contour>
        <pt x="725" y="748" on="1"/>
        <pt x="725" y="206" on="1"/>
        <pt x="725" y="178" on="0"/>
        <pt x="708" y="104" on="0"/>
        <pt x="656" y="38" on="0"/>
        <pt x="561" y="-7" on="0"/>
        <pt x="484" y="-7" on="1"/>
        <pt x="407" y="-7" on="0"/>
        <pt x="314" y="38" on="0"/>
        <pt x="264" y="103" on="0"/>
        <pt x="247" y="176" on="0"/>
        <pt x="247" y="205" on="1"/>
        <pt x="247" y="707" on="1"/>
        <pt x="172" y="690" on="0"/>
        <pt x="90" y="587" on="0"/>
        <pt x="90" y="506" on="1"/>
        <pt x="90" y="477" on="0"/>
        <pt x="100" y="438" on="0"/>
        <pt x="112" y="412" on="0"/>
        <pt x="124" y="398" on="0"/>
        <pt x="126" y="394" on="1"/>
        <pt x="106" y="394" on="0"/>
        <pt x="66" y="409" on="0"/>
        <pt x="35" y="438" on="0"/>
        <pt x="16" y="483" on="0"/>
        <pt x="16" y="513" on="1"/>
        <pt x="16" y="561" on="0"/>
        <pt x="66" y="647" on="0"/>
        <pt x="151" y="712" on="0"/>
        <pt x="262" y="750" on="0"/>
        <pt x="323" y="750" on="1"/>
        <pt x="334" y="750" on="0"/>
        <pt x="354" y="748" on="0"/>
        <pt x="370" y="745" on="1"/>
        <pt x="370" y="207" on="1"/>
        <pt x="370" y="162" on="0"/>
        <pt x="391" y="107" on="0"/>
        <pt x="425" y="79" on="0"/>
        <pt x="469" y="70" on="0"/>
        <pt x="492" y="70" on="1"/>
        <pt x="515" y="70" on="0"/>
        <pt x="559" y="79" on="0"/>
        <pt x="594" y="108" on="0"/>
        <pt x="615" y="163" on="0"/>
        <pt x="615" y="209" on="1"/>
        <pt x="615" y="748" on="1"/>
      </contour>
      <contour>
        <pt x="516" y="811" on="1"/>
        <pt x="461" y="811" on="1"/>
        <pt x="360" y="1000" on="1"/>
        <pt x="445" y="1000" on="1"/>
      </contour>
    </TTGlyph>
    <TTGlyph name="Uhungarumlaut" xMin="16" yMin="-7" xMax="725" yMax="1000">
      <contour>
        <pt x="725" y="748" on="1"/>
        <pt x="725" y="206" on="1"/>
        <pt x="725" y="178" on="0"/>
        <pt x="708" y="104" on="0"/>
        <pt x="656" y="38" on="0"/>
        <pt x="561" y="-7" on="0"/>
        <pt x="484" y="-7" on="1"/>
        <pt x="407" y="-7" on="0"/>
        <pt x="314" y="38" on="0"/>
        <pt x="264" y="103" on="0"/>
        <pt x="247" y="176" on="0"/>
        <pt x="247" y="205" on="1"/>
        <pt x="247" y="707" on="1"/>
        <pt x="172" y="690" on="0"/>
        <pt x="90" y="587" on="0"/>
        <pt x="90" y="506" on="1"/>
        <pt x="90" y="477" on="0"/>
        <pt x="100" y="438" on="0"/>
        <pt x="112" y="412" on="0"/>
        <pt x="124" y="398" on="0"/>
        <pt x="126" y="394" on="1"/>
        <pt x="106" y="394" on="0"/>
        <pt x="66" y="409" on="0"/>
        <pt x="35" y="438" on="0"/>
        <pt x="16" y="483" on="0"/>
        <pt x="16" y="513" on="1"/>
        <pt x="16" y="561" on="0"/>
        <pt x="66" y="647" on="0"/>
        <pt x="151" y="712" on="0"/>
        <pt x="262" y="750" on="0"/>
        <pt x="323" y="750" on="1"/>
        <pt x="334" y="750" on="0"/>
        <pt x="354" y="748" on="0"/>
        <pt x="370" y="745" on="1"/>
        <pt x="370" y="207" on="1"/>
        <pt x="370" y="162" on="0"/>
        <pt x="391" y="107" on="0"/>
        <pt x="425" y="79" on="0"/>
        <pt x="469" y="70" on="0"/>
        <pt x="492" y="70" on="1"/>
        <pt x="515" y="70" on="0"/>
        <pt x="559" y="79" on="0"/>
        <pt x="594" y="108" on="0"/>
        <pt x="615" y="163" on="0"/>
        <pt x="615" y="209" on="1"/>
        <pt x="615" y="748" on="1"/>
      </contour>
      <contour>
        <pt x="577" y="1000" on="1"/>
        <pt x="662" y="1000" on="1"/>
        <pt x="581" y="811" on="1"/>
        <pt x="526" y="811" on="1"/>
      </contour>
      <contour>
        <pt x="447" y="1000" on="1"/>
        <pt x="532" y="1000" on="1"/>
        <pt x="451" y="811" on="1"/>
        <pt x="396" y="811" on="1"/>
      </contour>
    </TTGlyph>
    <TTGlyph name="V" xMin="19" yMin="0" xMax="649" yMax="750">
      <contour>
        <pt x="453" y="80" on="1"/>
        <pt x="592" y="745" on="1"/>
        <pt x="649" y="745" on="1"/>
        <pt x="481" y="0" on="1"/>
        <pt x="370" y="0" on="1"/>
        <pt x="221" y="693" on="1"/>
        <pt x="181" y="693" on="0"/>
        <pt x="128" y="666" on="0"/>
        <pt x="97" y="621" on="0"/>
        <pt x="84" y="564" on="0"/>
        <pt x="84" y="534" on="1"/>
        <pt x="84" y="491" on="0"/>
        <pt x="108" y="423" on="0"/>
        <pt x="131" y="394" on="1"/>
        <pt x="111" y="394" on="0"/>
        <pt x="71" y="406" on="0"/>
        <pt x="39" y="436" on="0"/>
        <pt x="19" y="487" on="0"/>
        <pt x="19" y="526" on="1"/>
        <pt x="19" y="571" on="0"/>
        <pt x="53" y="653" on="0"/>
        <pt x="119" y="714" on="0"/>
        <pt x="215" y="750" on="0"/>
        <pt x="277" y="750" on="1"/>
        <pt x="288" y="750" on="0"/>
        <pt x="309" y="748" on="0"/>
        <pt x="320" y="746" on="1"/>
      </contour>
    </TTGlyph>
    <TTGlyph name="W" xMin="19" yMin="0" xMax="995" yMax="750">
      <contour>
        <pt x="463" y="80" on="1"/>
        <pt x="592" y="745" on="1"/>
        <pt x="666" y="745" on="1"/>
        <pt x="809" y="80" on="1"/>
        <pt x="938" y="745" on="1"/>
        <pt x="995" y="745" on="1"/>
        <pt x="837" y="0" on="1"/>
        <pt x="726" y="0" on="1"/>
        <pt x="606" y="542" on="1"/>
        <pt x="491" y="0" on="1"/>
        <pt x="380" y="0" on="1"/>
        <pt x="221" y="693" on="1"/>
        <pt x="183" y="693" on="0"/>
        <pt x="131" y="666" on="0"/>
        <pt x="99" y="621" on="0"/>
        <pt x="84" y="564" on="0"/>
        <pt x="84" y="534" on="1"/>
        <pt x="84" y="491" on="0"/>
        <pt x="108" y="423" on="0"/>
        <pt x="131" y="394" on="1"/>
        <pt x="111" y="394" on="0"/>
        <pt x="71" y="406" on="0"/>
        <pt x="39" y="436" on="0"/>
        <pt x="19" y="487" on="0"/>
        <pt x="19" y="526" on="1"/>
        <pt x="19" y="571" on="0"/>
        <pt x="53" y="653" on="0"/>
        <pt x="119" y="714" on="0"/>
        <pt x="215" y="750" on="0"/>
        <pt x="277" y="750" on="1"/>
        <pt x="288" y="750" on="0"/>
        <pt x="309" y="748" on="0"/>
        <pt x="320" y="746" on="1"/>
      </contour>
    </TTGlyph>
    <TTGlyph name="X" xMin="20" yMin="0" xMax="630" yMax="751">
      <contour>
        <pt x="522" y="0" on="1"/>
        <pt x="391" y="301" on="1"/>
        <pt x="269" y="0" on="1"/>
        <pt x="222" y="0" on="1"/>
        <pt x="365" y="360" on="1"/>
        <pt x="212" y="714" on="1"/>
        <pt x="184" y="706" on="0"/>
        <pt x="139" y="669" on="0"/>
        <pt x="107" y="616" on="0"/>
        <pt x="90" y="553" on="0"/>
        <pt x="90" y="519" on="1"/>
        <pt x="90" y="473" on="0"/>
        <pt x="113" y="417" on="0"/>
        <pt x="127" y="403" on="1"/>
        <pt x="102" y="403" on="0"/>
        <pt x="62" y="413" on="0"/>
        <pt x="35" y="441" on="0"/>
        <pt x="20" y="488" on="0"/>
        <pt x="20" y="526" on="1"/>
        <pt x="20" y="576" on="0"/>
        <pt x="61" y="659" on="0"/>
        <pt x="129" y="718" on="0"/>
        <pt x="219" y="751" on="0"/>
        <pt x="268" y="751" on="1"/>
        <pt x="289" y="751" on="0"/>
        <pt x="309" y="748" on="1"/>
        <pt x="438" y="447" on="1"/>
        <pt x="556" y="745" on="1"/>
        <pt x="603" y="745" on="1"/>
        <pt x="463" y="388" on="1"/>
        <pt x="630" y="0" on="1"/>
      </contour>
    </TTGlyph>
    <TTGlyph name="Y" xMin="20" yMin="0" xMax="626" yMax="750">
      <contour>
        <pt x="358" y="0" on="1"/>
        <pt x="358" y="308" on="1"/>
        <pt x="201" y="714" on="1"/>
        <pt x="166" y="705" on="0"/>
        <pt x="121" y="666" on="0"/>
        <pt x="93" y="616" on="0"/>
        <pt x="82" y="558" on="0"/>
        <pt x="82" y="530" on="1"/>
        <pt x="82" y="451" on="0"/>
        <pt x="132" y="393" on="1"/>
        <pt x="79" y="393" on="0"/>
        <pt x="20" y="453" on="0"/>
        <pt x="20" y="524" on="1"/>
        <pt x="20" y="570" on="0"/>
        <pt x="53" y="652" on="0"/>
        <pt x="115" y="714" on="0"/>
        <pt x="204" y="750" on="0"/>
        <pt x="259" y="750" on="1"/>
        <pt x="270" y="750" on="0"/>
        <pt x="290" y="749" on="0"/>
        <pt x="300" y="748" on="1"/>
        <pt x="445" y="364" on="1"/>
        <pt x="574" y="745" on="1"/>
        <pt x="626" y="745" on="1"/>
        <pt x="466" y="308" on="1"/>
        <pt x="466" y="0" on="1"/>
      </contour>
    </TTGlyph>
    <TTGlyph name="Yacute" xMin="20" yMin="0" xMax="626" yMax="1000">
      <contour>
        <pt x="358" y="0" on="1"/>
        <pt x="358" y="308" on="1"/>
        <pt x="201" y="714" on="1"/>
        <pt x="166" y="705" on="0"/>
        <pt x="121" y="666" on="0"/>
        <pt x="93" y="616" on="0"/>
        <pt x="82" y="558" on="0"/>
        <pt x="82" y="530" on="1"/>
        <pt x="82" y="451" on="0"/>
        <pt x="132" y="393" on="1"/>
        <pt x="79" y="393" on="0"/>
        <pt x="20" y="453" on="0"/>
        <pt x="20" y="524" on="1"/>
        <pt x="20" y="570" on="0"/>
        <pt x="53" y="652" on="0"/>
        <pt x="115" y="714" on="0"/>
        <pt x="204" y="750" on="0"/>
        <pt x="259" y="750" on="1"/>
        <pt x="270" y="750" on="0"/>
        <pt x="290" y="749" on="0"/>
        <pt x="300" y="748" on="1"/>
        <pt x="445" y="364" on="1"/>
        <pt x="574" y="745" on="1"/>
        <pt x="626" y="745" on="1"/>
        <pt x="466" y="308" on="1"/>
        <pt x="466" y="0" on="1"/>
      </contour>
      <contour>
        <pt x="460" y="1000" on="1"/>
        <pt x="545" y="1000" on="1"/>
        <pt x="464" y="811" on="1"/>
        <pt x="409" y="811" on="1"/>
      </contour>
    </TTGlyph>
    <TTGlyph name="Ydieresis" xMin="20" yMin="0" xMax="626" yMax="949">
      <contour>
        <pt x="358" y="0" on="1"/>
        <pt x="358" y="308" on="1"/>
        <pt x="201" y="714" on="1"/>
        <pt x="166" y="705" on="0"/>
        <pt x="121" y="666" on="0"/>
        <pt x="93" y="616" on="0"/>
        <pt x="82" y="558" on="0"/>
        <pt x="82" y="530" on="1"/>
        <pt x="82" y="451" on="0"/>
        <pt x="132" y="393" on="1"/>
        <pt x="79" y="393" on="0"/>
        <pt x="20" y="453" on="0"/>
        <pt x="20" y="524" on="1"/>
        <pt x="20" y="570" on="0"/>
        <pt x="53" y="652" on="0"/>
        <pt x="115" y="714" on="0"/>
        <pt x="204" y="750" on="0"/>
        <pt x="259" y="750" on="1"/>
        <pt x="270" y="750" on="0"/>
        <pt x="290" y="749" on="0"/>
        <pt x="300" y="748" on="1"/>
        <pt x="445" y="364" on="1"/>
        <pt x="574" y="745" on="1"/>
        <pt x="626" y="745" on="1"/>
        <pt x="466" y="308" on="1"/>
        <pt x="466" y="0" on="1"/>
      </contour>
      <contour>
        <pt x="445" y="895" on="1"/>
        <pt x="445" y="917" on="0"/>
        <pt x="475" y="949" on="0"/>
        <pt x="498" y="949" on="1"/>
        <pt x="520" y="949" on="0"/>
        <pt x="552" y="917" on="0"/>
        <pt x="552" y="895" on="1"/>
        <pt x="552" y="872" on="0"/>
        <pt x="520" y="842" on="0"/>
        <pt x="498" y="842" on="1"/>
        <pt x="475" y="842" on="0"/>
        <pt x="445" y="872" on="0"/>
      </contour>
      <contour>
        <pt x="286" y="895" on="1"/>
        <pt x="286" y="917" on="0"/>
        <pt x="316" y="949" on="0"/>
        <pt x="339" y="949" on="1"/>
        <pt x="361" y="949" on="0"/>
        <pt x="393" y="917" on="0"/>
        <pt x="393" y="895" on="1"/>
        <pt x="393" y="872" on="0"/>
        <pt x="361" y="842" on="0"/>
        <pt x="339" y="842" on="1"/>
        <pt x="316" y="842" on="0"/>
        <pt x="286" y="872" on="0"/>
      </contour>
    </TTGlyph>
    <TTGlyph name="Z" xMin="18" yMin="0" xMax="486" yMax="750">
      <contour>
        <pt x="399" y="71" on="1"/>
        <pt x="387" y="79" on="0"/>
        <pt x="374" y="102" on="0"/>
        <pt x="374" y="113" on="1"/>
        <pt x="374" y="132" on="0"/>
        <pt x="401" y="153" on="0"/>
        <pt x="421" y="153" on="1"/>
        <pt x="431" y="153" on="0"/>
        <pt x="454" y="145" on="0"/>
        <pt x="474" y="130" on="0"/>
        <pt x="486" y="108" on="0"/>
        <pt x="486" y="93" on="1"/>
        <pt x="486" y="76" on="0"/>
        <pt x="471" y="43" on="0"/>
        <pt x="443" y="16" on="0"/>
        <pt x="404" y="0" on="0"/>
        <pt x="379" y="0" on="1"/>
        <pt x="18" y="0" on="1"/>
        <pt x="347" y="705" on="1"/>
        <pt x="341" y="705" on="0"/>
        <pt x="306" y="707" on="0"/>
        <pt x="262" y="709" on="0"/>
        <pt x="218" y="710" on="0"/>
        <pt x="204" y="710" on="1"/>
        <pt x="188" y="710" on="0"/>
        <pt x="158" y="708" on="0"/>
        <pt x="134" y="704" on="0"/>
        <pt x="120" y="696" on="0"/>
        <pt x="119" y="690" on="1"/>
        <pt x="143" y="674" on="0"/>
        <pt x="143" y="649" on="1"/>
        <pt x="143" y="633" on="0"/>
        <pt x="120" y="607" on="0"/>
        <pt x="100" y="607" on="1"/>
        <pt x="88" y="607" on="0"/>
        <pt x="64" y="617" on="0"/>
        <pt x="44" y="635" on="0"/>
        <pt x="31" y="661" on="0"/>
        <pt x="31" y="677" on="1"/>
        <pt x="31" y="705" on="0"/>
        <pt x="90" y="750" on="0"/>
        <pt x="141" y="750" on="1"/>
        <pt x="481" y="750" on="1"/>
        <pt x="153" y="53" on="1"/>
        <pt x="176" y="53" on="0"/>
        <pt x="247" y="50" on="0"/>
        <pt x="284" y="50" on="1"/>
        <pt x="305" y="50" on="0"/>
        <pt x="344" y="52" on="0"/>
        <pt x="376" y="56" on="0"/>
        <pt x="396" y="65" on="0"/>
      </contour>
    </TTGlyph>
    <TTGlyph name="Zacute" xMin="18" yMin="0" xMax="486" yMax="1000">
      <contour>
        <pt x="399" y="71" on="1"/>
        <pt x="387" y="79" on="0"/>
        <pt x="374" y="102" on="0"/>
        <pt x="374" y="113" on="1"/>
        <pt x="374" y="132" on="0"/>
        <pt x="401" y="153" on="0"/>
        <pt x="421" y="153" on="1"/>
        <pt x="431" y="153" on="0"/>
        <pt x="454" y="145" on="0"/>
        <pt x="474" y="130" on="0"/>
        <pt x="486" y="108" on="0"/>
        <pt x="486" y="93" on="1"/>
        <pt x="486" y="76" on="0"/>
        <pt x="471" y="43" on="0"/>
        <pt x="443" y="16" on="0"/>
        <pt x="404" y="0" on="0"/>
        <pt x="379" y="0" on="1"/>
        <pt x="18" y="0" on="1"/>
        <pt x="347" y="705" on="1"/>
        <pt x="341" y="705" on="0"/>
        <pt x="306" y="707" on="0"/>
        <pt x="262" y="709" on="0"/>
        <pt x="218" y="710" on="0"/>
        <pt x="204" y="710" on="1"/>
        <pt x="188" y="710" on="0"/>
        <pt x="158" y="708" on="0"/>
        <pt x="134" y="704" on="0"/>
        <pt x="120" y="696" on="0"/>
        <pt x="119" y="690" on="1"/>
        <pt x="143" y="674" on="0"/>
        <pt x="143" y="649" on="1"/>
        <pt x="143" y="633" on="0"/>
        <pt x="120" y="607" on="0"/>
        <pt x="100" y="607" on="1"/>
        <pt x="88" y="607" on="0"/>
        <pt x="64" y="617" on="0"/>
        <pt x="44" y="635" on="0"/>
        <pt x="31" y="661" on="0"/>
        <pt x="31" y="677" on="1"/>
        <pt x="31" y="705" on="0"/>
        <pt x="90" y="750" on="0"/>
        <pt x="141" y="750" on="1"/>
        <pt x="481" y="750" on="1"/>
        <pt x="153" y="53" on="1"/>
        <pt x="176" y="53" on="0"/>
        <pt x="247" y="50" on="0"/>
        <pt x="284" y="50" on="1"/>
        <pt x="305" y="50" on="0"/>
        <pt x="344" y="52" on="0"/>
        <pt x="376" y="56" on="0"/>
        <pt x="396" y="65" on="0"/>
      </contour>
      <contour>
        <pt x="292" y="1000" on="1"/>
        <pt x="377" y="1000" on="1"/>
        <pt x="296" y="811" on="1"/>
        <pt x="241" y="811" on="1"/>
      </contour>
    </TTGlyph>
    <TTGlyph name="Zcaron" xMin="18" yMin="0" xMax="486" yMax="992">
      <contour>
        <pt x="399" y="71" on="1"/>
        <pt x="387" y="79" on="0"/>
        <pt x="374" y="102" on="0"/>
        <pt x="374" y="113" on="1"/>
        <pt x="374" y="132" on="0"/>
        <pt x="401" y="153" on="0"/>
        <pt x="421" y="153" on="1"/>
        <pt x="431" y="153" on="0"/>
        <pt x="454" y="145" on="0"/>
        <pt x="474" y="130" on="0"/>
        <pt x="486" y="108" on="0"/>
        <pt x="486" y="93" on="1"/>
        <pt x="486" y="76" on="0"/>
        <pt x="471" y="43" on="0"/>
        <pt x="443" y="16" on="0"/>
        <pt x="404" y="0" on="0"/>
        <pt x="379" y="0" on="1"/>
        <pt x="18" y="0" on="1"/>
        <pt x="347" y="705" on="1"/>
        <pt x="341" y="705" on="0"/>
        <pt x="306" y="707" on="0"/>
        <pt x="262" y="709" on="0"/>
        <pt x="218" y="710" on="0"/>
        <pt x="204" y="710" on="1"/>
        <pt x="188" y="710" on="0"/>
        <pt x="158" y="708" on="0"/>
        <pt x="134" y="704" on="0"/>
        <pt x="120" y="696" on="0"/>
        <pt x="119" y="690" on="1"/>
        <pt x="143" y="674" on="0"/>
        <pt x="143" y="649" on="1"/>
        <pt x="143" y="633" on="0"/>
        <pt x="120" y="607" on="0"/>
        <pt x="100" y="607" on="1"/>
        <pt x="88" y="607" on="0"/>
        <pt x="64" y="617" on="0"/>
        <pt x="44" y="635" on="0"/>
        <pt x="31" y="661" on="0"/>
        <pt x="31" y="677" on="1"/>
        <pt x="31" y="705" on="0"/>
        <pt x="90" y="750" on="0"/>
        <pt x="141" y="750" on="1"/>
        <pt x="481" y="750" on="1"/>
        <pt x="153" y="53" on="1"/>
        <pt x="176" y="53" on="0"/>
        <pt x="247" y="50" on="0"/>
        <pt x="284" y="50" on="1"/>
        <pt x="305" y="50" on="0"/>
        <pt x="344" y="52" on="0"/>
        <pt x="376" y="56" on="0"/>
        <pt x="396" y="65" on="0"/>
      </contour>
      <contour>
        <pt x="185" y="992" on="1"/>
        <pt x="271" y="891" on="1"/>
        <pt x="412" y="992" on="1"/>
        <pt x="446" y="992" on="1"/>
        <pt x="280" y="825" on="1"/>
        <pt x="259" y="825" on="1"/>
        <pt x="163" y="992" on="1"/>
      </contour>
    </TTGlyph>
    <TTGlyph name="Zdotaccent" xMin="18" yMin="0" xMax="486" yMax="945">
      <contour>
        <pt x="215" y="887" on="1"/>
        <pt x="215" y="911" on="0"/>
        <pt x="248" y="945" on="0"/>
        <pt x="272" y="945" on="1"/>
        <pt x="296" y="945" on="0"/>
        <pt x="330" y="911" on="0"/>
        <pt x="330" y="887" on="1"/>
        <pt x="330" y="863" on="0"/>
        <pt x="296" y="830" on="0"/>
        <pt x="272" y="830" on="1"/>
        <pt x="248" y="830" on="0"/>
        <pt x="215" y="863" on="0"/>
      </contour>
      <contour>
        <pt x="399" y="71" on="1"/>
        <pt x="387" y="79" on="0"/>
        <pt x="374" y="102" on="0"/>
        <pt x="374" y="113" on="1"/>
        <pt x="374" y="132" on="0"/>
        <pt x="401" y="153" on="0"/>
        <pt x="421" y="153" on="1"/>
        <pt x="431" y="153" on="0"/>
        <pt x="454" y="145" on="0"/>
        <pt x="474" y="130" on="0"/>
        <pt x="486" y="108" on="0"/>
        <pt x="486" y="93" on="1"/>
        <pt x="486" y="76" on="0"/>
        <pt x="471" y="43" on="0"/>
        <pt x="443" y="16" on="0"/>
        <pt x="404" y="0" on="0"/>
        <pt x="379" y="0" on="1"/>
        <pt x="18" y="0" on="1"/>
        <pt x="347" y="705" on="1"/>
        <pt x="341" y="705" on="0"/>
        <pt x="306" y="707" on="0"/>
        <pt x="262" y="709" on="0"/>
        <pt x="218" y="710" on="0"/>
        <pt x="204" y="710" on="1"/>
        <pt x="188" y="710" on="0"/>
        <pt x="158" y="708" on="0"/>
        <pt x="134" y="704" on="0"/>
        <pt x="120" y="696" on="0"/>
        <pt x="119" y="690" on="1"/>
        <pt x="143" y="674" on="0"/>
        <pt x="143" y="649" on="1"/>
        <pt x="143" y="633" on="0"/>
        <pt x="120" y="607" on="0"/>
        <pt x="100" y="607" on="1"/>
        <pt x="88" y="607" on="0"/>
        <pt x="64" y="617" on="0"/>
        <pt x="44" y="635" on="0"/>
        <pt x="31" y="661" on="0"/>
        <pt x="31" y="677" on="1"/>
        <pt x="31" y="705" on="0"/>
        <pt x="90" y="750" on="0"/>
        <pt x="141" y="750" on="1"/>
        <pt x="481" y="750" on="1"/>
        <pt x="153" y="53" on="1"/>
        <pt x="176" y="53" on="0"/>
        <pt x="247" y="50" on="0"/>
        <pt x="284" y="50" on="1"/>
        <pt x="305" y="50" on="0"/>
        <pt x="344" y="52" on="0"/>
        <pt x="376" y="56" on="0"/>
        <pt x="396" y="65" on="0"/>
      </contour>
    </TTGlyph>
    <TTGlyph name="a" xMin="32" yMin="-6" xMax="569" yMax="505">
      <contour>
        <pt x="415" y="500" on="1"/>
        <pt x="415" y="160" on="1"/>
        <pt x="415" y="150" on="0"/>
        <pt x="417" y="120" on="0"/>
        <pt x="426" y="91" on="0"/>
        <pt x="444" y="70" on="0"/>
        <pt x="460" y="70" on="1"/>
        <pt x="509" y="70" on="0"/>
        <pt x="532" y="179" on="1"/>
        <pt x="569" y="179" on="1"/>
        <pt x="558" y="116" on="0"/>
        <pt x="524" y="43" on="0"/>
        <pt x="486" y="5" on="0"/>
        <pt x="446" y="-6" on="0"/>
        <pt x="430" y="-6" on="1"/>
        <pt x="407" y="-6" on="0"/>
        <pt x="374" y="10" on="0"/>
        <pt x="351" y="36" on="0"/>
        <pt x="337" y="70" on="0"/>
        <pt x="333" y="89" on="1"/>
        <pt x="318" y="50" on="0"/>
        <pt x="251" y="-6" on="0"/>
        <pt x="203" y="-6" on="1"/>
        <pt x="173" y="-6" on="0"/>
        <pt x="112" y="18" on="0"/>
        <pt x="63" y="73" on="0"/>
        <pt x="32" y="160" on="0"/>
        <pt x="32" y="223" on="1"/>
        <pt x="32" y="269" on="0"/>
        <pt x="53" y="369" on="0"/>
        <pt x="99" y="451" on="0"/>
        <pt x="171" y="505" on="0"/>
        <pt x="222" y="505" on="1"/>
        <pt x="234" y="505" on="0"/>
        <pt x="261" y="500" on="0"/>
        <pt x="286" y="488" on="0"/>
        <pt x="308" y="467" on="0"/>
        <pt x="315" y="452" on="1"/>
        <pt x="315" y="500" on="1"/>
      </contour>
      <contour>
        <pt x="228" y="70" on="1"/>
        <pt x="243" y="70" on="0"/>
        <pt x="274" y="87" on="0"/>
        <pt x="299" y="116" on="0"/>
        <pt x="315" y="156" on="0"/>
        <pt x="315" y="179" on="1"/>
        <pt x="315" y="407" on="1"/>
        <pt x="308" y="423" on="0"/>
        <pt x="279" y="450" on="0"/>
        <pt x="256" y="450" on="1"/>
        <pt x="224" y="450" on="0"/>
        <pt x="178" y="407" on="0"/>
        <pt x="150" y="342" on="0"/>
        <pt x="137" y="265" on="0"/>
        <pt x="137" y="230" on="1"/>
        <pt x="137" y="144" on="0"/>
        <pt x="184" y="70" on="0"/>
      </contour>
    </TTGlyph>
    <TTGlyph name="a.end" xMin="32" yMin="-6" xMax="498" yMax="505">
      <contour>
        <pt x="415" y="500" on="1"/>
        <pt x="415" y="160" on="1"/>
        <pt x="415" y="148" on="0"/>
        <pt x="417" y="117" on="0"/>
        <pt x="426" y="89" on="0"/>
        <pt x="445" y="70" on="0"/>
        <pt x="463" y="70" on="1"/>
        <pt x="471" y="70" on="0"/>
        <pt x="490" y="74" on="0"/>
        <pt x="496" y="76" on="1"/>
        <pt x="497" y="71" on="0"/>
        <pt x="498" y="63" on="0"/>
        <pt x="498" y="58" on="1"/>
        <pt x="498" y="28" on="0"/>
        <pt x="452" y="-6" on="0"/>
        <pt x="423" y="-6" on="1"/>
        <pt x="392" y="-6" on="0"/>
        <pt x="342" y="37" on="0"/>
        <pt x="333" y="88" on="1"/>
        <pt x="318" y="49" on="0"/>
        <pt x="250" y="-6" on="0"/>
        <pt x="202" y="-6" on="1"/>
        <pt x="172" y="-6" on="0"/>
        <pt x="111" y="19" on="0"/>
        <pt x="63" y="73" on="0"/>
        <pt x="32" y="159" on="0"/>
        <pt x="32" y="220" on="1"/>
        <pt x="32" y="267" on="0"/>
        <pt x="53" y="368" on="0"/>
        <pt x="98" y="451" on="0"/>
        <pt x="170" y="505" on="0"/>
        <pt x="220" y="505" on="1"/>
        <pt x="246" y="505" on="0"/>
        <pt x="301" y="483" on="0"/>
        <pt x="315" y="452" on="1"/>
        <pt x="315" y="500" on="1"/>
      </contour>
      <contour>
        <pt x="223" y="70" on="1"/>
        <pt x="242" y="70" on="0"/>
        <pt x="276" y="88" on="0"/>
        <pt x="301" y="118" on="0"/>
        <pt x="315" y="157" on="0"/>
        <pt x="315" y="179" on="1"/>
        <pt x="315" y="407" on="1"/>
        <pt x="308" y="424" on="0"/>
        <pt x="280" y="450" on="0"/>
        <pt x="254" y="450" on="1"/>
        <pt x="222" y="450" on="0"/>
        <pt x="178" y="407" on="0"/>
        <pt x="150" y="341" on="0"/>
        <pt x="137" y="260" on="0"/>
        <pt x="137" y="223" on="1"/>
        <pt x="137" y="142" on="0"/>
        <pt x="187" y="70" on="0"/>
      </contour>
    </TTGlyph>
</ttFont>
